<svg width="116" height="37" viewBox="0 0 116 37" fill="none" xmlns="http://www.w3.org/2000/svg">
<g id="Button Text (Yellow)">
<g id="Rectangle 8" filter="url(#filter0_d_1_96)">
<rect width="116" height="33" rx="16.5" fill="url(#paint0_linear_1_96)"/>
<rect x="1" y="1" width="114" height="31" rx="15.5" stroke="#FAF8C4" stroke-width="2"/>
</g>
<g id="SETTINGS" filter="url(#filter1_d_1_96)">
<mask id="path-3-outside-1_1_96" maskUnits="userSpaceOnUse" x="26" y="11.7059" width="65" height="12" fill="black">
<rect fill="white" x="26" y="11.7059" width="65" height="12"/>
<path d="M30.9508 21.8979C30.2468 21.8979 29.5668 21.8179 28.9108 21.6579C28.2548 21.4979 27.7148 21.2899 27.2908 21.0339L28.2028 18.9699C28.6028 19.2019 29.0468 19.3899 29.5348 19.5339C30.0308 19.6699 30.5108 19.7379 30.9748 19.7379C31.2468 19.7379 31.4588 19.7219 31.6108 19.6899C31.7708 19.6499 31.8868 19.5979 31.9588 19.5339C32.0308 19.4619 32.0668 19.3779 32.0668 19.2819C32.0668 19.1299 31.9828 19.0099 31.8148 18.9219C31.6468 18.8339 31.4228 18.7619 31.1428 18.7059C30.8708 18.6419 30.5708 18.5779 30.2428 18.5139C29.9148 18.4419 29.5828 18.3499 29.2468 18.2379C28.9188 18.1259 28.6148 17.9779 28.3348 17.7939C28.0628 17.6099 27.8428 17.3699 27.6748 17.0739C27.5068 16.7699 27.4228 16.3939 27.4228 15.9459C27.4228 15.4259 27.5668 14.9539 27.8548 14.5299C28.1508 14.0979 28.5868 13.7539 29.1628 13.4979C29.7468 13.2419 30.4708 13.1139 31.3348 13.1139C31.9028 13.1139 32.4628 13.1739 33.0148 13.2939C33.5668 13.4139 34.0628 13.5979 34.5028 13.8459L33.6508 15.8979C33.2348 15.6899 32.8308 15.5339 32.4388 15.4299C32.0548 15.3259 31.6788 15.2739 31.3108 15.2739C31.0388 15.2739 30.8228 15.2979 30.6628 15.3459C30.5028 15.3939 30.3868 15.4579 30.3148 15.5379C30.2508 15.6179 30.2188 15.7059 30.2188 15.8019C30.2188 15.9459 30.3028 16.0619 30.4708 16.1499C30.6388 16.2299 30.8588 16.2979 31.1308 16.3539C31.4108 16.4099 31.7148 16.4699 32.0428 16.5339C32.3788 16.5979 32.7108 16.6859 33.0388 16.7979C33.3668 16.9099 33.6668 17.0579 33.9388 17.2419C34.2188 17.4259 34.4428 17.6659 34.6108 17.9619C34.7788 18.2579 34.8628 18.6259 34.8628 19.0659C34.8628 19.5779 34.7148 20.0499 34.4188 20.4819C34.1308 20.9059 33.6988 21.2499 33.1228 21.5139C32.5468 21.7699 31.8228 21.8979 30.9508 21.8979ZM38.2975 16.4259H42.0415V18.4659H38.2975V16.4259ZM38.4895 19.5699H42.6895V21.7059H35.7055V13.3059H42.5335V15.4419H38.4895V19.5699ZM45.6037 21.7059V15.5019H43.1437V13.3059H50.8957V15.5019H48.4357V21.7059H45.6037ZM53.5725 21.7059V15.5019H51.1125V13.3059H58.8645V15.5019H56.4045V21.7059H53.5725ZM59.6 21.7059V13.3059H62.432V21.7059H59.6ZM63.7953 21.7059V13.3059H66.1233L70.3953 18.4179H69.3153V13.3059H72.0753V21.7059H69.7473L65.4753 16.5939H66.5553V21.7059H63.7953ZM77.7959 21.8979C77.1159 21.8979 76.4879 21.7939 75.9119 21.5859C75.3439 21.3699 74.8479 21.0659 74.4239 20.6739C74.0079 20.2819 73.6839 19.8179 73.4519 19.2819C73.2199 18.7459 73.1039 18.1539 73.1039 17.5059C73.1039 16.8579 73.2199 16.2659 73.4519 15.7299C73.6839 15.1939 74.0119 14.7299 74.4359 14.3379C74.8599 13.9459 75.3599 13.6459 75.9359 13.4379C76.5199 13.2219 77.1599 13.1139 77.8559 13.1139C78.6879 13.1139 79.4279 13.2539 80.0759 13.5339C80.7319 13.8139 81.2719 14.2139 81.6959 14.7339L79.8839 16.3299C79.6199 16.0259 79.3319 15.7979 79.0199 15.6459C78.7159 15.4859 78.3759 15.4059 77.9999 15.4059C77.6879 15.4059 77.4039 15.4539 77.1479 15.5499C76.8999 15.6459 76.6879 15.7859 76.5119 15.9699C76.3359 16.1539 76.1999 16.3739 76.1039 16.6299C76.0079 16.8859 75.9599 17.1779 75.9599 17.5059C75.9599 17.8179 76.0079 18.1059 76.1039 18.3699C76.1999 18.6259 76.3359 18.8459 76.5119 19.0299C76.6879 19.2139 76.8959 19.3579 77.1359 19.4619C77.3839 19.5579 77.6599 19.6059 77.9639 19.6059C78.2839 19.6059 78.5959 19.5539 78.8999 19.4499C79.2039 19.3379 79.5279 19.1499 79.8719 18.8859L81.4559 20.8299C80.9439 21.1739 80.3599 21.4379 79.7039 21.6219C79.0479 21.8059 78.4119 21.8979 77.7959 21.8979ZM78.9959 20.4699V17.2779H81.4559V20.8299L78.9959 20.4699ZM85.7945 21.8979C85.0905 21.8979 84.4105 21.8179 83.7545 21.6579C83.0985 21.4979 82.5585 21.2899 82.1345 21.0339L83.0465 18.9699C83.4465 19.2019 83.8905 19.3899 84.3785 19.5339C84.8745 19.6699 85.3545 19.7379 85.8185 19.7379C86.0905 19.7379 86.3025 19.7219 86.4545 19.6899C86.6145 19.6499 86.7305 19.5979 86.8025 19.5339C86.8745 19.4619 86.9105 19.3779 86.9105 19.2819C86.9105 19.1299 86.8265 19.0099 86.6585 18.9219C86.4905 18.8339 86.2665 18.7619 85.9865 18.7059C85.7145 18.6419 85.4145 18.5779 85.0865 18.5139C84.7585 18.4419 84.4265 18.3499 84.0905 18.2379C83.7625 18.1259 83.4585 17.9779 83.1785 17.7939C82.9065 17.6099 82.6865 17.3699 82.5185 17.0739C82.3505 16.7699 82.2665 16.3939 82.2665 15.9459C82.2665 15.4259 82.4105 14.9539 82.6985 14.5299C82.9945 14.0979 83.4305 13.7539 84.0065 13.4979C84.5905 13.2419 85.3145 13.1139 86.1785 13.1139C86.7465 13.1139 87.3065 13.1739 87.8585 13.2939C88.4105 13.4139 88.9065 13.5979 89.3465 13.8459L88.4945 15.8979C88.0785 15.6899 87.6745 15.5339 87.2825 15.4299C86.8985 15.3259 86.5225 15.2739 86.1545 15.2739C85.8825 15.2739 85.6665 15.2979 85.5065 15.3459C85.3465 15.3939 85.2305 15.4579 85.1585 15.5379C85.0945 15.6179 85.0625 15.7059 85.0625 15.8019C85.0625 15.9459 85.1465 16.0619 85.3145 16.1499C85.4825 16.2299 85.7025 16.2979 85.9745 16.3539C86.2545 16.4099 86.5585 16.4699 86.8865 16.5339C87.2225 16.5979 87.5545 16.6859 87.8825 16.7979C88.2105 16.9099 88.5105 17.0579 88.7825 17.2419C89.0625 17.4259 89.2865 17.6659 89.4545 17.9619C89.6225 18.2579 89.7065 18.6259 89.7065 19.0659C89.7065 19.5779 89.5585 20.0499 89.2625 20.4819C88.9745 20.9059 88.5425 21.2499 87.9665 21.5139C87.3905 21.7699 86.6665 21.8979 85.7945 21.8979Z"/>
</mask>
<path d="M30.9508 21.8979C30.2468 21.8979 29.5668 21.8179 28.9108 21.6579C28.2548 21.4979 27.7148 21.2899 27.2908 21.0339L28.2028 18.9699C28.6028 19.2019 29.0468 19.3899 29.5348 19.5339C30.0308 19.6699 30.5108 19.7379 30.9748 19.7379C31.2468 19.7379 31.4588 19.7219 31.6108 19.6899C31.7708 19.6499 31.8868 19.5979 31.9588 19.5339C32.0308 19.4619 32.0668 19.3779 32.0668 19.2819C32.0668 19.1299 31.9828 19.0099 31.8148 18.9219C31.6468 18.8339 31.4228 18.7619 31.1428 18.7059C30.8708 18.6419 30.5708 18.5779 30.2428 18.5139C29.9148 18.4419 29.5828 18.3499 29.2468 18.2379C28.9188 18.1259 28.6148 17.9779 28.3348 17.7939C28.0628 17.6099 27.8428 17.3699 27.6748 17.0739C27.5068 16.7699 27.4228 16.3939 27.4228 15.9459C27.4228 15.4259 27.5668 14.9539 27.8548 14.5299C28.1508 14.0979 28.5868 13.7539 29.1628 13.4979C29.7468 13.2419 30.4708 13.1139 31.3348 13.1139C31.9028 13.1139 32.4628 13.1739 33.0148 13.2939C33.5668 13.4139 34.0628 13.5979 34.5028 13.8459L33.6508 15.8979C33.2348 15.6899 32.8308 15.5339 32.4388 15.4299C32.0548 15.3259 31.6788 15.2739 31.3108 15.2739C31.0388 15.2739 30.8228 15.2979 30.6628 15.3459C30.5028 15.3939 30.3868 15.4579 30.3148 15.5379C30.2508 15.6179 30.2188 15.7059 30.2188 15.8019C30.2188 15.9459 30.3028 16.0619 30.4708 16.1499C30.6388 16.2299 30.8588 16.2979 31.1308 16.3539C31.4108 16.4099 31.7148 16.4699 32.0428 16.5339C32.3788 16.5979 32.7108 16.6859 33.0388 16.7979C33.3668 16.9099 33.6668 17.0579 33.9388 17.2419C34.2188 17.4259 34.4428 17.6659 34.6108 17.9619C34.7788 18.2579 34.8628 18.6259 34.8628 19.0659C34.8628 19.5779 34.7148 20.0499 34.4188 20.4819C34.1308 20.9059 33.6988 21.2499 33.1228 21.5139C32.5468 21.7699 31.8228 21.8979 30.9508 21.8979ZM38.2975 16.4259H42.0415V18.4659H38.2975V16.4259ZM38.4895 19.5699H42.6895V21.7059H35.7055V13.3059H42.5335V15.4419H38.4895V19.5699ZM45.6037 21.7059V15.5019H43.1437V13.3059H50.8957V15.5019H48.4357V21.7059H45.6037ZM53.5725 21.7059V15.5019H51.1125V13.3059H58.8645V15.5019H56.4045V21.7059H53.5725ZM59.6 21.7059V13.3059H62.432V21.7059H59.6ZM63.7953 21.7059V13.3059H66.1233L70.3953 18.4179H69.3153V13.3059H72.0753V21.7059H69.7473L65.4753 16.5939H66.5553V21.7059H63.7953ZM77.7959 21.8979C77.1159 21.8979 76.4879 21.7939 75.9119 21.5859C75.3439 21.3699 74.8479 21.0659 74.4239 20.6739C74.0079 20.2819 73.6839 19.8179 73.4519 19.2819C73.2199 18.7459 73.1039 18.1539 73.1039 17.5059C73.1039 16.8579 73.2199 16.2659 73.4519 15.7299C73.6839 15.1939 74.0119 14.7299 74.4359 14.3379C74.8599 13.9459 75.3599 13.6459 75.9359 13.4379C76.5199 13.2219 77.1599 13.1139 77.8559 13.1139C78.6879 13.1139 79.4279 13.2539 80.0759 13.5339C80.7319 13.8139 81.2719 14.2139 81.6959 14.7339L79.8839 16.3299C79.6199 16.0259 79.3319 15.7979 79.0199 15.6459C78.7159 15.4859 78.3759 15.4059 77.9999 15.4059C77.6879 15.4059 77.4039 15.4539 77.1479 15.5499C76.8999 15.6459 76.6879 15.7859 76.5119 15.9699C76.3359 16.1539 76.1999 16.3739 76.1039 16.6299C76.0079 16.8859 75.9599 17.1779 75.9599 17.5059C75.9599 17.8179 76.0079 18.1059 76.1039 18.3699C76.1999 18.6259 76.3359 18.8459 76.5119 19.0299C76.6879 19.2139 76.8959 19.3579 77.1359 19.4619C77.3839 19.5579 77.6599 19.6059 77.9639 19.6059C78.2839 19.6059 78.5959 19.5539 78.8999 19.4499C79.2039 19.3379 79.5279 19.1499 79.8719 18.8859L81.4559 20.8299C80.9439 21.1739 80.3599 21.4379 79.7039 21.6219C79.0479 21.8059 78.4119 21.8979 77.7959 21.8979ZM78.9959 20.4699V17.2779H81.4559V20.8299L78.9959 20.4699ZM85.7945 21.8979C85.0905 21.8979 84.4105 21.8179 83.7545 21.6579C83.0985 21.4979 82.5585 21.2899 82.1345 21.0339L83.0465 18.9699C83.4465 19.2019 83.8905 19.3899 84.3785 19.5339C84.8745 19.6699 85.3545 19.7379 85.8185 19.7379C86.0905 19.7379 86.3025 19.7219 86.4545 19.6899C86.6145 19.6499 86.7305 19.5979 86.8025 19.5339C86.8745 19.4619 86.9105 19.3779 86.9105 19.2819C86.9105 19.1299 86.8265 19.0099 86.6585 18.9219C86.4905 18.8339 86.2665 18.7619 85.9865 18.7059C85.7145 18.6419 85.4145 18.5779 85.0865 18.5139C84.7585 18.4419 84.4265 18.3499 84.0905 18.2379C83.7625 18.1259 83.4585 17.9779 83.1785 17.7939C82.9065 17.6099 82.6865 17.3699 82.5185 17.0739C82.3505 16.7699 82.2665 16.3939 82.2665 15.9459C82.2665 15.4259 82.4105 14.9539 82.6985 14.5299C82.9945 14.0979 83.4305 13.7539 84.0065 13.4979C84.5905 13.2419 85.3145 13.1139 86.1785 13.1139C86.7465 13.1139 87.3065 13.1739 87.8585 13.2939C88.4105 13.4139 88.9065 13.5979 89.3465 13.8459L88.4945 15.8979C88.0785 15.6899 87.6745 15.5339 87.2825 15.4299C86.8985 15.3259 86.5225 15.2739 86.1545 15.2739C85.8825 15.2739 85.6665 15.2979 85.5065 15.3459C85.3465 15.3939 85.2305 15.4579 85.1585 15.5379C85.0945 15.6179 85.0625 15.7059 85.0625 15.8019C85.0625 15.9459 85.1465 16.0619 85.3145 16.1499C85.4825 16.2299 85.7025 16.2979 85.9745 16.3539C86.2545 16.4099 86.5585 16.4699 86.8865 16.5339C87.2225 16.5979 87.5545 16.6859 87.8825 16.7979C88.2105 16.9099 88.5105 17.0579 88.7825 17.2419C89.0625 17.4259 89.2865 17.6659 89.4545 17.9619C89.6225 18.2579 89.7065 18.6259 89.7065 19.0659C89.7065 19.5779 89.5585 20.0499 89.2625 20.4819C88.9745 20.9059 88.5425 21.2499 87.9665 21.5139C87.3905 21.7699 86.6665 21.8979 85.7945 21.8979Z" fill="white"/>
<path d="M28.9108 21.6579L29.1477 20.6864L28.9108 21.6579ZM27.2908 21.0339L26.3761 20.6298C26.1727 21.0901 26.3431 21.6299 26.7739 21.89L27.2908 21.0339ZM28.2028 18.9699L28.7045 18.1049C28.4586 17.9623 28.1637 17.9311 27.8934 18.019C27.6231 18.107 27.403 18.3058 27.2881 18.5658L28.2028 18.9699ZM29.5348 19.5339L29.2517 20.493C29.2579 20.4949 29.2641 20.4966 29.2703 20.4983L29.5348 19.5339ZM31.6108 19.6899L31.8168 20.6685C31.829 20.6659 31.8412 20.6631 31.8533 20.6601L31.6108 19.6899ZM31.9588 19.5339L32.6231 20.2813C32.6378 20.2683 32.652 20.2549 32.6659 20.241L31.9588 19.5339ZM31.8148 18.9219L31.3508 19.8078H31.3508L31.8148 18.9219ZM31.1428 18.7059L30.9137 19.6793C30.9247 19.6819 30.9356 19.6843 30.9467 19.6865L31.1428 18.7059ZM30.2428 18.5139L30.0284 19.4907C30.036 19.4923 30.0436 19.4939 30.0513 19.4954L30.2428 18.5139ZM29.2468 18.2379L28.9236 19.1843L28.9305 19.1866L29.2468 18.2379ZM28.3348 17.7939L27.7744 18.6223L27.7856 18.6296L28.3348 17.7939ZM27.6748 17.0739L26.7995 17.5576L26.8051 17.5675L27.6748 17.0739ZM27.8548 14.5299L27.0298 13.9647L27.0275 13.968L27.8548 14.5299ZM29.1628 13.4979L28.7613 12.5821L28.7566 12.5841L29.1628 13.4979ZM33.0148 13.2939L32.8023 14.2711L33.0148 13.2939ZM34.5028 13.8459L35.4263 14.2294C35.6204 13.762 35.4347 13.2233 34.9938 12.9748L34.5028 13.8459ZM33.6508 15.8979L33.2036 16.7924C33.4517 16.9164 33.7401 16.9318 34 16.835C34.26 16.7381 34.468 16.5376 34.5743 16.2814L33.6508 15.8979ZM32.4388 15.4299L32.1773 16.3952L32.1823 16.3965L32.4388 15.4299ZM30.6628 15.3459L30.3754 14.3881H30.3754L30.6628 15.3459ZM30.3148 15.5379L29.5715 14.869C29.5585 14.8834 29.546 14.8981 29.5339 14.9132L30.3148 15.5379ZM30.4708 16.1499L30.0068 17.0358C30.018 17.0417 30.0294 17.0473 30.0408 17.0528L30.4708 16.1499ZM31.1308 16.3539L30.9291 17.3334L30.9346 17.3345L31.1308 16.3539ZM32.0428 16.5339L31.8513 17.5154L31.8557 17.5163L32.0428 16.5339ZM33.0388 16.7979L32.7156 17.7443H32.7156L33.0388 16.7979ZM33.9388 17.2419L33.3784 18.0703L33.3896 18.0776L33.9388 17.2419ZM34.6108 17.9619L33.7411 18.4555L33.7411 18.4555L34.6108 17.9619ZM34.4188 20.4819L33.5938 19.9167L33.5915 19.92L34.4188 20.4819ZM33.1228 21.5139L33.5289 22.4278L33.5394 22.423L33.1228 21.5139ZM30.9508 20.8979C30.3232 20.8979 29.7229 20.8267 29.1477 20.6864L28.6738 22.6295C29.4106 22.8092 30.1703 22.8979 30.9508 22.8979V20.8979ZM29.1477 20.6864C28.5571 20.5424 28.1196 20.3662 27.8076 20.1779L26.7739 21.89C27.3099 22.2136 27.9524 22.4535 28.6738 22.6295L29.1477 20.6864ZM28.2055 21.4381L29.1175 19.3741L27.2881 18.5658L26.3761 20.6298L28.2055 21.4381ZM27.701 19.835C28.1764 20.1107 28.6949 20.3287 29.2517 20.493L29.8178 18.5748C29.3986 18.4511 29.0291 18.2932 28.7045 18.1049L27.701 19.835ZM29.2703 20.4983C29.8433 20.6554 30.4124 20.7379 30.9748 20.7379V18.7379C30.6092 18.7379 30.2183 18.6844 29.7992 18.5695L29.2703 20.4983ZM30.9748 20.7379C31.2727 20.7379 31.5648 20.7215 31.8168 20.6685L31.4048 18.7114C31.3527 18.7223 31.2208 18.7379 30.9748 18.7379V20.7379ZM31.8533 20.6601C32.0729 20.6052 32.3732 20.5035 32.6231 20.2813L31.2944 18.7865C31.3255 18.7589 31.3526 18.7403 31.3714 18.7286C31.3903 18.717 31.4035 18.7107 31.4087 18.7084C31.4175 18.7045 31.407 18.7101 31.3682 18.7198L31.8533 20.6601ZM32.6659 20.241C32.9128 19.9941 33.0668 19.6605 33.0668 19.2819H31.0668C31.0668 19.2015 31.0826 19.1117 31.1206 19.023C31.1581 18.9355 31.208 18.8705 31.2517 18.8268L32.6659 20.241ZM33.0668 19.2819C33.0668 18.66 32.6794 18.2459 32.2788 18.0361L31.3508 19.8078C31.3335 19.7987 31.2573 19.7553 31.1845 19.6514C31.1042 19.5367 31.0668 19.4029 31.0668 19.2819H33.0668ZM32.2788 18.0361C31.9954 17.8877 31.6701 17.7916 31.3389 17.7254L30.9467 19.6865C31.1754 19.7323 31.2982 19.7802 31.3508 19.8078L32.2788 18.0361ZM31.3718 17.7325C31.0852 17.6651 30.7725 17.5984 30.4343 17.5324L30.0513 19.4954C30.369 19.5574 30.6563 19.6188 30.9137 19.6793L31.3718 17.7325ZM30.4572 17.5372C30.1654 17.4731 29.8674 17.3907 29.563 17.2892L28.9305 19.1866C29.2982 19.3092 29.6641 19.4107 30.0284 19.4907L30.4572 17.5372ZM29.5699 17.2916C29.3189 17.2059 29.0912 17.0944 28.8839 16.9582L27.7856 18.6296C28.1384 18.8615 28.5187 19.046 28.9236 19.1843L29.5699 17.2916ZM28.8951 16.9656C28.7553 16.8711 28.6393 16.7475 28.5445 16.5803L26.8051 17.5675C27.0462 17.9924 27.3702 18.3488 27.7745 18.6222L28.8951 16.9656ZM28.55 16.5902C28.4842 16.4712 28.4228 16.2725 28.4228 15.9459H26.4228C26.4228 16.5153 26.5293 17.0687 26.7995 17.5576L28.55 16.5902ZM28.4228 15.9459C28.4228 15.6232 28.5083 15.3475 28.682 15.0918L27.0275 13.968C26.6252 14.5603 26.4228 15.2287 26.4228 15.9459H28.4228ZM28.6797 15.0952C28.8515 14.8444 29.1274 14.608 29.5689 14.4117L28.7566 12.5841C28.0461 12.8999 27.45 13.3515 27.0298 13.9647L28.6797 15.0952ZM29.5642 14.4138C29.9852 14.2293 30.5627 14.1139 31.3348 14.1139V12.1139C30.3788 12.1139 29.5083 12.2546 28.7613 12.5821L29.5642 14.4138ZM31.3348 14.1139C31.8317 14.1139 32.3205 14.1664 32.8023 14.2711L33.2272 12.3168C32.605 12.1815 31.9738 12.1139 31.3348 12.1139V14.1139ZM32.8023 14.2711C33.2681 14.3724 33.6684 14.5236 34.0118 14.7171L34.9938 12.9748C34.4571 12.6723 33.8654 12.4555 33.2272 12.3168L32.8023 14.2711ZM33.5792 13.4625L32.7272 15.5145L34.5743 16.2814L35.4263 14.2294L33.5792 13.4625ZM34.098 15.0035C33.6297 14.7694 33.1619 14.5872 32.6952 14.4634L32.1823 16.3965C32.4997 16.4807 32.8398 16.6105 33.2036 16.7924L34.098 15.0035ZM32.7002 14.4647C32.2378 14.3395 31.7739 14.2739 31.3108 14.2739V16.2739C31.5836 16.2739 31.8717 16.3124 32.1774 16.3952L32.7002 14.4647ZM31.3108 14.2739C30.9943 14.2739 30.6685 14.3002 30.3754 14.3881L30.9501 16.3038C30.977 16.2957 31.0832 16.2739 31.3108 16.2739V14.2739ZM30.3754 14.3881C30.1288 14.4621 29.8161 14.5972 29.5715 14.869L31.0581 16.2069C31.0045 16.2664 30.9568 16.2956 30.9388 16.3055C30.9211 16.3153 30.9214 16.3124 30.9501 16.3038L30.3754 14.3881ZM29.5339 14.9132C29.3383 15.1578 29.2188 15.463 29.2188 15.8019H31.2188C31.2188 15.8675 31.2074 15.9374 31.1826 16.0057C31.158 16.0732 31.1253 16.1256 31.0956 16.1626L29.5339 14.9132ZM29.2188 15.8019C29.2188 16.4377 29.6309 16.8389 30.0068 17.0358L30.9348 15.2641C30.9451 15.2695 31.0186 15.3095 31.0917 15.4104C31.174 15.524 31.2188 15.6645 31.2188 15.8019H29.2188ZM30.0408 17.0528C30.3077 17.1799 30.6128 17.2683 30.9291 17.3334L31.3324 15.3745C31.1047 15.3276 30.9698 15.28 30.9007 15.2471L30.0408 17.0528ZM30.9346 17.3345C31.2164 17.3909 31.522 17.4512 31.8513 17.5154L32.2343 15.5524C31.9076 15.4887 31.6051 15.429 31.3269 15.3734L30.9346 17.3345ZM31.8557 17.5163C32.1449 17.5714 32.4315 17.6473 32.7156 17.7443L33.3619 15.8516C32.9901 15.7246 32.6126 15.6245 32.2299 15.5516L31.8557 17.5163ZM32.7156 17.7443C32.9643 17.8292 33.1839 17.9386 33.3785 18.0702L34.4991 16.4136C34.1496 16.1773 33.7692 15.9907 33.3619 15.8516L32.7156 17.7443ZM33.3896 18.0776C33.535 18.1732 33.65 18.2951 33.7411 18.4555L35.4805 17.4683C35.2355 17.0368 34.9025 16.6787 34.4879 16.4062L33.3896 18.0776ZM33.7411 18.4555C33.8022 18.5632 33.8628 18.7495 33.8628 19.0659H35.8628C35.8628 18.5023 35.7553 17.9526 35.4805 17.4683L33.7411 18.4555ZM33.8628 19.0659C33.8628 19.3713 33.7786 19.6471 33.5938 19.9167L35.2437 21.0472C35.651 20.4528 35.8628 19.7845 35.8628 19.0659H33.8628ZM33.5915 19.92C33.4279 20.161 33.1552 20.3991 32.7061 20.6049L33.5394 22.423C34.2424 22.1008 34.8337 21.6508 35.246 21.0438L33.5915 19.92ZM32.7166 20.6001C32.3076 20.7819 31.7331 20.8979 30.9508 20.8979V22.8979C31.9124 22.8979 32.786 22.7579 33.5289 22.4277L32.7166 20.6001ZM38.2975 16.4259V15.4259C37.7452 15.4259 37.2975 15.8736 37.2975 16.4259H38.2975ZM42.0415 16.4259H43.0415C43.0415 15.8736 42.5938 15.4259 42.0415 15.4259V16.4259ZM42.0415 18.4659V19.4659C42.5938 19.4659 43.0415 19.0182 43.0415 18.4659H42.0415ZM38.2975 18.4659H37.2975C37.2975 19.0182 37.7452 19.4659 38.2975 19.4659V18.4659ZM38.4895 19.5699H37.4895C37.4895 20.1222 37.9372 20.5699 38.4895 20.5699V19.5699ZM42.6895 19.5699H43.6895C43.6895 19.0176 43.2418 18.5699 42.6895 18.5699V19.5699ZM42.6895 21.7059V22.7059C43.2418 22.7059 43.6895 22.2582 43.6895 21.7059H42.6895ZM35.7055 21.7059H34.7055C34.7055 22.2582 35.1532 22.7059 35.7055 22.7059V21.7059ZM35.7055 13.3059V12.3059C35.1532 12.3059 34.7055 12.7536 34.7055 13.3059H35.7055ZM42.5335 13.3059H43.5335C43.5335 12.7536 43.0858 12.3059 42.5335 12.3059V13.3059ZM42.5335 15.4419V16.4419C43.0858 16.4419 43.5335 15.9942 43.5335 15.4419H42.5335ZM38.4895 15.4419V14.4419C37.9372 14.4419 37.4895 14.8896 37.4895 15.4419H38.4895ZM38.2975 17.4259H42.0415V15.4259H38.2975V17.4259ZM41.0415 16.4259V18.4659H43.0415V16.4259H41.0415ZM42.0415 17.4659H38.2975V19.4659H42.0415V17.4659ZM39.2975 18.4659V16.4259H37.2975V18.4659H39.2975ZM38.4895 20.5699H42.6895V18.5699H38.4895V20.5699ZM41.6895 19.5699V21.7059H43.6895V19.5699H41.6895ZM42.6895 20.7059H35.7055V22.7059H42.6895V20.7059ZM36.7055 21.7059V13.3059H34.7055V21.7059H36.7055ZM35.7055 14.3059H42.5335V12.3059H35.7055V14.3059ZM41.5335 13.3059V15.4419H43.5335V13.3059H41.5335ZM42.5335 14.4419H38.4895V16.4419H42.5335V14.4419ZM37.4895 15.4419V19.5699H39.4895V15.4419H37.4895ZM45.6037 21.7059H44.6037C44.6037 22.2582 45.0514 22.7059 45.6037 22.7059V21.7059ZM45.6037 15.5019H46.6037C46.6037 14.9496 46.156 14.5019 45.6037 14.5019V15.5019ZM43.1437 15.5019H42.1437C42.1437 16.0542 42.5914 16.5019 43.1437 16.5019V15.5019ZM43.1437 13.3059V12.3059C42.5914 12.3059 42.1437 12.7536 42.1437 13.3059H43.1437ZM50.8957 13.3059H51.8957C51.8957 12.7536 51.448 12.3059 50.8957 12.3059V13.3059ZM50.8957 15.5019V16.5019C51.448 16.5019 51.8957 16.0542 51.8957 15.5019H50.8957ZM48.4357 15.5019V14.5019C47.8834 14.5019 47.4357 14.9496 47.4357 15.5019H48.4357ZM48.4357 21.7059V22.7059C48.988 22.7059 49.4357 22.2582 49.4357 21.7059H48.4357ZM46.6037 21.7059V15.5019H44.6037V21.7059H46.6037ZM45.6037 14.5019H43.1437V16.5019H45.6037V14.5019ZM44.1437 15.5019V13.3059H42.1437V15.5019H44.1437ZM43.1437 14.3059H50.8957V12.3059H43.1437V14.3059ZM49.8957 13.3059V15.5019H51.8957V13.3059H49.8957ZM50.8957 14.5019H48.4357V16.5019H50.8957V14.5019ZM47.4357 15.5019V21.7059H49.4357V15.5019H47.4357ZM48.4357 20.7059H45.6037V22.7059H48.4357V20.7059ZM53.5725 21.7059H52.5725C52.5725 22.2582 53.0202 22.7059 53.5725 22.7059V21.7059ZM53.5725 15.5019H54.5725C54.5725 14.9496 54.1247 14.5019 53.5725 14.5019V15.5019ZM51.1125 15.5019H50.1125C50.1125 16.0542 50.5602 16.5019 51.1125 16.5019V15.5019ZM51.1125 13.3059V12.3059C50.5602 12.3059 50.1125 12.7536 50.1125 13.3059H51.1125ZM58.8645 13.3059H59.8645C59.8645 12.7536 59.4167 12.3059 58.8645 12.3059V13.3059ZM58.8645 15.5019V16.5019C59.4167 16.5019 59.8645 16.0542 59.8645 15.5019H58.8645ZM56.4045 15.5019V14.5019C55.8522 14.5019 55.4045 14.9496 55.4045 15.5019H56.4045ZM56.4045 21.7059V22.7059C56.9567 22.7059 57.4045 22.2582 57.4045 21.7059H56.4045ZM54.5725 21.7059V15.5019H52.5725V21.7059H54.5725ZM53.5725 14.5019H51.1125V16.5019H53.5725V14.5019ZM52.1125 15.5019V13.3059H50.1125V15.5019H52.1125ZM51.1125 14.3059H58.8645V12.3059H51.1125V14.3059ZM57.8645 13.3059V15.5019H59.8645V13.3059H57.8645ZM58.8645 14.5019H56.4045V16.5019H58.8645V14.5019ZM55.4045 15.5019V21.7059H57.4045V15.5019H55.4045ZM56.4045 20.7059H53.5725V22.7059H56.4045V20.7059ZM59.6 21.7059H58.6C58.6 22.2582 59.0477 22.7059 59.6 22.7059V21.7059ZM59.6 13.3059V12.3059C59.0477 12.3059 58.6 12.7536 58.6 13.3059H59.6ZM62.432 13.3059H63.432C63.432 12.7536 62.9843 12.3059 62.432 12.3059V13.3059ZM62.432 21.7059V22.7059C62.9843 22.7059 63.432 22.2582 63.432 21.7059H62.432ZM60.6 21.7059V13.3059H58.6V21.7059H60.6ZM59.6 14.3059H62.432V12.3059H59.6V14.3059ZM61.432 13.3059V21.7059H63.432V13.3059H61.432ZM62.432 20.7059H59.6V22.7059H62.432V20.7059ZM63.7953 21.7059H62.7953C62.7953 22.2582 63.243 22.7059 63.7953 22.7059V21.7059ZM63.7953 13.3059V12.3059C63.243 12.3059 62.7953 12.7536 62.7953 13.3059H63.7953ZM66.1233 13.3059L66.8907 12.6647C66.7007 12.4373 66.4196 12.3059 66.1233 12.3059V13.3059ZM70.3953 18.4179V19.4179C70.7836 19.4179 71.1368 19.1932 71.3012 18.8415C71.4657 18.4897 71.4116 18.0746 71.1627 17.7767L70.3953 18.4179ZM69.3153 18.4179H68.3153C68.3153 18.9702 68.763 19.4179 69.3153 19.4179V18.4179ZM69.3153 13.3059V12.3059C68.763 12.3059 68.3153 12.7536 68.3153 13.3059H69.3153ZM72.0753 13.3059H73.0753C73.0753 12.7536 72.6276 12.3059 72.0753 12.3059V13.3059ZM72.0753 21.7059V22.7059C72.6276 22.7059 73.0753 22.2582 73.0753 21.7059H72.0753ZM69.7473 21.7059L68.98 22.3472C69.17 22.5745 69.451 22.7059 69.7473 22.7059V21.7059ZM65.4753 16.5939V15.5939C65.0871 15.5939 64.7339 15.8187 64.5694 16.1704C64.405 16.5221 64.459 16.9372 64.708 17.2352L65.4753 16.5939ZM66.5553 16.5939H67.5553C67.5553 16.0416 67.1076 15.5939 66.5553 15.5939V16.5939ZM66.5553 21.7059V22.7059C67.1076 22.7059 67.5553 22.2582 67.5553 21.7059H66.5553ZM64.7953 21.7059V13.3059H62.7953V21.7059H64.7953ZM63.7953 14.3059H66.1233V12.3059H63.7953V14.3059ZM65.356 13.9472L69.628 19.0592L71.1627 17.7767L66.8907 12.6647L65.356 13.9472ZM70.3953 17.4179H69.3153V19.4179H70.3953V17.4179ZM70.3153 18.4179V13.3059H68.3153V18.4179H70.3153ZM69.3153 14.3059H72.0753V12.3059H69.3153V14.3059ZM71.0753 13.3059V21.7059H73.0753V13.3059H71.0753ZM72.0753 20.7059H69.7473V22.7059H72.0753V20.7059ZM70.5147 21.0647L66.2427 15.9527L64.708 17.2352L68.98 22.3472L70.5147 21.0647ZM65.4753 17.5939H66.5553V15.5939H65.4753V17.5939ZM65.5553 16.5939V21.7059H67.5553V16.5939H65.5553ZM66.5553 20.7059H63.7953V22.7059H66.5553V20.7059ZM75.9119 21.5859L75.5564 22.5206C75.5617 22.5226 75.5669 22.5246 75.5722 22.5265L75.9119 21.5859ZM74.4239 20.6739L73.738 21.4018L73.745 21.4082L74.4239 20.6739ZM73.4519 19.2819L72.5341 19.6792L73.4519 19.2819ZM73.4519 15.7299L72.5341 15.3327L73.4519 15.7299ZM74.4359 14.3379L73.757 13.6037V13.6037L74.4359 14.3379ZM75.9359 13.4379L76.2755 14.3785L76.2828 14.3758L75.9359 13.4379ZM80.0759 13.5339L79.6792 14.4519L79.6833 14.4537L80.0759 13.5339ZM81.6959 14.7339L82.3568 15.4843C82.7602 15.1291 82.8105 14.5186 82.4709 14.102L81.6959 14.7339ZM79.8839 16.3299L79.1288 16.9856C79.3035 17.1868 79.5513 17.3099 79.8171 17.3277C80.0829 17.3455 80.3449 17.2565 80.5448 17.0803L79.8839 16.3299ZM79.0199 15.6459L78.5541 16.5309C78.5633 16.5357 78.5726 16.5404 78.5819 16.5449L79.0199 15.6459ZM77.1479 15.5499L76.7967 14.6136L76.7869 14.6174L77.1479 15.5499ZM76.5119 15.9699L77.2345 16.6612V16.6612L76.5119 15.9699ZM76.1039 16.6299L77.0402 16.9811V16.9811L76.1039 16.6299ZM76.1039 18.3699L75.164 18.7117L75.1675 18.7211L76.1039 18.3699ZM76.5119 19.0299L77.2345 18.3387L76.5119 19.0299ZM77.1359 19.4619L76.7383 20.3795C76.7504 20.3847 76.7626 20.3897 76.7749 20.3945L77.1359 19.4619ZM78.8999 19.4499L79.2235 20.3961C79.2309 20.3936 79.2383 20.391 79.2456 20.3883L78.8999 19.4499ZM79.8719 18.8859L80.6471 18.2543C80.3054 17.8349 79.6922 17.7633 79.263 18.0926L79.8719 18.8859ZM81.4559 20.8299L82.0135 21.66C82.247 21.5032 82.4036 21.2553 82.445 20.9771C82.4864 20.699 82.4087 20.4163 82.2311 20.1983L81.4559 20.8299ZM79.7039 21.6219L79.9739 22.5848L79.7039 21.6219ZM78.9959 20.4699H77.9959C77.9959 20.9663 78.3599 21.3875 78.8511 21.4594L78.9959 20.4699ZM78.9959 17.2779V16.2779C78.4436 16.2779 77.9959 16.7256 77.9959 17.2779H78.9959ZM81.4559 17.2779H82.4559C82.4559 16.7256 82.0081 16.2779 81.4559 16.2779V17.2779ZM81.4559 20.8299L81.3111 21.8194C81.5985 21.8615 81.89 21.7765 82.1098 21.5865C82.3295 21.3966 82.4559 21.1204 82.4559 20.8299H81.4559ZM77.7959 20.8979C77.2189 20.8979 76.7072 20.8099 76.2515 20.6454L75.5722 22.5265C76.2685 22.7779 77.0128 22.8979 77.7959 22.8979V20.8979ZM76.2673 20.6512C75.8126 20.4783 75.4279 20.2403 75.1027 19.9397L73.745 21.4082C74.2679 21.8916 74.8751 22.2616 75.5564 22.5206L76.2673 20.6512ZM75.1097 19.9461C74.7948 19.6495 74.5488 19.2987 74.3696 18.8847L72.5341 19.6792C72.819 20.3372 73.2209 20.9144 73.7381 21.4017L75.1097 19.9461ZM74.3696 18.8847C74.1975 18.4872 74.1039 18.0323 74.1039 17.5059H72.1039C72.1039 18.2756 72.2422 19.0047 72.5341 19.6792L74.3696 18.8847ZM74.1039 17.5059C74.1039 16.9796 74.1975 16.5247 74.3696 16.1272L72.5341 15.3327C72.2422 16.0072 72.1039 16.7363 72.1039 17.5059H74.1039ZM74.3696 16.1272C74.5469 15.7174 74.7941 15.3686 75.1147 15.0722L73.757 13.6037C73.2296 14.0913 72.8208 14.6705 72.5341 15.3327L74.3696 16.1272ZM75.1147 15.0722C75.4347 14.7764 75.8175 14.5439 76.2755 14.3785L75.5962 12.4974C74.9022 12.748 74.285 13.1155 73.757 13.6037L75.1147 15.0722ZM76.2828 14.3758C76.7434 14.2055 77.2644 14.1139 77.8559 14.1139V12.1139C77.0553 12.1139 76.2963 12.2384 75.589 12.5L76.2828 14.3758ZM77.8559 14.1139C78.5755 14.1139 79.1768 14.2348 79.6792 14.4519L80.4725 12.616C79.679 12.2731 78.8003 12.1139 77.8559 12.1139V14.1139ZM79.6833 14.4537C80.2001 14.6742 80.6056 14.9792 80.9208 15.3659L82.4709 14.102C81.9381 13.4486 81.2637 12.9536 80.4684 12.6142L79.6833 14.4537ZM81.0349 13.9835L79.2229 15.5795L80.5448 17.0803L82.3568 15.4843L81.0349 13.9835ZM80.6389 15.6742C80.3006 15.2847 79.9086 14.9666 79.4578 14.7469L78.5819 16.5449C78.7551 16.6293 78.9391 16.7671 79.1288 16.9856L80.6389 15.6742ZM79.4856 14.761C79.0248 14.5185 78.5225 14.4059 77.9999 14.4059V16.4059C78.2292 16.4059 78.407 16.4534 78.5541 16.5309L79.4856 14.761ZM77.9999 14.4059C77.5847 14.4059 77.1797 14.47 76.7967 14.6136L77.499 16.4863C77.628 16.4379 77.791 16.4059 77.9999 16.4059V14.4059ZM76.7869 14.6174C76.4083 14.7639 76.0711 14.984 75.7892 15.2787L77.2345 16.6612C77.3046 16.5879 77.3914 16.528 77.5089 16.4825L76.7869 14.6174ZM75.7892 15.2787C75.513 15.5675 75.3075 15.9056 75.1675 16.2788L77.0402 16.9811C77.0922 16.8422 77.1587 16.7404 77.2345 16.6612L75.7892 15.2787ZM75.1675 16.2788C75.0219 16.667 74.9599 17.0813 74.9599 17.5059H76.9599C76.9599 17.2745 76.9938 17.1048 77.0402 16.9811L75.1675 16.2788ZM74.9599 17.5059C74.9599 17.9217 75.0241 18.3267 75.1641 18.7117L77.0437 18.0282C76.9916 17.8852 76.9599 17.7142 76.9599 17.5059H74.9599ZM75.1675 18.7211C75.3075 19.0942 75.513 19.4324 75.7892 19.7212L77.2345 18.3387C77.1587 18.2595 77.0922 18.1576 77.0402 18.0188L75.1675 18.7211ZM75.7892 19.7212C76.0599 20.0042 76.3793 20.2239 76.7383 20.3795L77.5335 18.5444C77.4124 18.4919 77.3158 18.4237 77.2345 18.3387L75.7892 19.7212ZM76.7749 20.3945C77.1533 20.541 77.5539 20.6059 77.9639 20.6059V18.6059C77.7658 18.6059 77.6145 18.5749 77.4969 18.5294L76.7749 20.3945ZM77.9639 20.6059C78.3944 20.6059 78.8158 20.5356 79.2235 20.3961L78.5762 18.5038C78.3759 18.5723 78.1733 18.6059 77.9639 18.6059V20.6059ZM79.2456 20.3883C79.6699 20.2319 80.082 19.9852 80.4807 19.6792L79.263 18.0926C78.9737 18.3147 78.7378 18.4439 78.5542 18.5116L79.2456 20.3883ZM79.0966 19.5176L80.6806 21.4616L82.2311 20.1983L80.6471 18.2543L79.0966 19.5176ZM80.8982 19.9999C80.4831 20.2788 79.9981 20.5008 79.4338 20.6591L79.9739 22.5848C80.7216 22.3751 81.4046 22.0691 82.0135 21.66L80.8982 19.9999ZM79.4338 20.6591C78.8565 20.821 78.3115 20.8979 77.7959 20.8979V22.8979C78.5122 22.8979 79.2392 22.7908 79.9739 22.5848L79.4338 20.6591ZM79.9959 20.4699V17.2779H77.9959V20.4699H79.9959ZM78.9959 18.2779H81.4559V16.2779H78.9959V18.2779ZM80.4559 17.2779V20.8299H82.4559V17.2779H80.4559ZM81.6007 19.8405L79.1407 19.4805L78.8511 21.4594L81.3111 21.8194L81.6007 19.8405ZM83.7545 21.6579L83.9915 20.6864L83.7545 21.6579ZM82.1345 21.0339L81.2198 20.6298C81.0164 21.0901 81.1868 21.6299 81.6176 21.89L82.1345 21.0339ZM83.0465 18.9699L83.5482 18.1049C83.3024 17.9623 83.0074 17.9311 82.7371 18.019C82.4668 18.107 82.2467 18.3058 82.1318 18.5658L83.0465 18.9699ZM84.3785 19.5339L84.0955 20.493C84.1017 20.4949 84.1079 20.4966 84.1141 20.4983L84.3785 19.5339ZM86.4545 19.6899L86.6605 20.6685C86.6728 20.6659 86.6849 20.6631 86.6971 20.6601L86.4545 19.6899ZM86.8025 19.5339L87.4669 20.2813C87.4815 20.2683 87.4958 20.2549 87.5096 20.241L86.8025 19.5339ZM86.6585 18.9219L86.1945 19.8078L86.6585 18.9219ZM85.9865 18.7059L85.7575 19.6793C85.7684 19.6819 85.7794 19.6843 85.7904 19.6865L85.9865 18.7059ZM85.0865 18.5139L84.8721 19.4907C84.8797 19.4923 84.8874 19.4939 84.895 19.4954L85.0865 18.5139ZM84.0905 18.2379L83.7674 19.1843L83.7743 19.1866L84.0905 18.2379ZM83.1785 17.7939L82.6182 18.6223L82.6293 18.6296L83.1785 17.7939ZM82.5185 17.0739L81.6432 17.5576L81.6488 17.5675L82.5185 17.0739ZM82.6985 14.5299L81.8736 13.9647L81.8713 13.968L82.6985 14.5299ZM84.0065 13.4979L83.605 12.5821L83.6004 12.5841L84.0065 13.4979ZM87.8585 13.2939L87.6461 14.2711L87.8585 13.2939ZM89.3465 13.8459L90.2701 14.2294C90.4641 13.762 90.2784 13.2233 89.8375 12.9748L89.3465 13.8459ZM88.4945 15.8979L88.0473 16.7924C88.2954 16.9164 88.5839 16.9318 88.8438 16.835C89.1037 16.7381 89.3117 16.5376 89.4181 16.2814L88.4945 15.8979ZM87.2825 15.4299L87.0211 16.3952L87.0261 16.3965L87.2825 15.4299ZM85.5065 15.3459L85.2192 14.3881L85.5065 15.3459ZM85.1585 15.5379L84.4152 14.869C84.4023 14.8834 84.3897 14.8981 84.3776 14.9132L85.1585 15.5379ZM85.3145 16.1499L84.8505 17.0358C84.8618 17.0417 84.8731 17.0473 84.8846 17.0528L85.3145 16.1499ZM85.9745 16.3539L85.7729 17.3334L85.7784 17.3345L85.9745 16.3539ZM86.8865 16.5339L86.695 17.5154L86.6994 17.5163L86.8865 16.5339ZM87.8825 16.7979L87.5594 17.7443L87.8825 16.7979ZM88.7825 17.2419L88.2222 18.0703L88.2333 18.0776L88.7825 17.2419ZM89.4545 17.9619L88.5848 18.4555V18.4555L89.4545 17.9619ZM89.2625 20.4819L88.4376 19.9167L88.4353 19.92L89.2625 20.4819ZM87.9665 21.5139L88.3727 22.4278L88.3832 22.423L87.9665 21.5139ZM85.7945 20.8979C85.167 20.8979 84.5667 20.8267 83.9915 20.6864L83.5176 22.6295C84.2544 22.8092 85.0141 22.8979 85.7945 22.8979V20.8979ZM83.9915 20.6864C83.4009 20.5424 82.9634 20.3662 82.6514 20.1779L81.6176 21.89C82.1536 22.2136 82.7962 22.4535 83.5176 22.6295L83.9915 20.6864ZM83.0492 21.4381L83.9612 19.3741L82.1318 18.5658L81.2198 20.6298L83.0492 21.4381ZM82.5448 19.835C83.0202 20.1107 83.5387 20.3287 84.0955 20.493L84.6615 18.5748C84.2424 18.4511 83.8728 18.2932 83.5482 18.1049L82.5448 19.835ZM84.1141 20.4983C84.687 20.6554 85.2561 20.7379 85.8185 20.7379V18.7379C85.4529 18.7379 85.062 18.6844 84.6429 18.5695L84.1141 20.4983ZM85.8185 20.7379C86.1165 20.7379 86.4086 20.7215 86.6605 20.6685L86.2485 18.7114C86.1964 18.7223 86.0646 18.7379 85.8185 18.7379V20.7379ZM86.6971 20.6601C86.9166 20.6052 87.2169 20.5035 87.4669 20.2813L86.1382 18.7865C86.1692 18.7589 86.1963 18.7403 86.2152 18.7286C86.234 18.717 86.2473 18.7107 86.2525 18.7084C86.2612 18.7045 86.2507 18.7101 86.212 18.7198L86.6971 20.6601ZM87.5096 20.241C87.7565 19.9941 87.9105 19.6605 87.9105 19.2819H85.9105C85.9105 19.2015 85.9263 19.1117 85.9644 19.023C86.0019 18.9355 86.0517 18.8705 86.0954 18.8268L87.5096 20.241ZM87.9105 19.2819C87.9105 18.66 87.5231 18.2459 87.1225 18.0361L86.1945 19.8078C86.1772 19.7987 86.101 19.7553 86.0283 19.6514C85.948 19.5367 85.9105 19.4029 85.9105 19.2819H87.9105ZM87.1225 18.0361C86.8391 17.8877 86.5139 17.7916 86.1826 17.7254L85.7904 19.6865C86.0191 19.7323 86.1419 19.7802 86.1945 19.8078L87.1225 18.0361ZM86.2156 17.7325C85.929 17.6651 85.6162 17.5984 85.278 17.5324L84.895 19.4954C85.2128 19.5574 85.5001 19.6188 85.7575 19.6793L86.2156 17.7325ZM85.3009 17.5372C85.0091 17.4731 84.7111 17.3907 84.4067 17.2892L83.7743 19.1866C84.1419 19.3092 84.5079 19.4107 84.8721 19.4907L85.3009 17.5372ZM84.4137 17.2916C84.1626 17.2059 83.9349 17.0944 83.7277 16.9582L82.6293 18.6296C82.9821 18.8615 83.3624 19.046 83.7674 19.1843L84.4137 17.2916ZM83.7388 16.9656C83.599 16.8711 83.4831 16.7475 83.3882 16.5803L81.6488 17.5675C81.89 17.9924 82.214 18.3488 82.6182 18.6222L83.7388 16.9656ZM83.3938 16.5902C83.3279 16.4712 83.2665 16.2725 83.2665 15.9459H81.2665C81.2665 16.5153 81.3731 17.0687 81.6433 17.5576L83.3938 16.5902ZM83.2665 15.9459C83.2665 15.6232 83.3521 15.3475 83.5257 15.0918L81.8713 13.968C81.469 14.5603 81.2665 15.2287 81.2665 15.9459H83.2665ZM83.5234 15.0952C83.6953 14.8444 83.9712 14.608 84.4127 14.4117L83.6004 12.5841C82.8899 12.8999 82.2938 13.3515 81.8736 13.9647L83.5234 15.0952ZM84.408 14.4138C84.829 14.2293 85.4065 14.1139 86.1785 14.1139V12.1139C85.2226 12.1139 84.352 12.2546 83.605 12.5821L84.408 14.4138ZM86.1785 14.1139C86.6755 14.1139 87.1643 14.1664 87.6461 14.2711L88.0709 12.3168C87.4488 12.1815 86.8175 12.1139 86.1785 12.1139V14.1139ZM87.6461 14.2711C88.1119 14.3724 88.5122 14.5236 88.8555 14.7171L89.8375 12.9748C89.3009 12.6723 88.7092 12.4555 88.0709 12.3168L87.6461 14.2711ZM88.423 13.4625L87.571 15.5145L89.4181 16.2814L90.2701 14.2294L88.423 13.4625ZM88.9417 15.0035C88.4735 14.7694 88.0056 14.5872 87.5389 14.4634L87.0261 16.3965C87.3434 16.4807 87.6836 16.6105 88.0473 16.7924L88.9417 15.0035ZM87.5439 14.4647C87.0816 14.3395 86.6176 14.2739 86.1545 14.2739V16.2739C86.4274 16.2739 86.7155 16.3124 87.0211 16.3952L87.5439 14.4647ZM86.1545 14.2739C85.8381 14.2739 85.5122 14.3002 85.2192 14.3881L85.7939 16.3038C85.8208 16.2957 85.9269 16.2739 86.1545 16.2739V14.2739ZM85.2192 14.3881C84.9725 14.4621 84.6599 14.5972 84.4152 14.869L85.9018 16.2069C85.8482 16.2664 85.8005 16.2956 85.7826 16.3055C85.7648 16.3153 85.7651 16.3124 85.7939 16.3038L85.2192 14.3881ZM84.3776 14.9132C84.182 15.1578 84.0625 15.463 84.0625 15.8019H86.0625C86.0625 15.8675 86.0511 15.9374 86.0263 16.0057C86.0018 16.0732 85.969 16.1256 85.9394 16.1626L84.3776 14.9132ZM84.0625 15.8019C84.0625 16.4377 84.4747 16.8389 84.8505 17.0358L85.7785 15.2641C85.7889 15.2695 85.8623 15.3095 85.9355 15.4104C86.0177 15.524 86.0625 15.6645 86.0625 15.8019H84.0625ZM84.8846 17.0528C85.1515 17.1799 85.4566 17.2683 85.7729 17.3334L86.1762 15.3745C85.9484 15.3276 85.8135 15.28 85.7444 15.2471L84.8846 17.0528ZM85.7784 17.3345C86.0602 17.3909 86.3657 17.4512 86.695 17.5154L87.078 15.5524C86.7513 15.4887 86.4489 15.429 86.1706 15.3734L85.7784 17.3345ZM86.6994 17.5163C86.9887 17.5714 87.2752 17.6473 87.5594 17.7443L88.2057 15.8516C87.8338 15.7246 87.4564 15.6245 87.0736 15.5516L86.6994 17.5163ZM87.5594 17.7443C87.8081 17.8292 88.0276 17.9386 88.2222 18.0702L89.3428 16.4136C88.9934 16.1773 88.6129 15.9907 88.2057 15.8516L87.5594 17.7443ZM88.2333 18.0776C88.3787 18.1732 88.4938 18.2951 88.5848 18.4555L90.3242 17.4683C90.0793 17.0368 89.7463 16.6787 89.3317 16.4062L88.2333 18.0776ZM88.5848 18.4555C88.6459 18.5632 88.7065 18.7495 88.7065 19.0659H90.7065C90.7065 18.5023 90.5991 17.9526 90.3242 17.4683L88.5848 18.4555ZM88.7065 19.0659C88.7065 19.3713 88.6223 19.6471 88.4376 19.9167L90.0874 21.0472C90.4947 20.4528 90.7065 19.7845 90.7065 19.0659H88.7065ZM88.4353 19.92C88.2716 20.161 87.9989 20.3991 87.5499 20.6049L88.3832 22.423C89.0861 22.1008 89.6774 21.6508 90.0897 21.0438L88.4353 19.92ZM87.5604 20.6001C87.1513 20.7819 86.5768 20.8979 85.7945 20.8979V22.8979C86.7562 22.8979 87.6297 22.7579 88.3727 22.4277L87.5604 20.6001Z" fill="#0B1E22" mask="url(#path-3-outside-1_1_96)"/>
</g>
</g>
<defs>
<filter id="filter0_d_1_96" x="0" y="0" width="116" height="37" filterUnits="userSpaceOnUse" color-interpolation-filters="sRGB">
<feFlood flood-opacity="0" result="BackgroundImageFix"/>
<feColorMatrix in="SourceAlpha" type="matrix" values="0 0 0 0 0 0 0 0 0 0 0 0 0 0 0 0 0 0 127 0" result="hardAlpha"/>
<feOffset dy="4"/>
<feComposite in2="hardAlpha" operator="out"/>
<feColorMatrix type="matrix" values="0 0 0 0 0.639216 0 0 0 0 0.596078 0 0 0 0 0.121569 0 0 0 1 0"/>
<feBlend mode="normal" in2="BackgroundImageFix" result="effect1_dropShadow_1_96"/>
<feBlend mode="normal" in="SourceGraphic" in2="effect1_dropShadow_1_96" result="shape"/>
</filter>
<filter id="filter1_d_1_96" x="27.2908" y="13.1139" width="62.4157" height="9.78406" filterUnits="userSpaceOnUse" color-interpolation-filters="sRGB">
<feFlood flood-opacity="0" result="BackgroundImageFix"/>
<feColorMatrix in="SourceAlpha" type="matrix" values="0 0 0 0 0 0 0 0 0 0 0 0 0 0 0 0 0 0 127 0" result="hardAlpha"/>
<feOffset dy="1"/>
<feComposite in2="hardAlpha" operator="out"/>
<feColorMatrix type="matrix" values="0 0 0 0 0.0431373 0 0 0 0 0.117647 0 0 0 0 0.133333 0 0 0 1 0"/>
<feBlend mode="normal" in2="BackgroundImageFix" result="effect1_dropShadow_1_96"/>
<feBlend mode="normal" in="SourceGraphic" in2="effect1_dropShadow_1_96" result="shape"/>
</filter>
<linearGradient id="paint0_linear_1_96" x1="58" y1="0" x2="58" y2="33" gradientUnits="userSpaceOnUse">
<stop stop-color="#F9F45E"/>
<stop offset="1" stop-color="#D4CE28"/>
</linearGradient>
</defs>
</svg>
