<svg width="116" height="37" viewBox="0 0 116 37" fill="none" xmlns="http://www.w3.org/2000/svg">
<g id="Button Text (Green)">
<g id="Rectangle 8" filter="url(#filter0_d_1_30)">
<rect width="116" height="33" rx="16.5" fill="url(#paint0_linear_1_30)"/>
<rect x="1" y="1" width="114" height="31" rx="15.5" stroke="#C4FACD" stroke-width="2"/>
</g>
<g id="PLAY" filter="url(#filter1_d_1_30)">
<mask id="path-3-outside-1_1_30" maskUnits="userSpaceOnUse" x="40" y="10.7353" width="37" height="11" fill="black">
<rect fill="white" x="40" y="10.7353" width="37" height="11"/>
<path d="M41.6977 20.7353V12.3353H45.7417C46.5257 12.3353 47.2017 12.4633 47.7697 12.7193C48.3457 12.9753 48.7897 13.3433 49.1017 13.8233C49.4137 14.2953 49.5697 14.8553 49.5697 15.5033C49.5697 16.1513 49.4137 16.7113 49.1017 17.1833C48.7897 17.6553 48.3457 18.0233 47.7697 18.2873C47.2017 18.5433 46.5257 18.6713 45.7417 18.6713H43.2697L44.5297 17.4593V20.7353H41.6977ZM44.5297 17.7713L43.2697 16.4873H45.5617C45.9537 16.4873 46.2417 16.3993 46.4257 16.2233C46.6177 16.0473 46.7137 15.8073 46.7137 15.5033C46.7137 15.1993 46.6177 14.9593 46.4257 14.7833C46.2417 14.6073 45.9537 14.5193 45.5617 14.5193H43.2697L44.5297 13.2353V17.7713ZM50.4985 20.7353V12.3353H53.3305V18.5393H57.1225V20.7353H50.4985ZM57.1099 20.7353L60.7819 12.3353H63.5659L67.2379 20.7353H64.3099L61.5979 13.6793H62.7019L59.9899 20.7353H57.1099ZM59.2939 19.2713L60.0139 17.2313H63.8779L64.5979 19.2713H59.2939ZM69.3108 20.7353V17.0513L69.9588 18.7433L66.1428 12.3353H69.1308L71.7108 16.7153H69.9708L72.5748 12.3353H75.3108L71.5188 18.7433L72.1428 17.0513V20.7353H69.3108Z"/>
</mask>
<path d="M41.6977 20.7353V12.3353H45.7417C46.5257 12.3353 47.2017 12.4633 47.7697 12.7193C48.3457 12.9753 48.7897 13.3433 49.1017 13.8233C49.4137 14.2953 49.5697 14.8553 49.5697 15.5033C49.5697 16.1513 49.4137 16.7113 49.1017 17.1833C48.7897 17.6553 48.3457 18.0233 47.7697 18.2873C47.2017 18.5433 46.5257 18.6713 45.7417 18.6713H43.2697L44.5297 17.4593V20.7353H41.6977ZM44.5297 17.7713L43.2697 16.4873H45.5617C45.9537 16.4873 46.2417 16.3993 46.4257 16.2233C46.6177 16.0473 46.7137 15.8073 46.7137 15.5033C46.7137 15.1993 46.6177 14.9593 46.4257 14.7833C46.2417 14.6073 45.9537 14.5193 45.5617 14.5193H43.2697L44.5297 13.2353V17.7713ZM50.4985 20.7353V12.3353H53.3305V18.5393H57.1225V20.7353H50.4985ZM57.1099 20.7353L60.7819 12.3353H63.5659L67.2379 20.7353H64.3099L61.5979 13.6793H62.7019L59.9899 20.7353H57.1099ZM59.2939 19.2713L60.0139 17.2313H63.8779L64.5979 19.2713H59.2939ZM69.3108 20.7353V17.0513L69.9588 18.7433L66.1428 12.3353H69.1308L71.7108 16.7153H69.9708L72.5748 12.3353H75.3108L71.5188 18.7433L72.1428 17.0513V20.7353H69.3108Z" fill="white"/>
<path d="M41.6977 20.7353H40.6977C40.6977 21.2876 41.1454 21.7353 41.6977 21.7353L41.6977 20.7353ZM41.6977 12.3353V11.3353C41.1454 11.3353 40.6977 11.783 40.6977 12.3353H41.6977ZM47.7697 12.7193L47.3588 13.631L47.3635 13.6331L47.7697 12.7193ZM49.1017 13.8233L48.2632 14.3683L48.2675 14.3747L49.1017 13.8233ZM49.1017 17.1833L48.2675 16.6319H48.2675L49.1017 17.1833ZM47.7697 18.2873L48.1806 19.199L48.1863 19.1964L47.7697 18.2873ZM43.2697 18.6713L42.5764 17.9506C42.2824 18.2334 42.1897 18.6665 42.3421 19.045C42.4946 19.4234 42.8617 19.6713 43.2697 19.6713V18.6713ZM44.5297 17.4593H45.5297C45.5297 17.0584 45.2902 16.6962 44.9213 16.5392C44.5524 16.3822 44.1254 16.4606 43.8364 16.7386L44.5297 17.4593ZM44.5297 20.7353V21.7353C45.082 21.7353 45.5297 21.2876 45.5297 20.7353H44.5297ZM44.5297 17.7713L43.8159 18.4717C44.1004 18.7616 44.532 18.8506 44.908 18.697C45.284 18.5433 45.5297 18.1775 45.5297 17.7713H44.5297ZM43.2697 16.4873V15.4873C42.8669 15.4873 42.5035 15.7289 42.3476 16.1003C42.1917 16.4716 42.2738 16.9002 42.5559 17.1877L43.2697 16.4873ZM46.4257 16.2233L45.7499 15.4861C45.7447 15.4909 45.7396 15.4958 45.7344 15.5006L46.4257 16.2233ZM46.4257 14.7833L45.7344 15.5059C45.7396 15.5108 45.7447 15.5157 45.7499 15.5204L46.4257 14.7833ZM43.2697 14.5193L42.5559 13.8189C42.2738 14.1063 42.1917 14.535 42.3476 14.9063C42.5035 15.2777 42.8669 15.5193 43.2697 15.5193V14.5193ZM44.5297 13.2353H45.5297C45.5297 12.8291 45.284 12.4633 44.908 12.3096C44.532 12.1559 44.1004 12.245 43.8159 12.5349L44.5297 13.2353ZM42.6977 20.7353V12.3353H40.6977V20.7353H42.6977ZM41.6977 13.3353H45.7417V11.3353H41.6977V13.3353ZM45.7417 13.3353C46.4194 13.3353 46.9488 13.4462 47.3588 13.631L48.1806 11.8076C47.4546 11.4804 46.6319 11.3353 45.7417 11.3353V13.3353ZM47.3635 13.6331C47.7813 13.8188 48.0672 14.0667 48.2632 14.3683L49.9401 13.2783C49.5122 12.6199 48.91 12.1318 48.1758 11.8055L47.3635 13.6331ZM48.2675 14.3747C48.4562 14.6603 48.5697 15.0221 48.5697 15.5033H50.5697C50.5697 14.6885 50.3711 13.9303 49.9359 13.2719L48.2675 14.3747ZM48.5697 15.5033C48.5697 15.9845 48.4562 16.3463 48.2675 16.6319L49.9359 17.7347C50.3711 17.0763 50.5697 16.3181 50.5697 15.5033H48.5697ZM48.2675 16.6319C48.0705 16.9298 47.7801 17.1825 47.353 17.3782L48.1863 19.1964C48.9112 18.8641 49.5088 18.3808 49.9359 17.7347L48.2675 16.6319ZM47.3588 17.3756C46.9488 17.5604 46.4194 17.6713 45.7417 17.6713V19.6713C46.6319 19.6713 47.4546 19.5262 48.1806 19.199L47.3588 17.3756ZM45.7417 17.6713H43.2697V19.6713H45.7417V17.6713ZM43.9629 19.392L45.2229 18.18L43.8364 16.7386L42.5764 17.9506L43.9629 19.392ZM43.5297 17.4593V20.7353H45.5297V17.4593H43.5297ZM44.5297 19.7353H41.6977V21.7353H44.5297V19.7353ZM45.2434 17.0709L43.9834 15.7869L42.5559 17.1877L43.8159 18.4717L45.2434 17.0709ZM43.2697 17.4873H45.5617V15.4873H43.2697V17.4873ZM45.5617 17.4873C46.0762 17.4873 46.668 17.3753 47.1169 16.9459L45.7344 15.5006C45.7742 15.4626 45.8012 15.4583 45.7795 15.4649C45.7537 15.4728 45.6868 15.4873 45.5617 15.4873V17.4873ZM47.1014 16.9604C47.535 16.5629 47.7137 16.0363 47.7137 15.5033H45.7137C45.7137 15.5501 45.7064 15.5569 45.7132 15.5399C45.7165 15.5317 45.7218 15.5212 45.7295 15.5101C45.7371 15.499 45.7446 15.491 45.7499 15.4861L47.1014 16.9604ZM47.7137 15.5033C47.7137 14.9703 47.535 14.4436 47.1014 14.0461L45.7499 15.5204C45.7446 15.5156 45.7371 15.5076 45.7295 15.4965C45.7218 15.4854 45.7165 15.4749 45.7132 15.4667C45.7064 15.4497 45.7137 15.4565 45.7137 15.5033H47.7137ZM47.1169 14.0606C46.668 13.6312 46.0762 13.5193 45.5617 13.5193V15.5193C45.6868 15.5193 45.7537 15.5338 45.7795 15.5416C45.8012 15.5483 45.7742 15.544 45.7344 15.5059L47.1169 14.0606ZM45.5617 13.5193H43.2697V15.5193H45.5617V13.5193ZM43.9834 15.2197L45.2434 13.9357L43.8159 12.5349L42.5559 13.8189L43.9834 15.2197ZM43.5297 13.2353V17.7713H45.5297V13.2353H43.5297ZM50.4985 20.7353H49.4985C49.4985 21.2876 49.9462 21.7353 50.4985 21.7353V20.7353ZM50.4985 12.3353V11.3353C49.9462 11.3353 49.4985 11.783 49.4985 12.3353H50.4985ZM53.3305 12.3353H54.3305C54.3305 11.783 53.8827 11.3353 53.3305 11.3353V12.3353ZM53.3305 18.5393H52.3305C52.3305 19.0916 52.7782 19.5393 53.3305 19.5393V18.5393ZM57.1225 18.5393H58.1225C58.1225 17.987 57.6747 17.5393 57.1225 17.5393V18.5393ZM57.1225 20.7353V21.7353C57.6747 21.7353 58.1225 21.2876 58.1225 20.7353H57.1225ZM51.4985 20.7353V12.3353H49.4985V20.7353H51.4985ZM50.4985 13.3353H53.3305V11.3353H50.4985V13.3353ZM52.3305 12.3353V18.5393H54.3305V12.3353H52.3305ZM53.3305 19.5393H57.1225V17.5393H53.3305V19.5393ZM56.1225 18.5393V20.7353H58.1225V18.5393H56.1225ZM57.1225 19.7353H50.4985V21.7353H57.1225V19.7353ZM57.1099 20.7353L56.1936 20.3347C56.0585 20.6439 56.0883 21.0004 56.2731 21.2828C56.4578 21.5651 56.7725 21.7353 57.1099 21.7353V20.7353ZM60.7819 12.3353V11.3353C60.3845 11.3353 60.0248 11.5706 59.8656 11.9347L60.7819 12.3353ZM63.5659 12.3353L64.4822 11.9347C64.323 11.5706 63.9633 11.3353 63.5659 11.3353V12.3353ZM67.2379 20.7353V21.7353C67.5753 21.7353 67.89 21.5651 68.0747 21.2828C68.2594 21.0004 68.2893 20.6439 68.1542 20.3347L67.2379 20.7353ZM64.3099 20.7353L63.3765 21.0941C63.5249 21.4804 63.896 21.7353 64.3099 21.7353V20.7353ZM61.5979 13.6793V12.6793C61.2685 12.6793 60.9602 12.8415 60.7736 13.1131C60.5871 13.3846 60.5463 13.7306 60.6645 14.0381L61.5979 13.6793ZM62.7019 13.6793L63.6353 14.0381C63.7535 13.7306 63.7127 13.3846 63.5261 13.1131C63.3396 12.8415 63.0313 12.6793 62.7019 12.6793V13.6793ZM59.9899 20.7353V21.7353C60.4037 21.7353 60.7748 21.4804 60.9233 21.0941L59.9899 20.7353ZM59.2939 19.2713L58.3509 18.9385C58.2429 19.2445 58.2901 19.5839 58.4776 19.8489C58.665 20.1138 58.9694 20.2713 59.2939 20.2713V19.2713ZM60.0139 17.2313V16.2313C59.5899 16.2313 59.212 16.4987 59.0709 16.8985L60.0139 17.2313ZM63.8779 17.2313L64.8209 16.8985C64.6798 16.4987 64.3019 16.2313 63.8779 16.2313V17.2313ZM64.5979 19.2713V20.2713C64.9224 20.2713 65.2268 20.1138 65.4142 19.8489C65.6017 19.5839 65.6489 19.2445 65.5409 18.9385L64.5979 19.2713ZM58.0262 21.1358L61.6982 12.7358L59.8656 11.9347L56.1936 20.3347L58.0262 21.1358ZM60.7819 13.3353H63.5659V11.3353H60.7819V13.3353ZM62.6496 12.7358L66.3216 21.1358L68.1542 20.3347L64.4822 11.9347L62.6496 12.7358ZM67.2379 19.7353H64.3099V21.7353H67.2379V19.7353ZM65.2433 20.3765L62.5313 13.3205L60.6645 14.0381L63.3765 21.0941L65.2433 20.3765ZM61.5979 14.6793H62.7019V12.6793H61.5979V14.6793ZM61.7685 13.3205L59.0565 20.3765L60.9233 21.0941L63.6353 14.0381L61.7685 13.3205ZM59.9899 19.7353H57.1099V21.7353H59.9899V19.7353ZM60.2369 19.6041L60.9569 17.5641L59.0709 16.8985L58.3509 18.9385L60.2369 19.6041ZM60.0139 18.2313H63.8779V16.2313H60.0139V18.2313ZM62.9349 17.5641L63.6549 19.6041L65.5409 18.9385L64.8209 16.8985L62.9349 17.5641ZM64.5979 18.2713H59.2939V20.2713H64.5979V18.2713ZM69.3108 20.7353H68.3108C68.3108 21.2876 68.7585 21.7353 69.3108 21.7353V20.7353ZM69.3108 17.0513L70.2447 16.6936C70.0722 16.2434 69.603 15.9803 69.1289 16.068C68.6548 16.1556 68.3108 16.5691 68.3108 17.0513H69.3108ZM69.9588 18.7433L69.0996 19.2549C69.3652 19.701 69.9279 19.8696 70.395 19.6431C70.8622 19.4167 71.0783 18.8704 70.8927 18.3856L69.9588 18.7433ZM66.1428 12.3353V11.3353C65.7831 11.3353 65.4511 11.5285 65.2734 11.8412C65.0957 12.1539 65.0996 12.5379 65.2836 12.8469L66.1428 12.3353ZM69.1308 12.3353L69.9924 11.8278C69.8127 11.5226 69.4849 11.3353 69.1308 11.3353V12.3353ZM71.7108 16.7153V17.7153C72.0696 17.7153 72.4009 17.523 72.579 17.2115C72.757 16.9 72.7545 16.5169 72.5724 16.2078L71.7108 16.7153ZM69.9708 16.7153L69.1112 16.2043C68.9275 16.5133 68.9238 16.8972 69.1016 17.2097C69.2794 17.5223 69.6112 17.7153 69.9708 17.7153V16.7153ZM72.5748 12.3353V11.3353C72.2221 11.3353 71.8955 11.5211 71.7152 11.8243L72.5748 12.3353ZM75.3108 12.3353L76.1714 12.8446C76.3543 12.5354 76.3574 12.152 76.1795 11.8399C76.0016 11.5279 75.67 11.3353 75.3108 11.3353V12.3353ZM71.5188 18.7433L70.5806 18.3973C70.4016 18.8826 70.6223 19.4243 71.0894 19.6464C71.5565 19.8685 72.116 19.6977 72.3794 19.2526L71.5188 18.7433ZM72.1428 17.0513H73.1428C73.1428 16.5668 72.7955 16.152 72.3185 16.0669C71.8416 15.9817 71.3722 16.2507 71.2046 16.7053L72.1428 17.0513ZM72.1428 20.7353V21.7353C72.6951 21.7353 73.1428 21.2876 73.1428 20.7353H72.1428ZM70.3108 20.7353V17.0513H68.3108V20.7353H70.3108ZM68.3769 17.4089L69.0249 19.1009L70.8927 18.3856L70.2447 16.6936L68.3769 17.4089ZM70.818 18.2316L67.002 11.8236L65.2836 12.8469L69.0996 19.2549L70.818 18.2316ZM66.1428 13.3353H69.1308V11.3353H66.1428V13.3353ZM68.2692 12.8428L70.8492 17.2228L72.5724 16.2078L69.9924 11.8278L68.2692 12.8428ZM71.7108 15.7153H69.9708V17.7153H71.7108V15.7153ZM70.8304 17.2263L73.4344 12.8463L71.7152 11.8243L69.1112 16.2043L70.8304 17.2263ZM72.5748 13.3353H75.3108V11.3353H72.5748V13.3353ZM74.4502 11.826L70.6582 18.234L72.3794 19.2526L76.1714 12.8446L74.4502 11.826ZM72.457 19.0893L73.081 17.3973L71.2046 16.7053L70.5806 18.3973L72.457 19.0893ZM71.1428 17.0513V20.7353H73.1428V17.0513H71.1428ZM72.1428 19.7353H69.3108V21.7353H72.1428V19.7353Z" fill="#0B1E22" mask="url(#path-3-outside-1_1_30)"/>
</g>
</g>
<defs>
<filter id="filter0_d_1_30" x="0" y="0" width="116" height="37" filterUnits="userSpaceOnUse" color-interpolation-filters="sRGB">
<feFlood flood-opacity="0" result="BackgroundImageFix"/>
<feColorMatrix in="SourceAlpha" type="matrix" values="0 0 0 0 0 0 0 0 0 0 0 0 0 0 0 0 0 0 127 0" result="hardAlpha"/>
<feOffset dy="4"/>
<feComposite in2="hardAlpha" operator="out"/>
<feColorMatrix type="matrix" values="0 0 0 0 0.121569 0 0 0 0 0.639216 0 0 0 0 0.231373 0 0 0 1 0"/>
<feBlend mode="normal" in2="BackgroundImageFix" result="effect1_dropShadow_1_30"/>
<feBlend mode="normal" in="SourceGraphic" in2="effect1_dropShadow_1_30" result="shape"/>
</filter>
<filter id="filter1_d_1_30" x="41.6977" y="12.3353" width="33.6131" height="9.40002" filterUnits="userSpaceOnUse" color-interpolation-filters="sRGB">
<feFlood flood-opacity="0" result="BackgroundImageFix"/>
<feColorMatrix in="SourceAlpha" type="matrix" values="0 0 0 0 0 0 0 0 0 0 0 0 0 0 0 0 0 0 127 0" result="hardAlpha"/>
<feOffset dy="1"/>
<feComposite in2="hardAlpha" operator="out"/>
<feColorMatrix type="matrix" values="0 0 0 0 0.0431373 0 0 0 0 0.117647 0 0 0 0 0.133333 0 0 0 1 0"/>
<feBlend mode="normal" in2="BackgroundImageFix" result="effect1_dropShadow_1_30"/>
<feBlend mode="normal" in="SourceGraphic" in2="effect1_dropShadow_1_30" result="shape"/>
</filter>
<linearGradient id="paint0_linear_1_30" x1="58" y1="0" x2="58" y2="33" gradientUnits="userSpaceOnUse">
<stop stop-color="#5EF976"/>
<stop offset="1" stop-color="#28D44B"/>
</linearGradient>
</defs>
</svg>
