<svg width="116" height="37" viewBox="0 0 116 37" fill="none" xmlns="http://www.w3.org/2000/svg">
<g id="Button Text (Green)">
<g id="Rectangle 8" filter="url(#filter0_d_1_33)">
<rect width="116" height="33" rx="16.5" fill="url(#paint0_linear_1_33)"/>
<rect x="1" y="1" width="114" height="31" rx="15.5" stroke="#C4FACD" stroke-width="2"/>
</g>
<g id="RESUME" filter="url(#filter1_d_1_33)">
<mask id="path-3-outside-1_1_33" maskUnits="userSpaceOnUse" x="30" y="11.7059" width="56" height="12" fill="black">
<rect fill="white" x="30" y="11.7059" width="56" height="12"/>
<path d="M31.766 21.7059V13.3059H35.81C36.594 13.3059 37.27 13.4339 37.838 13.6899C38.414 13.9459 38.858 14.3139 39.17 14.7939C39.482 15.2659 39.638 15.8259 39.638 16.4739C39.638 17.1219 39.482 17.6819 39.17 18.1539C38.858 18.6179 38.414 18.9739 37.838 19.2219C37.27 19.4699 36.594 19.5939 35.81 19.5939H33.338L34.598 18.4299V21.7059H31.766ZM36.794 21.7059L34.73 18.6459H37.73L39.818 21.7059H36.794ZM34.598 18.7419L33.338 17.4579H35.63C36.022 17.4579 36.31 17.3699 36.494 17.1939C36.686 17.0179 36.782 16.7779 36.782 16.4739C36.782 16.1699 36.686 15.9299 36.494 15.7539C36.31 15.5779 36.022 15.4899 35.63 15.4899H33.338L34.598 14.2059V18.7419ZM43.2994 16.4259H47.0434V18.4659H43.2994V16.4259ZM43.4914 19.5699H47.6914V21.7059H40.7074V13.3059H47.5354V15.4419H43.4914V19.5699ZM51.9137 21.8979C51.2097 21.8979 50.5297 21.8179 49.8737 21.6579C49.2177 21.4979 48.6777 21.2899 48.2537 21.0339L49.1657 18.9699C49.5657 19.2019 50.0097 19.3899 50.4977 19.5339C50.9937 19.6699 51.4737 19.7379 51.9377 19.7379C52.2097 19.7379 52.4217 19.7219 52.5737 19.6899C52.7337 19.6499 52.8497 19.5979 52.9217 19.5339C52.9937 19.4619 53.0297 19.3779 53.0297 19.2819C53.0297 19.1299 52.9457 19.0099 52.7777 18.9219C52.6097 18.8339 52.3857 18.7619 52.1057 18.7059C51.8337 18.6419 51.5337 18.5779 51.2057 18.5139C50.8777 18.4419 50.5457 18.3499 50.2097 18.2379C49.8817 18.1259 49.5777 17.9779 49.2977 17.7939C49.0257 17.6099 48.8057 17.3699 48.6377 17.0739C48.4697 16.7699 48.3857 16.3939 48.3857 15.9459C48.3857 15.4259 48.5297 14.9539 48.8177 14.5299C49.1137 14.0979 49.5497 13.7539 50.1257 13.4979C50.7097 13.2419 51.4337 13.1139 52.2977 13.1139C52.8657 13.1139 53.4257 13.1739 53.9777 13.2939C54.5297 13.4139 55.0257 13.5979 55.4657 13.8459L54.6137 15.8979C54.1977 15.6899 53.7937 15.5339 53.4017 15.4299C53.0177 15.3259 52.6417 15.2739 52.2737 15.2739C52.0017 15.2739 51.7857 15.2979 51.6257 15.3459C51.4657 15.3939 51.3497 15.4579 51.2777 15.5379C51.2137 15.6179 51.1817 15.7059 51.1817 15.8019C51.1817 15.9459 51.2657 16.0619 51.4337 16.1499C51.6017 16.2299 51.8217 16.2979 52.0937 16.3539C52.3737 16.4099 52.6777 16.4699 53.0057 16.5339C53.3417 16.5979 53.6737 16.6859 54.0017 16.7979C54.3297 16.9099 54.6297 17.0579 54.9017 17.2419C55.1817 17.4259 55.4057 17.6659 55.5737 17.9619C55.7417 18.2579 55.8257 18.6259 55.8257 19.0659C55.8257 19.5779 55.6777 20.0499 55.3817 20.4819C55.0937 20.9059 54.6617 21.2499 54.0857 21.5139C53.5097 21.7699 52.7857 21.8979 51.9137 21.8979ZM60.6884 21.8979C59.4004 21.8979 58.3964 21.5499 57.6764 20.8539C56.9564 20.1579 56.5964 19.1819 56.5964 17.9259V13.3059H59.4284V17.8419C59.4284 18.4819 59.5444 18.9379 59.7764 19.2099C60.0084 19.4739 60.3204 19.6059 60.7124 19.6059C61.1124 19.6059 61.4244 19.4739 61.6484 19.2099C61.8804 18.9379 61.9964 18.4819 61.9964 17.8419V13.3059H64.7804V17.9259C64.7804 19.1819 64.4204 20.1579 63.7004 20.8539C62.9804 21.5499 61.9764 21.8979 60.6884 21.8979ZM66.0785 21.7059V13.3059H68.4065L71.7665 18.7899H70.5425L73.8065 13.3059H76.1345L76.1585 21.7059H73.5785L73.5545 17.1939H73.9625L71.7305 20.9499H70.4825L68.1545 17.1939H68.6585V21.7059H66.0785ZM80.1198 16.4259H83.8638V18.4659H80.1198V16.4259ZM80.3118 19.5699H84.5118V21.7059H77.5278V13.3059H84.3558V15.4419H80.3118V19.5699Z"/>
</mask>
<path d="M31.766 21.7059V13.3059H35.81C36.594 13.3059 37.27 13.4339 37.838 13.6899C38.414 13.9459 38.858 14.3139 39.17 14.7939C39.482 15.2659 39.638 15.8259 39.638 16.4739C39.638 17.1219 39.482 17.6819 39.17 18.1539C38.858 18.6179 38.414 18.9739 37.838 19.2219C37.27 19.4699 36.594 19.5939 35.81 19.5939H33.338L34.598 18.4299V21.7059H31.766ZM36.794 21.7059L34.73 18.6459H37.73L39.818 21.7059H36.794ZM34.598 18.7419L33.338 17.4579H35.63C36.022 17.4579 36.31 17.3699 36.494 17.1939C36.686 17.0179 36.782 16.7779 36.782 16.4739C36.782 16.1699 36.686 15.9299 36.494 15.7539C36.31 15.5779 36.022 15.4899 35.63 15.4899H33.338L34.598 14.2059V18.7419ZM43.2994 16.4259H47.0434V18.4659H43.2994V16.4259ZM43.4914 19.5699H47.6914V21.7059H40.7074V13.3059H47.5354V15.4419H43.4914V19.5699ZM51.9137 21.8979C51.2097 21.8979 50.5297 21.8179 49.8737 21.6579C49.2177 21.4979 48.6777 21.2899 48.2537 21.0339L49.1657 18.9699C49.5657 19.2019 50.0097 19.3899 50.4977 19.5339C50.9937 19.6699 51.4737 19.7379 51.9377 19.7379C52.2097 19.7379 52.4217 19.7219 52.5737 19.6899C52.7337 19.6499 52.8497 19.5979 52.9217 19.5339C52.9937 19.4619 53.0297 19.3779 53.0297 19.2819C53.0297 19.1299 52.9457 19.0099 52.7777 18.9219C52.6097 18.8339 52.3857 18.7619 52.1057 18.7059C51.8337 18.6419 51.5337 18.5779 51.2057 18.5139C50.8777 18.4419 50.5457 18.3499 50.2097 18.2379C49.8817 18.1259 49.5777 17.9779 49.2977 17.7939C49.0257 17.6099 48.8057 17.3699 48.6377 17.0739C48.4697 16.7699 48.3857 16.3939 48.3857 15.9459C48.3857 15.4259 48.5297 14.9539 48.8177 14.5299C49.1137 14.0979 49.5497 13.7539 50.1257 13.4979C50.7097 13.2419 51.4337 13.1139 52.2977 13.1139C52.8657 13.1139 53.4257 13.1739 53.9777 13.2939C54.5297 13.4139 55.0257 13.5979 55.4657 13.8459L54.6137 15.8979C54.1977 15.6899 53.7937 15.5339 53.4017 15.4299C53.0177 15.3259 52.6417 15.2739 52.2737 15.2739C52.0017 15.2739 51.7857 15.2979 51.6257 15.3459C51.4657 15.3939 51.3497 15.4579 51.2777 15.5379C51.2137 15.6179 51.1817 15.7059 51.1817 15.8019C51.1817 15.9459 51.2657 16.0619 51.4337 16.1499C51.6017 16.2299 51.8217 16.2979 52.0937 16.3539C52.3737 16.4099 52.6777 16.4699 53.0057 16.5339C53.3417 16.5979 53.6737 16.6859 54.0017 16.7979C54.3297 16.9099 54.6297 17.0579 54.9017 17.2419C55.1817 17.4259 55.4057 17.6659 55.5737 17.9619C55.7417 18.2579 55.8257 18.6259 55.8257 19.0659C55.8257 19.5779 55.6777 20.0499 55.3817 20.4819C55.0937 20.9059 54.6617 21.2499 54.0857 21.5139C53.5097 21.7699 52.7857 21.8979 51.9137 21.8979ZM60.6884 21.8979C59.4004 21.8979 58.3964 21.5499 57.6764 20.8539C56.9564 20.1579 56.5964 19.1819 56.5964 17.9259V13.3059H59.4284V17.8419C59.4284 18.4819 59.5444 18.9379 59.7764 19.2099C60.0084 19.4739 60.3204 19.6059 60.7124 19.6059C61.1124 19.6059 61.4244 19.4739 61.6484 19.2099C61.8804 18.9379 61.9964 18.4819 61.9964 17.8419V13.3059H64.7804V17.9259C64.7804 19.1819 64.4204 20.1579 63.7004 20.8539C62.9804 21.5499 61.9764 21.8979 60.6884 21.8979ZM66.0785 21.7059V13.3059H68.4065L71.7665 18.7899H70.5425L73.8065 13.3059H76.1345L76.1585 21.7059H73.5785L73.5545 17.1939H73.9625L71.7305 20.9499H70.4825L68.1545 17.1939H68.6585V21.7059H66.0785ZM80.1198 16.4259H83.8638V18.4659H80.1198V16.4259ZM80.3118 19.5699H84.5118V21.7059H77.5278V13.3059H84.3558V15.4419H80.3118V19.5699Z" fill="white"/>
<path d="M31.766 21.7059H30.766C30.766 22.2582 31.2137 22.7059 31.766 22.7059L31.766 21.7059ZM31.766 13.3059V12.3059C31.2137 12.3059 30.766 12.7536 30.766 13.3059H31.766ZM37.838 13.6899L37.4271 14.6016L37.4319 14.6037L37.838 13.6899ZM39.17 14.7939L38.3316 15.3389L38.3358 15.3453L39.17 14.7939ZM39.17 18.1539L39.9999 18.7119L40.0043 18.7053L39.17 18.1539ZM37.838 19.2219L37.4426 18.3034L37.4379 18.3054L37.838 19.2219ZM33.338 19.5939L32.6595 18.8593C32.3571 19.1387 32.2568 19.5748 32.4068 19.9582C32.5567 20.3416 32.9264 20.5939 33.338 20.5939V19.5939ZM34.598 18.4299H35.598C35.598 18.0326 35.3629 17.673 34.9989 17.5137C34.635 17.3545 34.2113 17.4258 33.9195 17.6953L34.598 18.4299ZM34.598 21.7059V22.7059C35.1503 22.7059 35.598 22.2582 35.598 21.7059H34.598ZM36.794 21.7059L35.965 22.2651C36.1509 22.5407 36.4616 22.7059 36.794 22.7059V21.7059ZM34.73 18.6459V17.6459C34.3603 17.6459 34.0207 17.8499 33.8471 18.1764C33.6735 18.5029 33.6942 18.8985 33.901 19.2051L34.73 18.6459ZM37.73 18.6459L38.5561 18.0822C38.3698 17.8092 38.0606 17.6459 37.73 17.6459V18.6459ZM39.818 21.7059V22.7059C40.1888 22.7059 40.5291 22.5008 40.7022 22.173C40.8754 21.8452 40.853 21.4485 40.6441 21.1422L39.818 21.7059ZM34.598 18.7419L33.8843 19.4423C34.1688 19.7322 34.6004 19.8212 34.9764 19.6675C35.3523 19.5139 35.598 19.1481 35.598 18.7419H34.598ZM33.338 17.4579V16.4579C32.9353 16.4579 32.5718 16.6995 32.416 17.0708C32.2601 17.4422 32.3422 17.8708 32.6243 18.1583L33.338 17.4579ZM36.494 17.1939L35.8183 16.4567C35.8131 16.4615 35.8079 16.4663 35.8028 16.4712L36.494 17.1939ZM36.494 15.7539L35.8028 16.4765C35.8079 16.4814 35.8131 16.4862 35.8183 16.491L36.494 15.7539ZM33.338 15.4899L32.6243 14.7895C32.3422 15.0769 32.2601 15.5056 32.416 15.8769C32.5718 16.2483 32.9353 16.4899 33.338 16.4899V15.4899ZM34.598 14.2059H35.598C35.598 13.7997 35.3523 13.4339 34.9764 13.2802C34.6004 13.1265 34.1688 13.2156 33.8843 13.5055L34.598 14.2059ZM32.766 21.7059V13.3059H30.766V21.7059H32.766ZM31.766 14.3059H35.81V12.3059H31.766V14.3059ZM35.81 14.3059C36.4878 14.3059 37.0171 14.4168 37.4271 14.6016L38.2489 12.7782C37.5229 12.451 36.7003 12.3059 35.81 12.3059V14.3059ZM37.4319 14.6037C37.8497 14.7894 38.1355 15.0372 38.3316 15.3389L40.0085 14.2489C39.5805 13.5905 38.9784 13.1024 38.2442 12.7761L37.4319 14.6037ZM38.3358 15.3453C38.5246 15.6309 38.638 15.9927 38.638 16.4739H40.638C40.638 15.6591 40.4395 14.9009 40.0043 14.2424L38.3358 15.3453ZM38.638 16.4739C38.638 16.9551 38.5246 17.3169 38.3358 17.6024L40.0043 18.7053C40.4395 18.0469 40.638 17.2887 40.638 16.4739H38.638ZM38.3402 17.5959C38.1481 17.8816 37.8643 18.1218 37.4426 18.3034L38.2335 20.1404C38.9638 19.8259 39.568 19.3541 39.9999 18.7119L38.3402 17.5959ZM37.4379 18.3054C37.0248 18.4858 36.4915 18.5939 35.81 18.5939V20.5939C36.6965 20.5939 37.5153 20.454 38.2382 20.1383L37.4379 18.3054ZM35.81 18.5939H33.338V20.5939H35.81V18.5939ZM34.0166 20.3284L35.2766 19.1644L33.9195 17.6953L32.6595 18.8593L34.0166 20.3284ZM33.598 18.4299V21.7059H35.598V18.4299H33.598ZM34.598 20.7059H31.766V22.7059H34.598V20.7059ZM37.6231 21.1467L35.5591 18.0867L33.901 19.2051L35.965 22.2651L37.6231 21.1467ZM34.73 19.6459H37.73V17.6459H34.73V19.6459ZM36.904 19.2095L38.992 22.2695L40.6441 21.1422L38.5561 18.0822L36.904 19.2095ZM39.818 20.7059H36.794V22.7059H39.818V20.7059ZM35.3118 18.0415L34.0518 16.7575L32.6243 18.1583L33.8843 19.4423L35.3118 18.0415ZM33.338 18.4579H35.63V16.4579H33.338V18.4579ZM35.63 18.4579C36.1446 18.4579 36.7363 18.3459 37.1853 17.9165L35.8028 16.4712C35.8426 16.4332 35.8695 16.4289 35.8478 16.4355C35.8221 16.4434 35.7551 16.4579 35.63 16.4579V18.4579ZM37.1698 17.931C37.6034 17.5335 37.782 17.0069 37.782 16.4739H35.782C35.782 16.5207 35.7748 16.5274 35.7816 16.5105C35.7848 16.5023 35.7902 16.4917 35.7978 16.4807C35.8055 16.4696 35.813 16.4616 35.8183 16.4567L37.1698 17.931ZM37.782 16.4739C37.782 15.9409 37.6034 15.4142 37.1698 15.0167L35.8183 16.491C35.813 16.4862 35.8055 16.4781 35.7978 16.4671C35.7902 16.456 35.7848 16.4455 35.7816 16.4373C35.7748 16.4203 35.782 16.4271 35.782 16.4739H37.782ZM37.1853 15.0312C36.7363 14.6018 36.1446 14.4899 35.63 14.4899V16.4899C35.7551 16.4899 35.8221 16.5044 35.8478 16.5122C35.8695 16.5189 35.8426 16.5146 35.8028 16.4765L37.1853 15.0312ZM35.63 14.4899H33.338V16.4899H35.63V14.4899ZM34.0518 16.1903L35.3118 14.9063L33.8843 13.5055L32.6243 14.7895L34.0518 16.1903ZM33.598 14.2059V18.7419H35.598V14.2059H33.598ZM43.2994 16.4259V15.4259C42.7472 15.4259 42.2994 15.8736 42.2994 16.4259H43.2994ZM47.0434 16.4259H48.0434C48.0434 15.8736 47.5957 15.4259 47.0434 15.4259V16.4259ZM47.0434 18.4659V19.4659C47.5957 19.4659 48.0434 19.0182 48.0434 18.4659H47.0434ZM43.2994 18.4659H42.2994C42.2994 19.0182 42.7472 19.4659 43.2994 19.4659V18.4659ZM43.4914 19.5699H42.4914C42.4914 20.1222 42.9392 20.5699 43.4914 20.5699V19.5699ZM47.6914 19.5699H48.6914C48.6914 19.0176 48.2437 18.5699 47.6914 18.5699V19.5699ZM47.6914 21.7059V22.7059C48.2437 22.7059 48.6914 22.2582 48.6914 21.7059H47.6914ZM40.7074 21.7059H39.7074C39.7074 22.2582 40.1552 22.7059 40.7074 22.7059V21.7059ZM40.7074 13.3059V12.3059C40.1552 12.3059 39.7074 12.7536 39.7074 13.3059H40.7074ZM47.5354 13.3059H48.5354C48.5354 12.7536 48.0877 12.3059 47.5354 12.3059V13.3059ZM47.5354 15.4419V16.4419C48.0877 16.4419 48.5354 15.9942 48.5354 15.4419H47.5354ZM43.4914 15.4419V14.4419C42.9392 14.4419 42.4914 14.8896 42.4914 15.4419H43.4914ZM43.2994 17.4259H47.0434V15.4259H43.2994V17.4259ZM46.0434 16.4259V18.4659H48.0434V16.4259H46.0434ZM47.0434 17.4659H43.2994V19.4659H47.0434V17.4659ZM44.2994 18.4659V16.4259H42.2994V18.4659H44.2994ZM43.4914 20.5699H47.6914V18.5699H43.4914V20.5699ZM46.6914 19.5699V21.7059H48.6914V19.5699H46.6914ZM47.6914 20.7059H40.7074V22.7059H47.6914V20.7059ZM41.7074 21.7059V13.3059H39.7074V21.7059H41.7074ZM40.7074 14.3059H47.5354V12.3059H40.7074V14.3059ZM46.5354 13.3059V15.4419H48.5354V13.3059H46.5354ZM47.5354 14.4419H43.4914V16.4419H47.5354V14.4419ZM42.4914 15.4419V19.5699H44.4914V15.4419H42.4914ZM49.8737 21.6579L50.1106 20.6864L49.8737 21.6579ZM48.2537 21.0339L47.339 20.6297C47.1356 21.09 47.306 21.6298 47.7368 21.8899L48.2537 21.0339ZM49.1657 18.9699L49.6674 18.1048C49.4215 17.9622 49.1265 17.931 48.8562 18.0189C48.5859 18.1069 48.3659 18.3057 48.251 18.5657L49.1657 18.9699ZM50.4977 19.5339L50.2146 20.493C50.2208 20.4948 50.227 20.4966 50.2332 20.4983L50.4977 19.5339ZM52.5737 19.6899L52.7797 20.6684C52.7919 20.6658 52.8041 20.663 52.8162 20.66L52.5737 19.6899ZM52.9217 19.5339L53.586 20.2813C53.6007 20.2683 53.6149 20.2548 53.6288 20.241L52.9217 19.5339ZM52.7777 18.9219L52.3136 19.8077H52.3137L52.7777 18.9219ZM52.1057 18.7059L51.8766 19.6793C51.8876 19.6819 51.8985 19.6842 51.9095 19.6865L52.1057 18.7059ZM51.2057 18.5139L50.9912 19.4906C50.9989 19.4923 51.0065 19.4939 51.0141 19.4954L51.2057 18.5139ZM50.2097 18.2379L49.8865 19.1842L49.8934 19.1866L50.2097 18.2379ZM49.2977 17.7939L48.7373 18.6222L48.7485 18.6296L49.2977 17.7939ZM48.6377 17.0739L47.7624 17.5576L47.768 17.5675L48.6377 17.0739ZM48.8177 14.5299L47.9927 13.9646L47.9904 13.968L48.8177 14.5299ZM50.1257 13.4979L49.7242 12.582L49.7195 12.5841L50.1257 13.4979ZM53.9777 13.2939L53.7652 14.271L53.9777 13.2939ZM55.4657 13.8459L56.3892 14.2293C56.5833 13.7619 56.3976 13.2232 55.9567 12.9747L55.4657 13.8459ZM54.6137 15.8979L54.1664 16.7923C54.4145 16.9163 54.703 16.9318 54.9629 16.8349C55.2229 16.738 55.4308 16.5375 55.5372 16.2813L54.6137 15.8979ZM53.4017 15.4299L53.1402 16.3951L53.1452 16.3964L53.4017 15.4299ZM51.6257 15.3459L51.3383 14.388L51.6257 15.3459ZM51.2777 15.5379L50.5344 14.8689C50.5214 14.8833 50.5089 14.8981 50.4968 14.9132L51.2777 15.5379ZM51.4337 16.1499L50.9697 17.0357C50.9809 17.0416 50.9923 17.0473 51.0037 17.0527L51.4337 16.1499ZM52.0937 16.3539L51.892 17.3333L51.8975 17.3345L52.0937 16.3539ZM53.0057 16.5339L52.8141 17.5154L52.8185 17.5162L53.0057 16.5339ZM54.0017 16.7979L53.6785 17.7442L54.0017 16.7979ZM54.9017 17.2419L54.3413 18.0702L54.3525 18.0776L54.9017 17.2419ZM55.5737 17.9619L54.704 18.4555L54.704 18.4555L55.5737 17.9619ZM55.3817 20.4819L54.5567 19.9166L54.5544 19.92L55.3817 20.4819ZM54.0857 21.5139L54.4918 22.4277L54.5023 22.4229L54.0857 21.5139ZM51.9137 20.8979C51.2861 20.8979 50.6858 20.8266 50.1106 20.6864L49.6367 22.6294C50.3735 22.8091 51.1332 22.8979 51.9137 22.8979V20.8979ZM50.1106 20.6864C49.52 20.5423 49.0825 20.3662 48.7705 20.1778L47.7368 21.8899C48.2728 22.2136 48.9153 22.4534 49.6367 22.6294L50.1106 20.6864ZM49.1683 21.438L50.0803 19.374L48.251 18.5657L47.339 20.6297L49.1683 21.438ZM48.6639 19.8349C49.1393 20.1106 49.6578 20.3287 50.2146 20.493L50.7807 18.5748C50.3615 18.4511 49.992 18.2931 49.6674 18.1048L48.6639 19.8349ZM50.2332 20.4983C50.8062 20.6554 51.3752 20.7379 51.9377 20.7379V18.7379C51.5721 18.7379 51.1811 18.6844 50.7621 18.5695L50.2332 20.4983ZM51.9377 20.7379C52.2356 20.7379 52.5277 20.7215 52.7797 20.6684L52.3676 18.7113C52.3156 18.7223 52.1837 18.7379 51.9377 18.7379V20.7379ZM52.8162 20.66C53.0358 20.6051 53.3361 20.5035 53.586 20.2813L52.2573 18.7865C52.2884 18.7588 52.3155 18.7402 52.3343 18.7286C52.3532 18.7169 52.3664 18.7107 52.3716 18.7084C52.3804 18.7044 52.3699 18.71 52.3311 18.7197L52.8162 20.66ZM53.6288 20.241C53.8757 19.9941 54.0297 19.6604 54.0297 19.2819H52.0297C52.0297 19.2014 52.0455 19.1117 52.0835 19.023C52.121 18.9354 52.1708 18.8705 52.2146 18.8268L53.6288 20.241ZM54.0297 19.2819C54.0297 18.6599 53.6423 18.2459 53.2417 18.036L52.3137 19.8077C52.2964 19.7987 52.2202 19.7552 52.1474 19.6513C52.0671 19.5366 52.0297 19.4028 52.0297 19.2819H54.0297ZM53.2417 18.036C52.9583 17.8876 52.633 17.7915 52.3018 17.7253L51.9095 19.6865C52.1383 19.7322 52.261 19.7801 52.3136 19.8077L53.2417 18.036ZM52.3347 17.7325C52.0481 17.665 51.7354 17.5984 51.3972 17.5324L51.0141 19.4954C51.3319 19.5574 51.6192 19.6187 51.8766 19.6793L52.3347 17.7325ZM51.4201 17.5371C51.1283 17.4731 50.8303 17.3906 50.5259 17.2892L49.8934 19.1866C50.261 19.3091 50.627 19.4107 50.9912 19.4906L51.4201 17.5371ZM50.5328 17.2915C50.2817 17.2058 50.0541 17.0943 49.8468 16.9582L48.7485 18.6296C49.1013 18.8614 49.4816 19.0459 49.8865 19.1842L50.5328 17.2915ZM49.858 16.9656C49.7182 16.871 49.6022 16.7474 49.5073 16.5803L47.768 17.5675C48.0091 17.9923 48.3331 18.3487 48.7373 18.6222L49.858 16.9656ZM49.5129 16.5902C49.4471 16.4711 49.3857 16.2725 49.3857 15.9459H47.3857C47.3857 16.5153 47.4922 17.0686 47.7624 17.5576L49.5129 16.5902ZM49.3857 15.9459C49.3857 15.6231 49.4712 15.3475 49.6449 15.0918L47.9904 13.968C47.5881 14.5603 47.3857 15.2286 47.3857 15.9459H49.3857ZM49.6426 15.0951C49.8144 14.8443 50.0903 14.6079 50.5318 14.4117L49.7195 12.5841C49.009 12.8998 48.4129 13.3514 47.9927 13.9646L49.6426 15.0951ZM50.5271 14.4137C50.9481 14.2292 51.5256 14.1139 52.2977 14.1139V12.1139C51.3417 12.1139 50.4712 12.2546 49.7242 12.582L50.5271 14.4137ZM52.2977 14.1139C52.7946 14.1139 53.2834 14.1663 53.7652 14.271L54.1901 12.3167C53.5679 12.1814 52.9367 12.1139 52.2977 12.1139V14.1139ZM53.7652 14.271C54.231 14.3723 54.6313 14.5235 54.9746 14.717L55.9567 12.9747C55.42 12.6722 54.8283 12.4554 54.1901 12.3167L53.7652 14.271ZM54.5421 13.4624L53.6901 15.5144L55.5372 16.2813L56.3892 14.2293L54.5421 13.4624ZM55.0609 15.0034C54.5926 14.7693 54.1247 14.5871 53.6581 14.4633L53.1452 16.3964C53.4626 16.4806 53.8027 16.6104 54.1664 16.7923L55.0609 15.0034ZM53.6631 14.4646C53.2007 14.3394 52.7368 14.2739 52.2737 14.2739V16.2739C52.5465 16.2739 52.8346 16.3123 53.1402 16.3951L53.6631 14.4646ZM52.2737 14.2739C51.9572 14.2739 51.6314 14.3001 51.3383 14.388L51.913 16.3037C51.9399 16.2956 52.0461 16.2739 52.2737 16.2739V14.2739ZM51.3383 14.388C51.0917 14.462 50.779 14.5971 50.5344 14.8689L52.021 16.2068C51.9674 16.2664 51.9197 16.2955 51.9017 16.3054C51.884 16.3153 51.8842 16.3123 51.913 16.3037L51.3383 14.388ZM50.4968 14.9132C50.3012 15.1577 50.1817 15.463 50.1817 15.8019H52.1817C52.1817 15.8674 52.1703 15.9373 52.1454 16.0056C52.1209 16.0731 52.0882 16.1255 52.0585 16.1626L50.4968 14.9132ZM50.1817 15.8019C50.1817 16.4377 50.5938 16.8388 50.9697 17.0357L51.8977 15.264C51.908 15.2695 51.9815 15.3094 52.0546 15.4104C52.1369 15.524 52.1817 15.6645 52.1817 15.8019H50.1817ZM51.0037 17.0527C51.2706 17.1798 51.5757 17.2682 51.892 17.3333L52.2953 15.3744C52.0676 15.3275 51.9327 15.2799 51.8636 15.247L51.0037 17.0527ZM51.8975 17.3345C52.1793 17.3908 52.4849 17.4511 52.8141 17.5154L53.1972 15.5524C52.8705 15.4886 52.568 15.4289 52.2898 15.3733L51.8975 17.3345ZM52.8185 17.5162C53.1078 17.5713 53.3944 17.6472 53.6785 17.7442L54.3248 15.8515C53.9529 15.7245 53.5755 15.6244 53.1928 15.5515L52.8185 17.5162ZM53.6785 17.7442C53.9272 17.8291 54.1468 17.9385 54.3413 18.0702L55.462 16.4136C55.1125 16.1772 54.7321 15.9906 54.3248 15.8515L53.6785 17.7442ZM54.3525 18.0776C54.4979 18.1731 54.6129 18.295 54.704 18.4555L56.4433 17.4683C56.1984 17.0367 55.8654 16.6786 55.4508 16.4062L54.3525 18.0776ZM54.704 18.4555C54.7651 18.5632 54.8257 18.7495 54.8257 19.0659H56.8257C56.8257 18.5023 56.7182 17.9526 56.4433 17.4683L54.704 18.4555ZM54.8257 19.0659C54.8257 19.3713 54.7415 19.647 54.5567 19.9166L56.2066 21.0471C56.6139 20.4527 56.8257 19.7845 56.8257 19.0659H54.8257ZM54.5544 19.92C54.3907 20.161 54.1181 20.399 53.669 20.6048L54.5023 22.4229C55.2053 22.1008 55.7966 21.6508 56.2089 21.0438L54.5544 19.92ZM53.6795 20.6001C53.2705 20.7819 52.696 20.8979 51.9137 20.8979V22.8979C52.8753 22.8979 53.7489 22.7579 54.4918 22.4277L53.6795 20.6001ZM57.6764 20.8539L56.9814 21.5729L57.6764 20.8539ZM56.5964 13.3059V12.3059C56.0441 12.3059 55.5964 12.7536 55.5964 13.3059H56.5964ZM59.4284 13.3059H60.4284C60.4284 12.7536 59.9807 12.3059 59.4284 12.3059V13.3059ZM59.7764 19.2099L59.0155 19.8588C59.0187 19.8626 59.022 19.8663 59.0252 19.87L59.7764 19.2099ZM61.6484 19.2099L60.8875 18.5609L60.8859 18.5629L61.6484 19.2099ZM61.9964 13.3059V12.3059C61.4441 12.3059 60.9964 12.7536 60.9964 13.3059H61.9964ZM64.7804 13.3059H65.7804C65.7804 12.7536 65.3327 12.3059 64.7804 12.3059V13.3059ZM63.7004 20.8539L63.0054 20.1349L63.7004 20.8539ZM60.6884 20.8979C59.5825 20.8979 58.8559 20.6033 58.3714 20.1349L56.9814 21.5729C57.9368 22.4965 59.2183 22.8979 60.6884 22.8979V20.8979ZM58.3714 20.1349C57.8933 19.6727 57.5964 18.9839 57.5964 17.9259H55.5964C55.5964 19.3799 56.0195 20.6431 56.9814 21.5729L58.3714 20.1349ZM57.5964 17.9259V13.3059H55.5964V17.9259H57.5964ZM56.5964 14.3059H59.4284V12.3059H56.5964V14.3059ZM58.4284 13.3059V17.8419H60.4284V13.3059H58.4284ZM58.4284 17.8419C58.4284 18.5514 58.547 19.3094 59.0155 19.8588L60.5372 18.5609C60.5468 18.5722 60.5162 18.542 60.4845 18.4173C60.4529 18.2929 60.4284 18.1064 60.4284 17.8419H58.4284ZM59.0252 19.87C59.4703 20.3764 60.0698 20.6059 60.7124 20.6059V18.6059C60.5709 18.6059 60.5465 18.5713 60.5275 18.5498L59.0252 19.87ZM60.7124 20.6059C61.3553 20.6059 61.9663 20.3808 62.4109 19.8568L60.8859 18.5629C60.8727 18.5784 60.8655 18.5822 60.8567 18.5859C60.8442 18.5912 60.8023 18.6059 60.7124 18.6059V20.6059ZM62.4092 19.8588C62.8778 19.3094 62.9964 18.5514 62.9964 17.8419H60.9964C60.9964 18.1064 60.9719 18.2929 60.9402 18.4173C60.9085 18.542 60.878 18.5722 60.8875 18.5609L62.4092 19.8588ZM62.9964 17.8419V13.3059H60.9964V17.8419H62.9964ZM61.9964 14.3059H64.7804V12.3059H61.9964V14.3059ZM63.7804 13.3059V17.9259H65.7804V13.3059H63.7804ZM63.7804 17.9259C63.7804 18.9839 63.4835 19.6727 63.0054 20.1349L64.3954 21.5729C65.3573 20.6431 65.7804 19.3799 65.7804 17.9259H63.7804ZM63.0054 20.1349C62.5208 20.6033 61.7943 20.8979 60.6884 20.8979V22.8979C62.1585 22.8979 63.4399 22.4965 64.3954 21.5729L63.0054 20.1349ZM66.0785 21.7059H65.0785C65.0785 22.2582 65.5262 22.7059 66.0785 22.7059V21.7059ZM66.0785 13.3059V12.3059C65.5262 12.3059 65.0785 12.7536 65.0785 13.3059H66.0785ZM68.4065 13.3059L69.2592 12.7834C69.0774 12.4867 68.7545 12.3059 68.4065 12.3059V13.3059ZM71.7665 18.7899V19.7899C72.1285 19.7899 72.4621 19.5943 72.639 19.2785C72.8159 18.9628 72.8083 18.5761 72.6192 18.2674L71.7665 18.7899ZM70.5425 18.7899L69.6832 18.2784C69.4993 18.5875 69.4955 18.9715 69.6732 19.2841C69.851 19.5968 70.1829 19.7899 70.5425 19.7899V18.7899ZM73.8065 13.3059V12.3059C73.454 12.3059 73.1275 12.4915 72.9472 12.7944L73.8065 13.3059ZM76.1345 13.3059L77.1345 13.303C77.133 12.7518 76.6857 12.3059 76.1345 12.3059V13.3059ZM76.1585 21.7059V22.7059C76.4242 22.7059 76.679 22.6001 76.8666 22.412C77.0543 22.2238 77.1593 21.9687 77.1585 21.703L76.1585 21.7059ZM73.5785 21.7059L72.5785 21.7112C72.5815 22.2614 73.0283 22.7059 73.5785 22.7059V21.7059ZM73.5545 17.1939V16.1939C73.2884 16.1939 73.0332 16.3 72.8455 16.4886C72.6579 16.6773 72.5531 16.9331 72.5545 17.1992L73.5545 17.1939ZM73.9625 17.1939L74.8222 17.7047C75.0059 17.3957 75.0095 17.0118 74.8317 16.6993C74.6539 16.3869 74.322 16.1939 73.9625 16.1939V17.1939ZM71.7305 20.9499V21.9499C72.0833 21.9499 72.41 21.764 72.5902 21.4607L71.7305 20.9499ZM70.4825 20.9499L69.6326 21.4767C69.8149 21.7709 70.1364 21.9499 70.4825 21.9499V20.9499ZM68.1545 17.1939V16.1939C67.7917 16.1939 67.4573 16.3904 67.2808 16.7075C67.1043 17.0245 67.1134 17.4123 67.3046 17.7207L68.1545 17.1939ZM68.6585 17.1939H69.6585C69.6585 16.6416 69.2108 16.1939 68.6585 16.1939V17.1939ZM68.6585 21.7059V22.7059C69.2108 22.7059 69.6585 22.2582 69.6585 21.7059H68.6585ZM67.0785 21.7059V13.3059H65.0785V21.7059H67.0785ZM66.0785 14.3059H68.4065V12.3059H66.0785V14.3059ZM67.5538 13.8283L70.9138 19.3123L72.6192 18.2674L69.2592 12.7834L67.5538 13.8283ZM71.7665 17.7899H70.5425V19.7899H71.7665V17.7899ZM71.4018 19.3013L74.6658 13.8173L72.9472 12.7944L69.6832 18.2784L71.4018 19.3013ZM73.8065 14.3059H76.1345V12.3059H73.8065V14.3059ZM75.1345 13.3087L75.1585 21.7087L77.1585 21.703L77.1345 13.303L75.1345 13.3087ZM76.1585 20.7059H73.5785V22.7059H76.1585V20.7059ZM74.5785 21.7006L74.5545 17.1886L72.5545 17.1992L72.5785 21.7112L74.5785 21.7006ZM73.5545 18.1939H73.9625V16.1939H73.5545V18.1939ZM73.1029 16.683L70.8709 20.439L72.5902 21.4607L74.8222 17.7047L73.1029 16.683ZM71.7305 19.9499H70.4825V21.9499H71.7305V19.9499ZM71.3325 20.423L69.0045 16.667L67.3046 17.7207L69.6326 21.4767L71.3325 20.423ZM68.1545 18.1939H68.6585V16.1939H68.1545V18.1939ZM67.6585 17.1939V21.7059H69.6585V17.1939H67.6585ZM68.6585 20.7059H66.0785V22.7059H68.6585V20.7059ZM80.1198 16.4259V15.4259C79.5675 15.4259 79.1198 15.8736 79.1198 16.4259H80.1198ZM83.8638 16.4259H84.8638C84.8638 15.8736 84.416 15.4259 83.8638 15.4259V16.4259ZM83.8638 18.4659V19.4659C84.416 19.4659 84.8638 19.0182 84.8638 18.4659H83.8638ZM80.1198 18.4659H79.1198C79.1198 19.0182 79.5675 19.4659 80.1198 19.4659V18.4659ZM80.3117 19.5699H79.3117C79.3117 20.1222 79.7595 20.5699 80.3117 20.5699V19.5699ZM84.5117 19.5699H85.5117C85.5117 19.0176 85.064 18.5699 84.5117 18.5699V19.5699ZM84.5117 21.7059V22.7059C85.064 22.7059 85.5117 22.2582 85.5117 21.7059H84.5117ZM77.5278 21.7059H76.5278C76.5278 22.2582 76.9755 22.7059 77.5278 22.7059V21.7059ZM77.5278 13.3059V12.3059C76.9755 12.3059 76.5278 12.7536 76.5278 13.3059H77.5278ZM84.3558 13.3059H85.3558C85.3558 12.7536 84.908 12.3059 84.3558 12.3059V13.3059ZM84.3558 15.4419V16.4419C84.908 16.4419 85.3558 15.9942 85.3558 15.4419H84.3558ZM80.3117 15.4419V14.4419C79.7595 14.4419 79.3117 14.8896 79.3117 15.4419H80.3117ZM80.1198 17.4259H83.8638V15.4259H80.1198V17.4259ZM82.8638 16.4259V18.4659H84.8638V16.4259H82.8638ZM83.8638 17.4659H80.1198V19.4659H83.8638V17.4659ZM81.1198 18.4659V16.4259H79.1198V18.4659H81.1198ZM80.3117 20.5699H84.5117V18.5699H80.3117V20.5699ZM83.5117 19.5699V21.7059H85.5117V19.5699H83.5117ZM84.5117 20.7059H77.5278V22.7059H84.5117V20.7059ZM78.5278 21.7059V13.3059H76.5278V21.7059H78.5278ZM77.5278 14.3059H84.3558V12.3059H77.5278V14.3059ZM83.3558 13.3059V15.4419H85.3558V13.3059H83.3558ZM84.3558 14.4419H80.3117V16.4419H84.3558V14.4419ZM79.3117 15.4419V19.5699H81.3117V15.4419H79.3117Z" fill="#0B1E22" mask="url(#path-3-outside-1_1_33)"/>
</g>
</g>
<defs>
<filter id="filter0_d_1_33" x="0" y="0" width="116" height="37" filterUnits="userSpaceOnUse" color-interpolation-filters="sRGB">
<feFlood flood-opacity="0" result="BackgroundImageFix"/>
<feColorMatrix in="SourceAlpha" type="matrix" values="0 0 0 0 0 0 0 0 0 0 0 0 0 0 0 0 0 0 127 0" result="hardAlpha"/>
<feOffset dy="4"/>
<feComposite in2="hardAlpha" operator="out"/>
<feColorMatrix type="matrix" values="0 0 0 0 0.121569 0 0 0 0 0.639216 0 0 0 0 0.231373 0 0 0 1 0"/>
<feBlend mode="normal" in2="BackgroundImageFix" result="effect1_dropShadow_1_33"/>
<feBlend mode="normal" in="SourceGraphic" in2="effect1_dropShadow_1_33" result="shape"/>
</filter>
<filter id="filter1_d_1_33" x="31.7661" y="13.1139" width="52.7457" height="9.784" filterUnits="userSpaceOnUse" color-interpolation-filters="sRGB">
<feFlood flood-opacity="0" result="BackgroundImageFix"/>
<feColorMatrix in="SourceAlpha" type="matrix" values="0 0 0 0 0 0 0 0 0 0 0 0 0 0 0 0 0 0 127 0" result="hardAlpha"/>
<feOffset dy="1"/>
<feComposite in2="hardAlpha" operator="out"/>
<feColorMatrix type="matrix" values="0 0 0 0 0.0431373 0 0 0 0 0.117647 0 0 0 0 0.133333 0 0 0 1 0"/>
<feBlend mode="normal" in2="BackgroundImageFix" result="effect1_dropShadow_1_33"/>
<feBlend mode="normal" in="SourceGraphic" in2="effect1_dropShadow_1_33" result="shape"/>
</filter>
<linearGradient id="paint0_linear_1_33" x1="58" y1="0" x2="58" y2="33" gradientUnits="userSpaceOnUse">
<stop stop-color="#5EF976"/>
<stop offset="1" stop-color="#28D44B"/>
</linearGradient>
</defs>
</svg>
