<svg width="116" height="37" viewBox="0 0 116 37" fill="none" xmlns="http://www.w3.org/2000/svg">
<g id="Button Text (Green)">
<g id="Rectangle 8" filter="url(#filter0_d_1_45)">
<rect width="116" height="33" rx="16.5" fill="url(#paint0_linear_1_45)"/>
<rect x="1" y="1" width="114" height="31" rx="15.5" stroke="#C4FACD" stroke-width="2"/>
</g>
<g id="EXIT" filter="url(#filter1_d_1_45)">
<mask id="path-3-outside-1_1_45" maskUnits="userSpaceOnUse" x="43" y="11.7059" width="31" height="11" fill="black">
<rect fill="white" x="43" y="11.7059" width="31" height="11"/>
<path d="M47.2975 16.4259H51.0415V18.4659H47.2975V16.4259ZM47.4895 19.5699H51.6895V21.7059H44.7055V13.3059H51.5335V15.4419H47.4895V19.5699ZM51.9411 21.7059L55.6851 16.4739L55.6731 18.4539L52.0491 13.3059H55.2291L57.3411 16.4259L55.9851 16.4379L58.0491 13.3059H61.0971L57.4731 18.3459V16.3779L61.2771 21.7059H58.0371L55.9251 18.4419L57.2331 18.4299L55.1691 21.7059H51.9411ZM61.6156 21.7059V13.3059H64.4476V21.7059H61.6156ZM67.635 21.7059V15.5019H65.175V13.3059H72.927V15.5019H70.467V21.7059H67.635Z"/>
</mask>
<path d="M47.2975 16.4259H51.0415V18.4659H47.2975V16.4259ZM47.4895 19.5699H51.6895V21.7059H44.7055V13.3059H51.5335V15.4419H47.4895V19.5699ZM51.9411 21.7059L55.6851 16.4739L55.6731 18.4539L52.0491 13.3059H55.2291L57.3411 16.4259L55.9851 16.4379L58.0491 13.3059H61.0971L57.4731 18.3459V16.3779L61.2771 21.7059H58.0371L55.9251 18.4419L57.2331 18.4299L55.1691 21.7059H51.9411ZM61.6156 21.7059V13.3059H64.4476V21.7059H61.6156ZM67.635 21.7059V15.5019H65.175V13.3059H72.927V15.5019H70.467V21.7059H67.635Z" fill="white"/>
<path d="M47.2975 16.4259V15.4259C46.7452 15.4259 46.2975 15.8736 46.2975 16.4259H47.2975ZM51.0415 16.4259H52.0415C52.0415 15.8736 51.5938 15.4259 51.0415 15.4259V16.4259ZM51.0415 18.4659V19.4659C51.5938 19.4659 52.0415 19.0182 52.0415 18.4659H51.0415ZM47.2975 18.4659H46.2975C46.2975 19.0182 46.7452 19.4659 47.2975 19.4659V18.4659ZM47.4895 19.5699H46.4895C46.4895 20.1222 46.9372 20.5699 47.4895 20.5699V19.5699ZM51.6895 19.5699H52.6895C52.6895 19.0176 52.2418 18.5699 51.6895 18.5699V19.5699ZM51.6895 21.7059V22.7059C52.2418 22.7059 52.6895 22.2582 52.6895 21.7059H51.6895ZM44.7055 21.7059H43.7055C43.7055 22.2582 44.1532 22.7059 44.7055 22.7059L44.7055 21.7059ZM44.7055 13.3059V12.3059C44.1532 12.3059 43.7055 12.7536 43.7055 13.3059H44.7055ZM51.5335 13.3059H52.5335C52.5335 12.7536 52.0858 12.3059 51.5335 12.3059V13.3059ZM51.5335 15.4419V16.4419C52.0858 16.4419 52.5335 15.9942 52.5335 15.4419H51.5335ZM47.4895 15.4419V14.4419C46.9372 14.4419 46.4895 14.8896 46.4895 15.4419H47.4895ZM47.2975 17.4259H51.0415V15.4259H47.2975V17.4259ZM50.0415 16.4259V18.4659H52.0415V16.4259H50.0415ZM51.0415 17.4659H47.2975V19.4659H51.0415V17.4659ZM48.2975 18.4659V16.4259H46.2975V18.4659H48.2975ZM47.4895 20.5699H51.6895V18.5699H47.4895V20.5699ZM50.6895 19.5699V21.7059H52.6895V19.5699H50.6895ZM51.6895 20.7059H44.7055V22.7059H51.6895V20.7059ZM45.7055 21.7059V13.3059H43.7055V21.7059H45.7055ZM44.7055 14.3059H51.5335V12.3059H44.7055V14.3059ZM50.5335 13.3059V15.4419H52.5335V13.3059H50.5335ZM51.5335 14.4419H47.4895V16.4419H51.5335V14.4419ZM46.4895 15.4419V19.5699H48.4895V15.4419H46.4895ZM51.9411 21.7059L51.1279 21.1239C50.9098 21.4287 50.8804 21.8298 51.0517 22.1631C51.2231 22.4964 51.5664 22.7059 51.9411 22.7059V21.7059ZM55.6851 16.4739L56.6851 16.4799C56.6877 16.0443 56.408 15.657 55.9936 15.5226C55.5792 15.3882 55.1254 15.5376 54.8719 15.8919L55.6851 16.4739ZM55.6731 18.4539L54.8554 19.0295C55.1057 19.3851 55.5572 19.5381 55.9721 19.4081C56.3871 19.2781 56.6705 18.8948 56.6731 18.4599L55.6731 18.4539ZM52.0491 13.3059V12.3059C51.6758 12.3059 51.3335 12.5139 51.1615 12.8452C50.9895 13.1766 51.0165 13.5762 51.2314 13.8815L52.0491 13.3059ZM55.2291 13.3059L56.0572 12.7453C55.8712 12.4705 55.561 12.3059 55.2291 12.3059V13.3059ZM57.3411 16.4259L57.35 17.4258C57.7184 17.4226 58.0552 17.2169 58.2265 16.8907C58.3978 16.5644 58.3758 16.1704 58.1692 15.8653L57.3411 16.4259ZM55.9851 16.4379L55.1501 15.8876C54.9468 16.1961 54.9302 16.5915 55.1068 16.916C55.2834 17.2404 55.6245 17.4411 55.994 17.4378L55.9851 16.4379ZM58.0491 13.3059V12.3059C57.7129 12.3059 57.3991 12.4749 57.2141 12.7556L58.0491 13.3059ZM61.0971 13.3059L61.909 13.8897C62.128 13.5851 62.1581 13.1835 61.987 12.8497C61.8159 12.5158 61.4723 12.3059 61.0971 12.3059V13.3059ZM57.4731 18.3459H56.4731C56.4731 18.78 56.7532 19.1645 57.1664 19.2977C57.5796 19.4308 58.0316 19.2821 58.285 18.9297L57.4731 18.3459ZM57.4731 16.3779L58.287 15.7968C58.0343 15.443 57.5821 15.2929 57.168 15.4255C56.754 15.5582 56.4731 15.9431 56.4731 16.3779H57.4731ZM61.2771 21.7059V22.7059C61.6517 22.7059 61.9948 22.4966 62.1662 22.1635C62.3377 21.8305 62.3086 21.4296 62.091 21.1248L61.2771 21.7059ZM58.0371 21.7059L57.1975 22.2491C57.3818 22.5339 57.6979 22.7059 58.0371 22.7059V21.7059ZM55.9251 18.4419L55.9159 17.4419C55.5513 17.4453 55.2173 17.6469 55.0445 17.968C54.8717 18.2892 54.8874 18.6789 55.0855 18.9851L55.9251 18.4419ZM57.2331 18.4299L58.0792 18.9629C58.2742 18.6534 58.2846 18.2621 58.1064 17.9427C57.9282 17.6232 57.5897 17.4266 57.2239 17.4299L57.2331 18.4299ZM55.1691 21.7059V22.7059C55.5126 22.7059 55.8321 22.5296 56.0152 22.2389L55.1691 21.7059ZM52.7543 22.2878L56.4983 17.0558L54.8719 15.8919L51.1279 21.1239L52.7543 22.2878ZM54.6851 16.4678L54.6731 18.4478L56.6731 18.4599L56.6851 16.4799L54.6851 16.4678ZM56.4908 17.8782L52.8668 12.7302L51.2314 13.8815L54.8554 19.0295L56.4908 17.8782ZM52.0491 14.3059H55.2291V12.3059H52.0491V14.3059ZM54.401 13.8664L56.513 16.9864L58.1692 15.8653L56.0572 12.7453L54.401 13.8664ZM57.3323 15.4259L55.9763 15.4379L55.994 17.4378L57.35 17.4258L57.3323 15.4259ZM56.8201 16.9881L58.8841 13.8561L57.2141 12.7556L55.1501 15.8876L56.8201 16.9881ZM58.0491 14.3059H61.0971V12.3059H58.0491V14.3059ZM60.2852 12.7221L56.6612 17.7621L58.285 18.9297L61.909 13.8897L60.2852 12.7221ZM58.4731 18.3459V16.3779H56.4731V18.3459H58.4731ZM56.6593 16.9589L60.4633 22.2869L62.091 21.1248L58.287 15.7968L56.6593 16.9589ZM61.2771 20.7059H58.0371V22.7059H61.2771V20.7059ZM58.8767 21.1626L56.7647 17.8986L55.0855 18.9851L57.1975 22.2491L58.8767 21.1626ZM55.9343 19.4418L57.2423 19.4298L57.2239 17.4299L55.9159 17.4419L55.9343 19.4418ZM56.387 17.8968L54.323 21.1728L56.0152 22.2389L58.0792 18.9629L56.387 17.8968ZM55.1691 20.7059H51.9411V22.7059H55.1691V20.7059ZM61.6156 21.7059H60.6156C60.6156 22.2582 61.0634 22.7059 61.6156 22.7059V21.7059ZM61.6156 13.3059V12.3059C61.0634 12.3059 60.6156 12.7536 60.6156 13.3059H61.6156ZM64.4476 13.3059H65.4476C65.4476 12.7536 64.9999 12.3059 64.4476 12.3059V13.3059ZM64.4476 21.7059V22.7059C64.9999 22.7059 65.4476 22.2582 65.4476 21.7059H64.4476ZM62.6156 21.7059V13.3059H60.6156V21.7059H62.6156ZM61.6156 14.3059H64.4476V12.3059H61.6156V14.3059ZM63.4476 13.3059V21.7059H65.4476V13.3059H63.4476ZM64.4476 20.7059H61.6156V22.7059H64.4476V20.7059ZM67.635 21.7059H66.635C66.635 22.2582 67.0827 22.7059 67.635 22.7059V21.7059ZM67.635 15.5019H68.635C68.635 14.9496 68.1872 14.5019 67.635 14.5019V15.5019ZM65.175 15.5019H64.175C64.175 16.0542 64.6227 16.5019 65.175 16.5019V15.5019ZM65.175 13.3059V12.3059C64.6227 12.3059 64.175 12.7536 64.175 13.3059H65.175ZM72.927 13.3059H73.927C73.927 12.7536 73.4792 12.3059 72.927 12.3059V13.3059ZM72.927 15.5019V16.5019C73.4792 16.5019 73.927 16.0542 73.927 15.5019H72.927ZM70.467 15.5019V14.5019C69.9147 14.5019 69.467 14.9496 69.467 15.5019H70.467ZM70.467 21.7059V22.7059C71.0192 22.7059 71.467 22.2582 71.467 21.7059H70.467ZM68.635 21.7059V15.5019H66.635V21.7059H68.635ZM67.635 14.5019H65.175V16.5019H67.635V14.5019ZM66.175 15.5019V13.3059H64.175V15.5019H66.175ZM65.175 14.3059H72.927V12.3059H65.175V14.3059ZM71.927 13.3059V15.5019H73.927V13.3059H71.927ZM72.927 14.5019H70.467V16.5019H72.927V14.5019ZM69.467 15.5019V21.7059H71.467V15.5019H69.467ZM70.467 20.7059H67.635V22.7059H70.467V20.7059Z" fill="#0B1E22" mask="url(#path-3-outside-1_1_45)"/>
</g>
</g>
<defs>
<filter id="filter0_d_1_45" x="0" y="0" width="116" height="37" filterUnits="userSpaceOnUse" color-interpolation-filters="sRGB">
<feFlood flood-opacity="0" result="BackgroundImageFix"/>
<feColorMatrix in="SourceAlpha" type="matrix" values="0 0 0 0 0 0 0 0 0 0 0 0 0 0 0 0 0 0 127 0" result="hardAlpha"/>
<feOffset dy="4"/>
<feComposite in2="hardAlpha" operator="out"/>
<feColorMatrix type="matrix" values="0 0 0 0 0.121569 0 0 0 0 0.639216 0 0 0 0 0.231373 0 0 0 1 0"/>
<feBlend mode="normal" in2="BackgroundImageFix" result="effect1_dropShadow_1_45"/>
<feBlend mode="normal" in="SourceGraphic" in2="effect1_dropShadow_1_45" result="shape"/>
</filter>
<filter id="filter1_d_1_45" x="44.7055" y="13.3058" width="28.2215" height="9.40002" filterUnits="userSpaceOnUse" color-interpolation-filters="sRGB">
<feFlood flood-opacity="0" result="BackgroundImageFix"/>
<feColorMatrix in="SourceAlpha" type="matrix" values="0 0 0 0 0 0 0 0 0 0 0 0 0 0 0 0 0 0 127 0" result="hardAlpha"/>
<feOffset dy="1"/>
<feComposite in2="hardAlpha" operator="out"/>
<feColorMatrix type="matrix" values="0 0 0 0 0.0431373 0 0 0 0 0.117647 0 0 0 0 0.133333 0 0 0 1 0"/>
<feBlend mode="normal" in2="BackgroundImageFix" result="effect1_dropShadow_1_45"/>
<feBlend mode="normal" in="SourceGraphic" in2="effect1_dropShadow_1_45" result="shape"/>
</filter>
<linearGradient id="paint0_linear_1_45" x1="58" y1="0" x2="58" y2="33" gradientUnits="userSpaceOnUse">
<stop stop-color="#5EF976"/>
<stop offset="1" stop-color="#28D44B"/>
</linearGradient>
</defs>
</svg>
