<svg width="116" height="37" viewBox="0 0 116 37" fill="none" xmlns="http://www.w3.org/2000/svg">
<g id="Button Text (Red)">
<g id="Rectangle 8" filter="url(#filter0_d_1_57)">
<rect width="116" height="33" rx="16.5" fill="url(#paint0_linear_1_57)"/>
<rect x="1" y="1" width="114" height="31" rx="15.5" stroke="#FAC4C4" stroke-width="2"/>
</g>
<g id="OPTIONS" filter="url(#filter1_d_1_57)">
<mask id="path-3-outside-1_1_57" maskUnits="userSpaceOnUse" x="27" y="11.7059" width="61" height="12" fill="black">
<rect fill="white" x="27" y="11.7059" width="61" height="12"/>
<path d="M33.3204 21.8979C32.6404 21.8979 32.0084 21.7899 31.4244 21.5739C30.8484 21.3579 30.3484 21.0539 29.9244 20.6619C29.5004 20.2619 29.1684 19.7939 28.9284 19.2579C28.6964 18.7219 28.5804 18.1379 28.5804 17.5059C28.5804 16.8659 28.6964 16.2819 28.9284 15.7539C29.1684 15.2179 29.5004 14.7539 29.9244 14.3619C30.3484 13.9619 30.8484 13.6539 31.4244 13.4379C32.0084 13.2219 32.6404 13.1139 33.3204 13.1139C34.0084 13.1139 34.6404 13.2219 35.2164 13.4379C35.7924 13.6539 36.2924 13.9619 36.7164 14.3619C37.1404 14.7539 37.4684 15.2179 37.7004 15.7539C37.9404 16.2819 38.0604 16.8659 38.0604 17.5059C38.0604 18.1379 37.9404 18.7219 37.7004 19.2579C37.4684 19.7939 37.1404 20.2619 36.7164 20.6619C36.2924 21.0539 35.7924 21.3579 35.2164 21.5739C34.6404 21.7899 34.0084 21.8979 33.3204 21.8979ZM33.3204 19.6059C33.5844 19.6059 33.8284 19.5579 34.0524 19.4619C34.2844 19.3659 34.4844 19.2299 34.6524 19.0539C34.8284 18.8699 34.9644 18.6499 35.0604 18.3939C35.1564 18.1299 35.2044 17.8339 35.2044 17.5059C35.2044 17.1779 35.1564 16.8859 35.0604 16.6299C34.9644 16.3659 34.8284 16.1459 34.6524 15.9699C34.4844 15.7859 34.2844 15.6459 34.0524 15.5499C33.8284 15.4539 33.5844 15.4059 33.3204 15.4059C33.0564 15.4059 32.8084 15.4539 32.5764 15.5499C32.3524 15.6459 32.1524 15.7859 31.9764 15.9699C31.8084 16.1459 31.6764 16.3659 31.5804 16.6299C31.4844 16.8859 31.4364 17.1779 31.4364 17.5059C31.4364 17.8339 31.4844 18.1299 31.5804 18.3939C31.6764 18.6499 31.8084 18.8699 31.9764 19.0539C32.1524 19.2299 32.3524 19.3659 32.5764 19.4619C32.8084 19.5579 33.0564 19.6059 33.3204 19.6059ZM39.0883 21.7059V13.3059H43.1323C43.9163 13.3059 44.5923 13.4339 45.1603 13.6899C45.7363 13.9459 46.1803 14.3139 46.4923 14.7939C46.8043 15.2659 46.9603 15.8259 46.9603 16.4739C46.9603 17.1219 46.8043 17.6819 46.4923 18.1539C46.1803 18.6259 45.7363 18.9939 45.1603 19.2579C44.5923 19.5139 43.9163 19.6419 43.1323 19.6419H40.6603L41.9203 18.4299V21.7059H39.0883ZM41.9203 18.7419L40.6603 17.4579H42.9523C43.3443 17.4579 43.6323 17.3699 43.8163 17.1939C44.0083 17.0179 44.1043 16.7779 44.1043 16.4739C44.1043 16.1699 44.0083 15.9299 43.8163 15.7539C43.6323 15.5779 43.3443 15.4899 42.9523 15.4899H40.6603L41.9203 14.2059V18.7419ZM49.5256 21.7059V15.5019H47.0656V13.3059H54.8176V15.5019H52.3576V21.7059H49.5256ZM55.5531 21.7059V13.3059H58.3851V21.7059H55.5531ZM64.1525 21.8979C63.4725 21.8979 62.8405 21.7899 62.2565 21.5739C61.6805 21.3579 61.1805 21.0539 60.7565 20.6619C60.3325 20.2619 60.0005 19.7939 59.7605 19.2579C59.5285 18.7219 59.4125 18.1379 59.4125 17.5059C59.4125 16.8659 59.5285 16.2819 59.7605 15.7539C60.0005 15.2179 60.3325 14.7539 60.7565 14.3619C61.1805 13.9619 61.6805 13.6539 62.2565 13.4379C62.8405 13.2219 63.4725 13.1139 64.1525 13.1139C64.8405 13.1139 65.4725 13.2219 66.0485 13.4379C66.6245 13.6539 67.1245 13.9619 67.5485 14.3619C67.9725 14.7539 68.3005 15.2179 68.5325 15.7539C68.7725 16.2819 68.8925 16.8659 68.8925 17.5059C68.8925 18.1379 68.7725 18.7219 68.5325 19.2579C68.3005 19.7939 67.9725 20.2619 67.5485 20.6619C67.1245 21.0539 66.6245 21.3579 66.0485 21.5739C65.4725 21.7899 64.8405 21.8979 64.1525 21.8979ZM64.1525 19.6059C64.4165 19.6059 64.6605 19.5579 64.8845 19.4619C65.1165 19.3659 65.3165 19.2299 65.4845 19.0539C65.6605 18.8699 65.7965 18.6499 65.8925 18.3939C65.9885 18.1299 66.0365 17.8339 66.0365 17.5059C66.0365 17.1779 65.9885 16.8859 65.8925 16.6299C65.7965 16.3659 65.6605 16.1459 65.4845 15.9699C65.3165 15.7859 65.1165 15.6459 64.8845 15.5499C64.6605 15.4539 64.4165 15.4059 64.1525 15.4059C63.8885 15.4059 63.6405 15.4539 63.4085 15.5499C63.1845 15.6459 62.9845 15.7859 62.8085 15.9699C62.6405 16.1459 62.5085 16.3659 62.4125 16.6299C62.3165 16.8859 62.2685 17.1779 62.2685 17.5059C62.2685 17.8339 62.3165 18.1299 62.4125 18.3939C62.5085 18.6499 62.6405 18.8699 62.8085 19.0539C62.9845 19.2299 63.1845 19.3659 63.4085 19.4619C63.6405 19.5579 63.8885 19.6059 64.1525 19.6059ZM69.9203 21.7059V13.3059H72.2483L76.5203 18.4179H75.4403V13.3059H78.2003V21.7059H75.8723L71.6003 16.5939H72.6803V21.7059H69.9203ZM82.6969 21.8979C81.9929 21.8979 81.3129 21.8179 80.6569 21.6579C80.0009 21.4979 79.4609 21.2899 79.0369 21.0339L79.9489 18.9699C80.3489 19.2019 80.7929 19.3899 81.2809 19.5339C81.7769 19.6699 82.2569 19.7379 82.7209 19.7379C82.9929 19.7379 83.2049 19.7219 83.3569 19.6899C83.5169 19.6499 83.6329 19.5979 83.7049 19.5339C83.7769 19.4619 83.8129 19.3779 83.8129 19.2819C83.8129 19.1299 83.7289 19.0099 83.5609 18.9219C83.3929 18.8339 83.1689 18.7619 82.8889 18.7059C82.6169 18.6419 82.3169 18.5779 81.9889 18.5139C81.6609 18.4419 81.3289 18.3499 80.9929 18.2379C80.6649 18.1259 80.3609 17.9779 80.0809 17.7939C79.8089 17.6099 79.5889 17.3699 79.4209 17.0739C79.2529 16.7699 79.1689 16.3939 79.1689 15.9459C79.1689 15.4259 79.3129 14.9539 79.6009 14.5299C79.8969 14.0979 80.3329 13.7539 80.9089 13.4979C81.4929 13.2419 82.2169 13.1139 83.0809 13.1139C83.6489 13.1139 84.2089 13.1739 84.7609 13.2939C85.3129 13.4139 85.8089 13.5979 86.2489 13.8459L85.3969 15.8979C84.9809 15.6899 84.5769 15.5339 84.1849 15.4299C83.8009 15.3259 83.4249 15.2739 83.0569 15.2739C82.7849 15.2739 82.5689 15.2979 82.4089 15.3459C82.2489 15.3939 82.1329 15.4579 82.0609 15.5379C81.9969 15.6179 81.9649 15.7059 81.9649 15.8019C81.9649 15.9459 82.0489 16.0619 82.2169 16.1499C82.3849 16.2299 82.6049 16.2979 82.8769 16.3539C83.1569 16.4099 83.4609 16.4699 83.7889 16.5339C84.1249 16.5979 84.4569 16.6859 84.7849 16.7979C85.1129 16.9099 85.4129 17.0579 85.6849 17.2419C85.9649 17.4259 86.1889 17.6659 86.3569 17.9619C86.5249 18.2579 86.6089 18.6259 86.6089 19.0659C86.6089 19.5779 86.4609 20.0499 86.1649 20.4819C85.8769 20.9059 85.4449 21.2499 84.8689 21.5139C84.2929 21.7699 83.5689 21.8979 82.6969 21.8979Z"/>
</mask>
<path d="M33.3204 21.8979C32.6404 21.8979 32.0084 21.7899 31.4244 21.5739C30.8484 21.3579 30.3484 21.0539 29.9244 20.6619C29.5004 20.2619 29.1684 19.7939 28.9284 19.2579C28.6964 18.7219 28.5804 18.1379 28.5804 17.5059C28.5804 16.8659 28.6964 16.2819 28.9284 15.7539C29.1684 15.2179 29.5004 14.7539 29.9244 14.3619C30.3484 13.9619 30.8484 13.6539 31.4244 13.4379C32.0084 13.2219 32.6404 13.1139 33.3204 13.1139C34.0084 13.1139 34.6404 13.2219 35.2164 13.4379C35.7924 13.6539 36.2924 13.9619 36.7164 14.3619C37.1404 14.7539 37.4684 15.2179 37.7004 15.7539C37.9404 16.2819 38.0604 16.8659 38.0604 17.5059C38.0604 18.1379 37.9404 18.7219 37.7004 19.2579C37.4684 19.7939 37.1404 20.2619 36.7164 20.6619C36.2924 21.0539 35.7924 21.3579 35.2164 21.5739C34.6404 21.7899 34.0084 21.8979 33.3204 21.8979ZM33.3204 19.6059C33.5844 19.6059 33.8284 19.5579 34.0524 19.4619C34.2844 19.3659 34.4844 19.2299 34.6524 19.0539C34.8284 18.8699 34.9644 18.6499 35.0604 18.3939C35.1564 18.1299 35.2044 17.8339 35.2044 17.5059C35.2044 17.1779 35.1564 16.8859 35.0604 16.6299C34.9644 16.3659 34.8284 16.1459 34.6524 15.9699C34.4844 15.7859 34.2844 15.6459 34.0524 15.5499C33.8284 15.4539 33.5844 15.4059 33.3204 15.4059C33.0564 15.4059 32.8084 15.4539 32.5764 15.5499C32.3524 15.6459 32.1524 15.7859 31.9764 15.9699C31.8084 16.1459 31.6764 16.3659 31.5804 16.6299C31.4844 16.8859 31.4364 17.1779 31.4364 17.5059C31.4364 17.8339 31.4844 18.1299 31.5804 18.3939C31.6764 18.6499 31.8084 18.8699 31.9764 19.0539C32.1524 19.2299 32.3524 19.3659 32.5764 19.4619C32.8084 19.5579 33.0564 19.6059 33.3204 19.6059ZM39.0883 21.7059V13.3059H43.1323C43.9163 13.3059 44.5923 13.4339 45.1603 13.6899C45.7363 13.9459 46.1803 14.3139 46.4923 14.7939C46.8043 15.2659 46.9603 15.8259 46.9603 16.4739C46.9603 17.1219 46.8043 17.6819 46.4923 18.1539C46.1803 18.6259 45.7363 18.9939 45.1603 19.2579C44.5923 19.5139 43.9163 19.6419 43.1323 19.6419H40.6603L41.9203 18.4299V21.7059H39.0883ZM41.9203 18.7419L40.6603 17.4579H42.9523C43.3443 17.4579 43.6323 17.3699 43.8163 17.1939C44.0083 17.0179 44.1043 16.7779 44.1043 16.4739C44.1043 16.1699 44.0083 15.9299 43.8163 15.7539C43.6323 15.5779 43.3443 15.4899 42.9523 15.4899H40.6603L41.9203 14.2059V18.7419ZM49.5256 21.7059V15.5019H47.0656V13.3059H54.8176V15.5019H52.3576V21.7059H49.5256ZM55.5531 21.7059V13.3059H58.3851V21.7059H55.5531ZM64.1525 21.8979C63.4725 21.8979 62.8405 21.7899 62.2565 21.5739C61.6805 21.3579 61.1805 21.0539 60.7565 20.6619C60.3325 20.2619 60.0005 19.7939 59.7605 19.2579C59.5285 18.7219 59.4125 18.1379 59.4125 17.5059C59.4125 16.8659 59.5285 16.2819 59.7605 15.7539C60.0005 15.2179 60.3325 14.7539 60.7565 14.3619C61.1805 13.9619 61.6805 13.6539 62.2565 13.4379C62.8405 13.2219 63.4725 13.1139 64.1525 13.1139C64.8405 13.1139 65.4725 13.2219 66.0485 13.4379C66.6245 13.6539 67.1245 13.9619 67.5485 14.3619C67.9725 14.7539 68.3005 15.2179 68.5325 15.7539C68.7725 16.2819 68.8925 16.8659 68.8925 17.5059C68.8925 18.1379 68.7725 18.7219 68.5325 19.2579C68.3005 19.7939 67.9725 20.2619 67.5485 20.6619C67.1245 21.0539 66.6245 21.3579 66.0485 21.5739C65.4725 21.7899 64.8405 21.8979 64.1525 21.8979ZM64.1525 19.6059C64.4165 19.6059 64.6605 19.5579 64.8845 19.4619C65.1165 19.3659 65.3165 19.2299 65.4845 19.0539C65.6605 18.8699 65.7965 18.6499 65.8925 18.3939C65.9885 18.1299 66.0365 17.8339 66.0365 17.5059C66.0365 17.1779 65.9885 16.8859 65.8925 16.6299C65.7965 16.3659 65.6605 16.1459 65.4845 15.9699C65.3165 15.7859 65.1165 15.6459 64.8845 15.5499C64.6605 15.4539 64.4165 15.4059 64.1525 15.4059C63.8885 15.4059 63.6405 15.4539 63.4085 15.5499C63.1845 15.6459 62.9845 15.7859 62.8085 15.9699C62.6405 16.1459 62.5085 16.3659 62.4125 16.6299C62.3165 16.8859 62.2685 17.1779 62.2685 17.5059C62.2685 17.8339 62.3165 18.1299 62.4125 18.3939C62.5085 18.6499 62.6405 18.8699 62.8085 19.0539C62.9845 19.2299 63.1845 19.3659 63.4085 19.4619C63.6405 19.5579 63.8885 19.6059 64.1525 19.6059ZM69.9203 21.7059V13.3059H72.2483L76.5203 18.4179H75.4403V13.3059H78.2003V21.7059H75.8723L71.6003 16.5939H72.6803V21.7059H69.9203ZM82.6969 21.8979C81.9929 21.8979 81.3129 21.8179 80.6569 21.6579C80.0009 21.4979 79.4609 21.2899 79.0369 21.0339L79.9489 18.9699C80.3489 19.2019 80.7929 19.3899 81.2809 19.5339C81.7769 19.6699 82.2569 19.7379 82.7209 19.7379C82.9929 19.7379 83.2049 19.7219 83.3569 19.6899C83.5169 19.6499 83.6329 19.5979 83.7049 19.5339C83.7769 19.4619 83.8129 19.3779 83.8129 19.2819C83.8129 19.1299 83.7289 19.0099 83.5609 18.9219C83.3929 18.8339 83.1689 18.7619 82.8889 18.7059C82.6169 18.6419 82.3169 18.5779 81.9889 18.5139C81.6609 18.4419 81.3289 18.3499 80.9929 18.2379C80.6649 18.1259 80.3609 17.9779 80.0809 17.7939C79.8089 17.6099 79.5889 17.3699 79.4209 17.0739C79.2529 16.7699 79.1689 16.3939 79.1689 15.9459C79.1689 15.4259 79.3129 14.9539 79.6009 14.5299C79.8969 14.0979 80.3329 13.7539 80.9089 13.4979C81.4929 13.2419 82.2169 13.1139 83.0809 13.1139C83.6489 13.1139 84.2089 13.1739 84.7609 13.2939C85.3129 13.4139 85.8089 13.5979 86.2489 13.8459L85.3969 15.8979C84.9809 15.6899 84.5769 15.5339 84.1849 15.4299C83.8009 15.3259 83.4249 15.2739 83.0569 15.2739C82.7849 15.2739 82.5689 15.2979 82.4089 15.3459C82.2489 15.3939 82.1329 15.4579 82.0609 15.5379C81.9969 15.6179 81.9649 15.7059 81.9649 15.8019C81.9649 15.9459 82.0489 16.0619 82.2169 16.1499C82.3849 16.2299 82.6049 16.2979 82.8769 16.3539C83.1569 16.4099 83.4609 16.4699 83.7889 16.5339C84.1249 16.5979 84.4569 16.6859 84.7849 16.7979C85.1129 16.9099 85.4129 17.0579 85.6849 17.2419C85.9649 17.4259 86.1889 17.6659 86.3569 17.9619C86.5249 18.2579 86.6089 18.6259 86.6089 19.0659C86.6089 19.5779 86.4609 20.0499 86.1649 20.4819C85.8769 20.9059 85.4449 21.2499 84.8689 21.5139C84.2929 21.7699 83.5689 21.8979 82.6969 21.8979Z" fill="white"/>
<path d="M31.4244 21.5739L31.0733 22.5102L31.0775 22.5118L31.4244 21.5739ZM29.9244 20.6619L29.2382 21.3893L29.2456 21.3961L29.9244 20.6619ZM28.9284 19.2579L28.0106 19.6551L28.0157 19.6665L28.9284 19.2579ZM28.9284 15.7539L28.0157 15.3452L28.0129 15.3516L28.9284 15.7539ZM29.9244 14.3619L30.6033 15.0962L30.6106 15.0893L29.9244 14.3619ZM31.4244 13.4379L31.0775 12.5L31.0733 12.5015L31.4244 13.4379ZM35.2164 13.4379L34.8653 14.3742L34.8653 14.3742L35.2164 13.4379ZM36.7164 14.3619L36.0302 15.0893L36.0376 15.0961L36.7164 14.3619ZM37.7004 15.7539L36.7827 16.1511C36.7851 16.1566 36.7876 16.1622 36.7901 16.1677L37.7004 15.7539ZM37.7004 19.2579L36.7877 18.8492L36.7827 18.8606L37.7004 19.2579ZM36.7164 20.6619L37.3953 21.3962L37.4026 21.3893L36.7164 20.6619ZM35.2164 21.5739L34.8653 20.6375H34.8653L35.2164 21.5739ZM34.0524 19.4619L33.67 18.5378L33.6585 18.5427L34.0524 19.4619ZM34.6524 19.0539L33.9298 18.3626L33.9291 18.3634L34.6524 19.0539ZM35.0604 18.3939L35.9968 18.745L36.0002 18.7356L35.0604 18.3939ZM35.0604 16.6299L34.1206 16.9716L34.1241 16.981L35.0604 16.6299ZM34.6524 15.9699L33.9139 16.6441C33.9241 16.6553 33.9346 16.6663 33.9453 16.677L34.6524 15.9699ZM34.0524 15.5499L33.6585 16.4691L33.6701 16.4739L34.0524 15.5499ZM32.5764 15.5499L32.194 14.6258L32.1825 14.6307L32.5764 15.5499ZM31.9764 15.9699L31.2538 15.2786L31.2531 15.2794L31.9764 15.9699ZM31.5804 16.6299L32.5168 16.981L32.5202 16.9716L31.5804 16.6299ZM31.5804 18.3939L30.6406 18.7356L30.6441 18.745L31.5804 18.3939ZM31.9764 19.0539L31.2379 19.7281C31.2481 19.7393 31.2586 19.7503 31.2693 19.761L31.9764 19.0539ZM32.5764 19.4619L32.1825 20.3811L32.1941 20.3859L32.5764 19.4619ZM33.3204 20.8979C32.7479 20.8979 32.2345 20.8073 31.7713 20.636L31.0775 22.5118C31.7824 22.7725 32.5329 22.8979 33.3204 22.8979V20.8979ZM31.7755 20.6375C31.3128 20.464 30.9261 20.226 30.6033 19.9276L29.2456 21.3961C29.7708 21.8817 30.384 22.2517 31.0733 22.5102L31.7755 20.6375ZM30.6106 19.9345C30.2831 19.6255 30.0277 19.266 29.8411 18.8492L28.0157 19.6665C28.3091 20.3217 28.7177 20.8983 29.2382 21.3893L30.6106 19.9345ZM29.8461 18.8606C29.6727 18.46 29.5804 18.0126 29.5804 17.5059H27.5804C27.5804 18.2632 27.7201 18.9837 28.0107 19.6551L29.8461 18.8606ZM29.5804 17.5059C29.5804 16.9891 29.6735 16.5441 29.8439 16.1561L28.0129 15.3516C27.7194 16.0197 27.5804 16.7426 27.5804 17.5059H29.5804ZM29.8411 16.1625C30.0269 15.7476 30.2801 15.3949 30.6033 15.0961L29.2456 13.6276C28.7207 14.1128 28.3099 14.6882 28.0157 15.3452L29.8411 16.1625ZM30.6106 15.0893C30.9326 14.7855 31.317 14.5461 31.7755 14.3742L31.0733 12.5015C30.3798 12.7616 29.7642 13.1383 29.2382 13.6345L30.6106 15.0893ZM31.7713 14.3758C32.2345 14.2045 32.7479 14.1139 33.3204 14.1139V12.1139C32.5329 12.1139 31.7824 12.2393 31.0775 12.5L31.7713 14.3758ZM33.3204 14.1139C33.9026 14.1139 34.4141 14.205 34.8653 14.3742L35.5675 12.5015C34.8668 12.2388 34.1142 12.1139 33.3204 12.1139V14.1139ZM34.8653 14.3742C35.3238 14.5461 35.7082 14.7855 36.0302 15.0893L37.4026 13.6345C36.8766 13.1383 36.261 12.7616 35.5675 12.5015L34.8653 14.3742ZM36.0376 15.0961C36.3582 15.3925 36.6053 15.7413 36.7827 16.1511L38.6181 15.3566C38.3315 14.6944 37.9227 14.1152 37.3953 13.6276L36.0376 15.0961ZM36.7901 16.1677C36.9651 16.5528 37.0604 16.9937 37.0604 17.5059H39.0604C39.0604 16.738 38.9157 16.0109 38.6108 15.3401L36.7901 16.1677ZM37.0604 17.5059C37.0604 18.0079 36.9659 18.4513 36.7877 18.8492L38.6131 19.6665C38.915 18.9924 39.0604 18.2678 39.0604 17.5059H37.0604ZM36.7827 18.8606C36.6045 19.2723 36.3552 19.6279 36.0302 19.9345L37.4026 21.3893C37.9256 20.8959 38.3323 20.3155 38.6181 19.6551L36.7827 18.8606ZM36.0376 19.9276C35.7148 20.226 35.328 20.464 34.8653 20.6375L35.5675 22.5102C36.2568 22.2517 36.8701 21.8817 37.3953 21.3961L36.0376 19.9276ZM34.8653 20.6375C34.4141 20.8068 33.9026 20.8979 33.3204 20.8979V22.8979C34.1142 22.8979 34.8668 22.773 35.5675 22.5102L34.8653 20.6375ZM33.3204 20.6059C33.7085 20.6059 34.0878 20.5347 34.4463 20.381L33.6585 18.5427C33.569 18.5811 33.4604 18.6059 33.3204 18.6059V20.6059ZM34.4348 20.3859C34.7913 20.2384 35.1085 20.0243 35.3758 19.7443L33.9291 18.3634C33.8603 18.4354 33.7776 18.4934 33.6701 18.5379L34.4348 20.3859ZM35.3751 19.7451C35.6513 19.4563 35.8568 19.1182 35.9968 18.745L34.1241 18.0427C34.072 18.1816 34.0055 18.2834 33.9298 18.3626L35.3751 19.7451ZM36.0002 18.7356C36.1421 18.3454 36.2044 17.9313 36.2044 17.5059H34.2044C34.2044 17.7365 34.1707 17.9143 34.1206 18.0521L36.0002 18.7356ZM36.2044 17.5059C36.2044 17.0813 36.1423 16.667 35.9968 16.2787L34.1241 16.981C34.1705 17.1048 34.2044 17.2745 34.2044 17.5059H36.2044ZM36.0002 16.2881C35.8607 15.9045 35.6514 15.5546 35.3595 15.2628L33.9453 16.677C34.0054 16.7371 34.0681 16.8272 34.1206 16.9716L36.0002 16.2881ZM35.3909 15.2956C35.1232 15.0024 34.8013 14.7775 34.4348 14.6259L33.6701 16.4739C33.7676 16.5142 33.8457 16.5694 33.9139 16.6441L35.3909 15.2956ZM34.4463 14.6307C34.0878 14.4771 33.7085 14.4059 33.3204 14.4059V16.4059C33.4604 16.4059 33.569 16.4307 33.6585 16.469L34.4463 14.6307ZM33.3204 14.4059C32.9321 14.4059 32.5535 14.4771 32.1941 14.6259L32.9588 16.4739C33.0634 16.4306 33.1808 16.4059 33.3204 16.4059V14.4059ZM32.1825 14.6307C31.8292 14.7822 31.5186 15.0018 31.2538 15.2786L32.6991 16.6611C32.7862 16.57 32.8757 16.5096 32.9703 16.469L32.1825 14.6307ZM31.2531 15.2794C30.9759 15.5697 30.7766 15.9141 30.6406 16.2881L32.5202 16.9716C32.5762 16.8176 32.6409 16.722 32.6998 16.6603L31.2531 15.2794ZM30.6441 16.2787C30.4985 16.667 30.4364 17.0813 30.4364 17.5059H32.4364C32.4364 17.2745 32.4703 17.1048 32.5168 16.981L30.6441 16.2787ZM30.4364 17.5059C30.4364 17.9313 30.4987 18.3454 30.6406 18.7356L32.5202 18.0521C32.4701 17.9143 32.4364 17.7365 32.4364 17.5059H30.4364ZM30.6441 18.745C30.7805 19.1087 30.976 19.4412 31.2379 19.7281L32.7149 18.3796C32.6409 18.2985 32.5724 18.1911 32.5168 18.0427L30.6441 18.745ZM31.2693 19.761C31.5333 20.025 31.839 20.2338 32.1825 20.381L32.9703 18.5427C32.8658 18.4979 32.7715 18.4348 32.6835 18.3468L31.2693 19.761ZM32.1941 20.3859C32.5535 20.5346 32.9321 20.6059 33.3204 20.6059V18.6059C33.1808 18.6059 33.0634 18.5811 32.9588 18.5379L32.1941 20.3859ZM39.0883 21.7059H38.0883C38.0883 22.2582 38.536 22.7059 39.0883 22.7059V21.7059ZM39.0883 13.3059V12.3059C38.536 12.3059 38.0883 12.7536 38.0883 13.3059H39.0883ZM45.1603 13.6899L44.7494 14.6016L44.7542 14.6037L45.1603 13.6899ZM46.4923 14.7939L45.6538 15.3389L45.6581 15.3453L46.4923 14.7939ZM46.4923 18.1539L45.6581 17.6024L46.4923 18.1539ZM45.1603 19.2579L45.5712 20.1696L45.577 20.1669L45.1603 19.2579ZM40.6603 19.6419L39.9671 18.9212C39.673 19.204 39.5803 19.6371 39.7327 20.0156C39.8852 20.394 40.2523 20.6419 40.6603 20.6419V19.6419ZM41.9203 18.4299H42.9203C42.9203 18.0289 42.6808 17.6668 42.3119 17.5098C41.943 17.3527 41.516 17.4312 41.2271 17.7092L41.9203 18.4299ZM41.9203 21.7059V22.7059C42.4726 22.7059 42.9203 22.2582 42.9203 21.7059H41.9203ZM41.9203 18.7419L41.2066 19.4423C41.491 19.7322 41.9226 19.8212 42.2986 19.6675C42.6746 19.5139 42.9203 19.1481 42.9203 18.7419H41.9203ZM40.6603 17.4579V16.4579C40.2576 16.4579 39.8941 16.6995 39.7382 17.0708C39.5824 17.4422 39.6645 17.8708 39.9466 18.1583L40.6603 17.4579ZM43.8163 17.1939L43.1406 16.4567C43.1354 16.4615 43.1302 16.4663 43.1251 16.4712L43.8163 17.1939ZM43.8163 15.7539L43.1251 16.4765C43.1302 16.4814 43.1354 16.4862 43.1406 16.491L43.8163 15.7539ZM40.6603 15.4899L39.9466 14.7895C39.6645 15.0769 39.5824 15.5056 39.7382 15.8769C39.8941 16.2483 40.2576 16.4899 40.6603 16.4899V15.4899ZM41.9203 14.2059H42.9203C42.9203 13.7997 42.6746 13.4339 42.2986 13.2802C41.9226 13.1265 41.491 13.2156 41.2066 13.5055L41.9203 14.2059ZM40.0883 21.7059V13.3059H38.0883V21.7059H40.0883ZM39.0883 14.3059H43.1323V12.3059H39.0883V14.3059ZM43.1323 14.3059C43.8101 14.3059 44.3394 14.4168 44.7494 14.6016L45.5712 12.7782C44.8452 12.451 44.0225 12.3059 43.1323 12.3059V14.3059ZM44.7542 14.6037C45.172 14.7894 45.4578 15.0372 45.6539 15.3389L47.3307 14.2489C46.9028 13.5905 46.3006 13.1024 45.5664 12.7761L44.7542 14.6037ZM45.6581 15.3453C45.8468 15.6309 45.9603 15.9927 45.9603 16.4739H47.9603C47.9603 15.6591 47.7617 14.9009 47.3265 14.2424L45.6581 15.3453ZM45.9603 16.4739C45.9603 16.9551 45.8468 17.3169 45.6581 17.6024L47.3265 18.7053C47.7617 18.0469 47.9603 17.2887 47.9603 16.4739H45.9603ZM45.6581 17.6024C45.4611 17.9004 45.1707 18.1531 44.7436 18.3488L45.577 20.1669C46.3019 19.8347 46.8995 19.3514 47.3265 18.7053L45.6581 17.6024ZM44.7494 18.3462C44.3394 18.531 43.8101 18.6419 43.1323 18.6419V20.6419C44.0225 20.6419 44.8452 20.4968 45.5712 20.1696L44.7494 18.3462ZM43.1323 18.6419H40.6603V20.6419H43.1323V18.6419ZM41.3535 20.3626L42.6135 19.1506L41.2271 17.7092L39.9671 18.9212L41.3535 20.3626ZM40.9203 18.4299V21.7059H42.9203V18.4299H40.9203ZM41.9203 20.7059H39.0883V22.7059H41.9203V20.7059ZM42.634 18.0415L41.374 16.7575L39.9466 18.1583L41.2066 19.4423L42.634 18.0415ZM40.6603 18.4579H42.9523V16.4579H40.6603V18.4579ZM42.9523 18.4579C43.4669 18.4579 44.0586 18.3459 44.5075 17.9165L43.1251 16.4712C43.1649 16.4332 43.1918 16.4289 43.1701 16.4355C43.1444 16.4434 43.0774 16.4579 42.9523 16.4579V18.4579ZM44.492 17.931C44.9257 17.5335 45.1043 17.0069 45.1043 16.4739H43.1043C43.1043 16.5207 43.097 16.5274 43.1038 16.5105C43.1071 16.5023 43.1124 16.4917 43.1201 16.4807C43.1278 16.4696 43.1353 16.4616 43.1406 16.4567L44.492 17.931ZM45.1043 16.4739C45.1043 15.9409 44.9257 15.4142 44.492 15.0167L43.1406 16.491C43.1353 16.4862 43.1278 16.4781 43.1201 16.4671C43.1124 16.456 43.1071 16.4455 43.1038 16.4373C43.097 16.4203 43.1043 16.4271 43.1043 16.4739H45.1043ZM44.5075 15.0312C44.0586 14.6018 43.4669 14.4899 42.9523 14.4899V16.4899C43.0774 16.4899 43.1444 16.5044 43.1701 16.5122C43.1918 16.5189 43.1649 16.5146 43.1251 16.4765L44.5075 15.0312ZM42.9523 14.4899H40.6603V16.4899H42.9523V14.4899ZM41.374 16.1903L42.634 14.9063L41.2066 13.5055L39.9466 14.7895L41.374 16.1903ZM40.9203 14.2059V18.7419H42.9203V14.2059H40.9203ZM49.5256 21.7059H48.5256C48.5256 22.2582 48.9733 22.7059 49.5256 22.7059V21.7059ZM49.5256 15.5019H50.5256C50.5256 14.9496 50.0779 14.5019 49.5256 14.5019V15.5019ZM47.0656 15.5019H46.0656C46.0656 16.0542 46.5133 16.5019 47.0656 16.5019V15.5019ZM47.0656 13.3059V12.3059C46.5133 12.3059 46.0656 12.7536 46.0656 13.3059H47.0656ZM54.8176 13.3059H55.8176C55.8176 12.7536 55.3699 12.3059 54.8176 12.3059V13.3059ZM54.8176 15.5019V16.5019C55.3699 16.5019 55.8176 16.0542 55.8176 15.5019H54.8176ZM52.3576 15.5019V14.5019C51.8053 14.5019 51.3576 14.9496 51.3576 15.5019H52.3576ZM52.3576 21.7059V22.7059C52.9099 22.7059 53.3576 22.2582 53.3576 21.7059H52.3576ZM50.5256 21.7059V15.5019H48.5256V21.7059H50.5256ZM49.5256 14.5019H47.0656V16.5019H49.5256V14.5019ZM48.0656 15.5019V13.3059H46.0656V15.5019H48.0656ZM47.0656 14.3059H54.8176V12.3059H47.0656V14.3059ZM53.8176 13.3059V15.5019H55.8176V13.3059H53.8176ZM54.8176 14.5019H52.3576V16.5019H54.8176V14.5019ZM51.3576 15.5019V21.7059H53.3576V15.5019H51.3576ZM52.3576 20.7059H49.5256V22.7059H52.3576V20.7059ZM55.5531 21.7059H54.5531C54.5531 22.2582 55.0009 22.7059 55.5531 22.7059V21.7059ZM55.5531 13.3059V12.3059C55.0009 12.3059 54.5531 12.7536 54.5531 13.3059H55.5531ZM58.3851 13.3059H59.3851C59.3851 12.7536 58.9374 12.3059 58.3851 12.3059V13.3059ZM58.3851 21.7059V22.7059C58.9374 22.7059 59.3851 22.2582 59.3851 21.7059H58.3851ZM56.5531 21.7059V13.3059H54.5531V21.7059H56.5531ZM55.5531 14.3059H58.3851V12.3059H55.5531V14.3059ZM57.3851 13.3059V21.7059H59.3851V13.3059H57.3851ZM58.3851 20.7059H55.5531V22.7059H58.3851V20.7059ZM62.2565 21.5739L61.9053 22.5102L61.9096 22.5118L62.2565 21.5739ZM60.7565 20.6619L60.0702 21.3893L60.0776 21.3961L60.7565 20.6619ZM59.7605 19.2579L58.8427 19.6551L58.8478 19.6665L59.7605 19.2579ZM59.7605 15.7539L58.8477 15.3452L58.8449 15.3516L59.7605 15.7539ZM60.7565 14.3619L61.4353 15.0962L61.4427 15.0893L60.7565 14.3619ZM62.2565 13.4379L61.9096 12.5L61.9053 12.5015L62.2565 13.4379ZM66.0485 13.4379L65.6973 14.3742V14.3742L66.0485 13.4379ZM67.5485 14.3619L66.8622 15.0893L66.8696 15.0961L67.5485 14.3619ZM68.5325 15.7539L67.6147 16.1511C67.6171 16.1566 67.6196 16.1622 67.6221 16.1677L68.5325 15.7539ZM68.5325 19.2579L67.6197 18.8492L67.6147 18.8606L68.5325 19.2579ZM67.5485 20.6619L68.2273 21.3962L68.2347 21.3893L67.5485 20.6619ZM66.0485 21.5739L65.6973 20.6375L66.0485 21.5739ZM64.8845 19.4619L64.5021 18.5378L64.4905 18.5427L64.8845 19.4619ZM65.4845 19.0539L64.7618 18.3626L64.7611 18.3634L65.4845 19.0539ZM65.8925 18.3939L66.8288 18.745L66.8322 18.7356L65.8925 18.3939ZM65.8925 16.6299L64.9526 16.9716L64.9561 16.981L65.8925 16.6299ZM65.4845 15.9699L64.746 16.6441C64.7562 16.6553 64.7666 16.6663 64.7773 16.677L65.4845 15.9699ZM64.8845 15.5499L64.4905 16.4691L64.5021 16.4739L64.8845 15.5499ZM63.4085 15.5499L63.0261 14.6258L63.0145 14.6307L63.4085 15.5499ZM62.8085 15.9699L62.0858 15.2786L62.0851 15.2794L62.8085 15.9699ZM62.4125 16.6299L63.3488 16.981L63.3522 16.9716L62.4125 16.6299ZM62.4125 18.3939L61.4726 18.7356L61.4761 18.745L62.4125 18.3939ZM62.8085 19.0539L62.07 19.7281C62.0802 19.7393 62.0906 19.7503 62.1013 19.761L62.8085 19.0539ZM63.4085 19.4619L63.0145 20.3811L63.0261 20.3859L63.4085 19.4619ZM64.1525 20.8979C63.5799 20.8979 63.0665 20.8073 62.6033 20.636L61.9096 22.5118C62.6144 22.7725 63.365 22.8979 64.1525 22.8979V20.8979ZM62.6076 20.6375C62.1449 20.464 61.7581 20.226 61.4353 19.9276L60.0776 21.3961C60.6028 21.8817 61.216 22.2517 61.9053 22.5102L62.6076 20.6375ZM61.4427 19.9345C61.1151 19.6255 60.8598 19.266 60.6731 18.8492L58.8478 19.6665C59.1411 20.3217 59.5498 20.8983 60.0702 21.3893L61.4427 19.9345ZM60.6782 18.8606C60.5048 18.46 60.4125 18.0126 60.4125 17.5059H58.4125C58.4125 18.2632 58.5521 18.9837 58.8427 19.6551L60.6782 18.8606ZM60.4125 17.5059C60.4125 16.9891 60.5055 16.5441 60.676 16.1561L58.8449 15.3516C58.5514 16.0197 58.4125 16.7426 58.4125 17.5059H60.4125ZM60.6731 16.1625C60.8589 15.7476 61.1121 15.3949 61.4353 15.0961L60.0776 13.6276C59.5528 14.1128 59.142 14.6882 58.8478 15.3452L60.6731 16.1625ZM61.4427 15.0893C61.7647 14.7855 62.1491 14.5461 62.6076 14.3742L61.9053 12.5015C61.2119 12.7616 60.5962 13.1383 60.0702 13.6345L61.4427 15.0893ZM62.6033 14.3758C63.0665 14.2045 63.5799 14.1139 64.1525 14.1139V12.1139C63.365 12.1139 62.6144 12.2393 61.9096 12.5L62.6033 14.3758ZM64.1525 14.1139C64.7347 14.1139 65.2461 14.205 65.6973 14.3742L66.3996 12.5015C65.6988 12.2388 64.9463 12.1139 64.1525 12.1139V14.1139ZM65.6973 14.3742C66.1559 14.5461 66.5402 14.7855 66.8622 15.0893L68.2347 13.6345C67.7087 13.1383 67.0931 12.7616 66.3996 12.5015L65.6973 14.3742ZM66.8696 15.0961C67.1902 15.3925 67.4374 15.7413 67.6147 16.1511L69.4502 15.3566C69.1635 14.6944 68.7547 14.1152 68.2273 13.6276L66.8696 15.0961ZM67.6221 16.1677C67.7971 16.5528 67.8925 16.9937 67.8925 17.5059H69.8925C69.8925 16.738 69.7478 16.0109 69.4428 15.3401L67.6221 16.1677ZM67.8925 17.5059C67.8925 18.0079 67.7979 18.4513 67.6198 18.8492L69.4451 19.6665C69.747 18.9924 69.8925 18.2678 69.8925 17.5059H67.8925ZM67.6147 18.8606C67.4366 19.2723 67.1872 19.6279 66.8622 19.9345L68.2347 21.3893C68.7577 20.8959 69.1643 20.3155 69.4502 19.6551L67.6147 18.8606ZM66.8696 19.9276C66.5468 20.226 66.16 20.464 65.6973 20.6375L66.3996 22.5102C67.0889 22.2517 67.7021 21.8817 68.2273 21.3961L66.8696 19.9276ZM65.6973 20.6375C65.2461 20.8068 64.7347 20.8979 64.1525 20.8979V22.8979C64.9463 22.8979 65.6988 22.773 66.3996 22.5102L65.6973 20.6375ZM64.1525 20.6059C64.5405 20.6059 64.9198 20.5347 65.2784 20.381L64.4905 18.5427C64.4011 18.5811 64.2924 18.6059 64.1525 18.6059V20.6059ZM65.2668 20.3859C65.6233 20.2384 65.9405 20.0243 66.2078 19.7443L64.7611 18.3634C64.6924 18.4354 64.6096 18.4934 64.5021 18.5379L65.2668 20.3859ZM66.2071 19.7451C66.4833 19.4563 66.6888 19.1182 66.8288 18.745L64.9561 18.0427C64.9041 18.1816 64.8376 18.2834 64.7618 18.3626L66.2071 19.7451ZM66.8322 18.7356C66.9741 18.3454 67.0365 17.9313 67.0365 17.5059H65.0365C65.0365 17.7365 65.0028 17.9143 64.9527 18.0521L66.8322 18.7356ZM67.0365 17.5059C67.0365 17.0813 66.9744 16.667 66.8288 16.2787L64.9561 16.981C65.0025 17.1048 65.0365 17.2745 65.0365 17.5059H67.0365ZM66.8322 16.2881C66.6928 15.9045 66.4834 15.5546 66.1916 15.2628L64.7773 16.677C64.8375 16.7371 64.9002 16.8272 64.9527 16.9716L66.8322 16.2881ZM66.2229 15.2956C65.9552 15.0024 65.6333 14.7775 65.2668 14.6259L64.5021 16.4739C64.5996 16.5142 64.6777 16.5694 64.746 16.6441L66.2229 15.2956ZM65.2784 14.6307C64.9198 14.4771 64.5405 14.4059 64.1525 14.4059V16.4059C64.2924 16.4059 64.4011 16.4307 64.4905 16.469L65.2784 14.6307ZM64.1525 14.4059C63.7641 14.4059 63.3855 14.4771 63.0261 14.6259L63.7908 16.4739C63.8954 16.4306 64.0128 16.4059 64.1525 16.4059V14.4059ZM63.0145 14.6307C62.6612 14.7822 62.3507 15.0018 62.0858 15.2786L63.5311 16.6611C63.6182 16.57 63.7077 16.5096 63.8024 16.469L63.0145 14.6307ZM62.0851 15.2794C61.808 15.5697 61.6087 15.9141 61.4727 16.2881L63.3522 16.9716C63.4082 16.8176 63.4729 16.722 63.5318 16.6603L62.0851 15.2794ZM61.4761 16.2787C61.3305 16.667 61.2685 17.0813 61.2685 17.5059H63.2685C63.2685 17.2745 63.3024 17.1048 63.3488 16.981L61.4761 16.2787ZM61.2685 17.5059C61.2685 17.9313 61.3308 18.3454 61.4727 18.7356L63.3522 18.0521C63.3021 17.9143 63.2685 17.7365 63.2685 17.5059H61.2685ZM61.4761 18.745C61.6125 19.1087 61.808 19.4412 62.07 19.7281L63.5469 18.3796C63.4729 18.2985 63.4044 18.1911 63.3488 18.0427L61.4761 18.745ZM62.1013 19.761C62.3653 20.025 62.6711 20.2338 63.0145 20.381L63.8024 18.5427C63.6978 18.4979 63.6036 18.4348 63.5156 18.3468L62.1013 19.761ZM63.0261 20.3859C63.3855 20.5346 63.7641 20.6059 64.1525 20.6059V18.6059C64.0128 18.6059 63.8954 18.5811 63.7908 18.5379L63.0261 20.3859ZM69.9203 21.7059H68.9203C68.9203 22.2582 69.368 22.7059 69.9203 22.7059V21.7059ZM69.9203 13.3059V12.3059C69.368 12.3059 68.9203 12.7536 68.9203 13.3059H69.9203ZM72.2483 13.3059L73.0157 12.6646C72.8257 12.4373 72.5446 12.3059 72.2483 12.3059V13.3059ZM76.5203 18.4179V19.4179C76.9086 19.4179 77.2618 19.1931 77.4262 18.8414C77.5907 18.4897 77.5366 18.0746 77.2877 17.7766L76.5203 18.4179ZM75.4403 18.4179H74.4403C74.4403 18.9702 74.888 19.4179 75.4403 19.4179V18.4179ZM75.4403 13.3059V12.3059C74.888 12.3059 74.4403 12.7536 74.4403 13.3059H75.4403ZM78.2003 13.3059H79.2003C79.2003 12.7536 78.7526 12.3059 78.2003 12.3059V13.3059ZM78.2003 21.7059V22.7059C78.7526 22.7059 79.2003 22.2582 79.2003 21.7059H78.2003ZM75.8723 21.7059L75.105 22.3471C75.295 22.5745 75.576 22.7059 75.8723 22.7059V21.7059ZM71.6003 16.5939V15.5939C71.2121 15.5939 70.8589 15.8186 70.6944 16.1703C70.53 16.5221 70.584 16.9372 70.833 17.2351L71.6003 16.5939ZM72.6803 16.5939H73.6803C73.6803 16.0416 73.2326 15.5939 72.6803 15.5939V16.5939ZM72.6803 21.7059V22.7059C73.2326 22.7059 73.6803 22.2582 73.6803 21.7059H72.6803ZM70.9203 21.7059V13.3059H68.9203V21.7059H70.9203ZM69.9203 14.3059H72.2483V12.3059H69.9203V14.3059ZM71.481 13.9471L75.753 19.0591L77.2877 17.7766L73.0157 12.6646L71.481 13.9471ZM76.5203 17.4179H75.4403V19.4179H76.5203V17.4179ZM76.4403 18.4179V13.3059H74.4403V18.4179H76.4403ZM75.4403 14.3059H78.2003V12.3059H75.4403V14.3059ZM77.2003 13.3059V21.7059H79.2003V13.3059H77.2003ZM78.2003 20.7059H75.8723V22.7059H78.2003V20.7059ZM76.6397 21.0646L72.3677 15.9526L70.833 17.2351L75.105 22.3471L76.6397 21.0646ZM71.6003 17.5939H72.6803V15.5939H71.6003V17.5939ZM71.6803 16.5939V21.7059H73.6803V16.5939H71.6803ZM72.6803 20.7059H69.9203V22.7059H72.6803V20.7059ZM80.6569 21.6579L80.8938 20.6864L80.6569 21.6579ZM79.0369 21.0339L78.1222 20.6297C77.9188 21.09 78.0892 21.6298 78.52 21.8899L79.0369 21.0339ZM79.9489 18.9699L80.4506 18.1048C80.2047 17.9622 79.9097 17.931 79.6394 18.0189C79.3692 18.1069 79.1491 18.3057 79.0342 18.5657L79.9489 18.9699ZM81.2809 19.5339L80.9978 20.493C81.004 20.4948 81.0102 20.4966 81.0164 20.4983L81.2809 19.5339ZM83.3569 19.6899L83.5629 20.6684C83.5751 20.6658 83.5873 20.663 83.5994 20.66L83.3569 19.6899ZM83.7049 19.5339L84.3692 20.2813C84.3839 20.2683 84.3981 20.2548 84.412 20.241L83.7049 19.5339ZM83.5609 18.9219L83.0969 19.8077L83.5609 18.9219ZM82.8889 18.7059L82.6598 19.6793C82.6708 19.6819 82.6817 19.6842 82.6927 19.6865L82.8889 18.7059ZM81.9889 18.5139L81.7745 19.4906C81.7821 19.4923 81.7897 19.4939 81.7973 19.4954L81.9889 18.5139ZM80.9929 18.2379L80.6697 19.1842L80.6766 19.1866L80.9929 18.2379ZM80.0809 17.7939L79.5205 18.6222L79.5317 18.6296L80.0809 17.7939ZM79.4209 17.0739L78.5456 17.5576L78.5512 17.5675L79.4209 17.0739ZM79.6009 14.5299L78.7759 13.9646L78.7736 13.968L79.6009 14.5299ZM80.9089 13.4979L80.5074 12.582L80.5027 12.5841L80.9089 13.4979ZM84.7609 13.2939L84.5484 14.271L84.7609 13.2939ZM86.2489 13.8459L87.1724 14.2293C87.3665 13.7619 87.1808 13.2232 86.7399 12.9747L86.2489 13.8459ZM85.3969 15.8979L84.9496 16.7923C85.1977 16.9163 85.4862 16.9318 85.7461 16.8349C86.0061 16.738 86.2141 16.5375 86.3204 16.2813L85.3969 15.8979ZM84.1849 15.4299L83.9234 16.3951L83.9284 16.3964L84.1849 15.4299ZM82.4089 15.3459L82.1215 14.388L82.4089 15.3459ZM82.0609 15.5379L81.3176 14.8689C81.3046 14.8833 81.2921 14.8981 81.28 14.9132L82.0609 15.5379ZM82.2169 16.1499L81.7529 17.0357C81.7641 17.0416 81.7755 17.0473 81.7869 17.0527L82.2169 16.1499ZM82.8769 16.3539L82.6752 17.3333L82.6807 17.3345L82.8769 16.3539ZM83.7889 16.5339L83.5973 17.5154L83.6017 17.5162L83.7889 16.5339ZM84.7849 16.7979L84.4617 17.7442L84.7849 16.7979ZM85.6849 17.2419L85.1245 18.0702L85.1357 18.0776L85.6849 17.2419ZM86.3569 17.9619L85.4872 18.4555V18.4555L86.3569 17.9619ZM86.1649 20.4819L85.3399 19.9166L85.3376 19.92L86.1649 20.4819ZM84.8689 21.5139L85.275 22.4277L85.2855 22.4229L84.8689 21.5139ZM82.6969 20.8979C82.0693 20.8979 81.469 20.8266 80.8938 20.6864L80.4199 22.6294C81.1567 22.8091 81.9164 22.8979 82.6969 22.8979V20.8979ZM80.8938 20.6864C80.3032 20.5423 79.8657 20.3662 79.5537 20.1778L78.52 21.8899C79.056 22.2136 79.6985 22.4534 80.4199 22.6294L80.8938 20.6864ZM79.9515 21.438L80.8635 19.374L79.0342 18.5657L78.1222 20.6297L79.9515 21.438ZM79.4471 19.8349C79.9225 20.1106 80.441 20.3287 80.9978 20.493L81.5639 18.5748C81.1447 18.4511 80.7752 18.2931 80.4506 18.1048L79.4471 19.8349ZM81.0164 20.4983C81.5894 20.6554 82.1584 20.7379 82.7209 20.7379V18.7379C82.3553 18.7379 81.9643 18.6844 81.5453 18.5695L81.0164 20.4983ZM82.7209 20.7379C83.0188 20.7379 83.3109 20.7215 83.5629 20.6684L83.1508 18.7113C83.0988 18.7223 82.9669 18.7379 82.7209 18.7379V20.7379ZM83.5994 20.66C83.819 20.6051 84.1193 20.5035 84.3692 20.2813L83.0405 18.7865C83.0716 18.7588 83.0987 18.7402 83.1175 18.7286C83.1364 18.7169 83.1496 18.7107 83.1548 18.7084C83.1636 18.7044 83.1531 18.71 83.1143 18.7197L83.5994 20.66ZM84.412 20.241C84.6589 19.9941 84.8129 19.6604 84.8129 19.2819H82.8129C82.8129 19.2014 82.8287 19.1117 82.8667 19.023C82.9042 18.9354 82.954 18.8705 82.9978 18.8268L84.412 20.241ZM84.8129 19.2819C84.8129 18.6599 84.4255 18.2459 84.0249 18.036L83.0969 19.8077C83.0796 19.7987 83.0034 19.7552 82.9306 19.6513C82.8503 19.5366 82.8129 19.4028 82.8129 19.2819H84.8129ZM84.0249 18.036C83.7415 17.8876 83.4162 17.7915 83.085 17.7253L82.6927 19.6865C82.9215 19.7322 83.0442 19.7801 83.0969 19.8077L84.0249 18.036ZM83.1179 17.7325C82.8313 17.665 82.5186 17.5984 82.1804 17.5324L81.7973 19.4954C82.1151 19.5574 82.4024 19.6187 82.6598 19.6793L83.1179 17.7325ZM82.2033 17.5371C81.9115 17.4731 81.6135 17.3906 81.3091 17.2892L80.6766 19.1866C81.0442 19.3091 81.4102 19.4107 81.7745 19.4906L82.2033 17.5371ZM81.316 17.2915C81.0649 17.2058 80.8373 17.0943 80.63 16.9582L79.5317 18.6296C79.8845 18.8614 80.2648 19.0459 80.6697 19.1842L81.316 17.2915ZM80.6412 16.9656C80.5014 16.871 80.3854 16.7474 80.2905 16.5803L78.5512 17.5675C78.7923 17.9923 79.1163 18.3487 79.5205 18.6222L80.6412 16.9656ZM80.2961 16.5902C80.2303 16.4711 80.1689 16.2725 80.1689 15.9459H78.1689C78.1689 16.5153 78.2754 17.0686 78.5456 17.5576L80.2961 16.5902ZM80.1689 15.9459C80.1689 15.6231 80.2544 15.3475 80.4281 15.0918L78.7736 13.968C78.3713 14.5603 78.1689 15.2286 78.1689 15.9459H80.1689ZM80.4258 15.0951C80.5976 14.8443 80.8735 14.6079 81.315 14.4117L80.5027 12.5841C79.7922 12.8998 79.1961 13.3514 78.7759 13.9646L80.4258 15.0951ZM81.3103 14.4137C81.7313 14.2292 82.3088 14.1139 83.0809 14.1139V12.1139C82.1249 12.1139 81.2544 12.2546 80.5074 12.582L81.3103 14.4137ZM83.0809 14.1139C83.5778 14.1139 84.0666 14.1663 84.5484 14.271L84.9733 12.3167C84.3511 12.1814 83.7199 12.1139 83.0809 12.1139V14.1139ZM84.5484 14.271C85.0142 14.3723 85.4145 14.5235 85.7578 14.717L86.7399 12.9747C86.2032 12.6722 85.6115 12.4554 84.9733 12.3167L84.5484 14.271ZM85.3253 13.4624L84.4733 15.5144L86.3204 16.2813L87.1724 14.2293L85.3253 13.4624ZM85.8441 15.0034C85.3758 14.7693 84.908 14.5871 84.4413 14.4633L83.9284 16.3964C84.2458 16.4806 84.5859 16.6104 84.9496 16.7923L85.8441 15.0034ZM84.4463 14.4646C83.9839 14.3394 83.52 14.2739 83.0569 14.2739V16.2739C83.3297 16.2739 83.6178 16.3123 83.9234 16.3951L84.4463 14.4646ZM83.0569 14.2739C82.7404 14.2739 82.4146 14.3001 82.1215 14.388L82.6962 16.3037C82.7231 16.2956 82.8293 16.2739 83.0569 16.2739V14.2739ZM82.1215 14.388C81.8749 14.462 81.5622 14.5971 81.3176 14.8689L82.8042 16.2068C82.7506 16.2664 82.7029 16.2955 82.6849 16.3054C82.6672 16.3153 82.6674 16.3123 82.6962 16.3037L82.1215 14.388ZM81.28 14.9132C81.0844 15.1577 80.9649 15.463 80.9649 15.8019H82.9649C82.9649 15.8674 82.9535 15.9373 82.9287 16.0056C82.9041 16.0731 82.8714 16.1255 82.8417 16.1626L81.28 14.9132ZM80.9649 15.8019C80.9649 16.4377 81.377 16.8388 81.7529 17.0357L82.6809 15.264C82.6912 15.2695 82.7647 15.3094 82.8378 15.4104C82.9201 15.524 82.9649 15.6645 82.9649 15.8019H80.9649ZM81.7869 17.0527C82.0538 17.1798 82.3589 17.2682 82.6752 17.3333L83.0785 15.3744C82.8508 15.3275 82.7159 15.2799 82.6468 15.247L81.7869 17.0527ZM82.6807 17.3345C82.9625 17.3908 83.2681 17.4511 83.5974 17.5154L83.9804 15.5524C83.6537 15.4886 83.3512 15.4289 83.073 15.3733L82.6807 17.3345ZM83.6017 17.5162C83.891 17.5713 84.1776 17.6472 84.4617 17.7442L85.108 15.8515C84.7362 15.7245 84.3587 15.6244 83.976 15.5515L83.6017 17.5162ZM84.4617 17.7442C84.7104 17.8291 84.93 17.9385 85.1245 18.0702L86.2452 16.4136C85.8957 16.1772 85.5153 15.9906 85.108 15.8515L84.4617 17.7442ZM85.1357 18.0776C85.2811 18.1731 85.3961 18.295 85.4872 18.4555L87.2265 17.4683C86.9816 17.0367 86.6486 16.6786 86.234 16.4062L85.1357 18.0776ZM85.4872 18.4555C85.5483 18.5632 85.6089 18.7495 85.6089 19.0659H87.6089C87.6089 18.5023 87.5014 17.9526 87.2265 17.4683L85.4872 18.4555ZM85.6089 19.0659C85.6089 19.3713 85.5247 19.647 85.3399 19.9166L86.9898 21.0471C87.3971 20.4527 87.6089 19.7845 87.6089 19.0659H85.6089ZM85.3376 19.92C85.1739 20.161 84.9013 20.399 84.4522 20.6048L85.2855 22.4229C85.9885 22.1008 86.5798 21.6508 86.9921 21.0438L85.3376 19.92ZM84.4627 20.6001C84.0537 20.7819 83.4792 20.8979 82.6969 20.8979V22.8979C83.6585 22.8979 84.5321 22.7579 85.275 22.4277L84.4627 20.6001Z" fill="#0B1E22" mask="url(#path-3-outside-1_1_57)"/>
</g>
</g>
<defs>
<filter id="filter0_d_1_57" x="0" y="0" width="116" height="37" filterUnits="userSpaceOnUse" color-interpolation-filters="sRGB">
<feFlood flood-opacity="0" result="BackgroundImageFix"/>
<feColorMatrix in="SourceAlpha" type="matrix" values="0 0 0 0 0 0 0 0 0 0 0 0 0 0 0 0 0 0 127 0" result="hardAlpha"/>
<feOffset dy="4"/>
<feComposite in2="hardAlpha" operator="out"/>
<feColorMatrix type="matrix" values="0 0 0 0 0.639216 0 0 0 0 0.121569 0 0 0 0 0.121569 0 0 0 1 0"/>
<feBlend mode="normal" in2="BackgroundImageFix" result="effect1_dropShadow_1_57"/>
<feBlend mode="normal" in="SourceGraphic" in2="effect1_dropShadow_1_57" result="shape"/>
</filter>
<filter id="filter1_d_1_57" x="28.5804" y="13.1139" width="58.0284" height="9.784" filterUnits="userSpaceOnUse" color-interpolation-filters="sRGB">
<feFlood flood-opacity="0" result="BackgroundImageFix"/>
<feColorMatrix in="SourceAlpha" type="matrix" values="0 0 0 0 0 0 0 0 0 0 0 0 0 0 0 0 0 0 127 0" result="hardAlpha"/>
<feOffset dy="1"/>
<feComposite in2="hardAlpha" operator="out"/>
<feColorMatrix type="matrix" values="0 0 0 0 0.0431373 0 0 0 0 0.117647 0 0 0 0 0.133333 0 0 0 1 0"/>
<feBlend mode="normal" in2="BackgroundImageFix" result="effect1_dropShadow_1_57"/>
<feBlend mode="normal" in="SourceGraphic" in2="effect1_dropShadow_1_57" result="shape"/>
</filter>
<linearGradient id="paint0_linear_1_57" x1="58" y1="0" x2="58" y2="33" gradientUnits="userSpaceOnUse">
<stop stop-color="#F95E5E"/>
<stop offset="1" stop-color="#D42828"/>
</linearGradient>
</defs>
</svg>
