<svg width="116" height="37" viewBox="0 0 116 37" fill="none" xmlns="http://www.w3.org/2000/svg">
<g id="Button Text (Red)">
<g id="Rectangle 8" filter="url(#filter0_d_1_48)">
<rect width="116" height="33" rx="16.5" fill="url(#paint0_linear_1_48)"/>
<rect x="1" y="1" width="114" height="31" rx="15.5" stroke="#FAC4C4" stroke-width="2"/>
</g>
<g id="PLAY" filter="url(#filter1_d_1_48)">
<mask id="path-3-outside-1_1_48" maskUnits="userSpaceOnUse" x="42" y="10.7353" width="37" height="11" fill="black">
<rect fill="white" x="42" y="10.7353" width="37" height="11"/>
<path d="M43.6977 20.7353V12.3353H47.7417C48.5257 12.3353 49.2017 12.4633 49.7697 12.7193C50.3457 12.9753 50.7897 13.3433 51.1017 13.8233C51.4137 14.2953 51.5697 14.8553 51.5697 15.5033C51.5697 16.1513 51.4137 16.7113 51.1017 17.1833C50.7897 17.6553 50.3457 18.0233 49.7697 18.2873C49.2017 18.5433 48.5257 18.6713 47.7417 18.6713H45.2697L46.5297 17.4593V20.7353H43.6977ZM46.5297 17.7713L45.2697 16.4873H47.5617C47.9537 16.4873 48.2417 16.3993 48.4257 16.2233C48.6177 16.0473 48.7137 15.8073 48.7137 15.5033C48.7137 15.1993 48.6177 14.9593 48.4257 14.7833C48.2417 14.6073 47.9537 14.5193 47.5617 14.5193H45.2697L46.5297 13.2353V17.7713ZM52.4985 20.7353V12.3353H55.3305V18.5393H59.1225V20.7353H52.4985ZM59.1099 20.7353L62.7819 12.3353H65.5659L69.2379 20.7353H66.3099L63.5979 13.6793H64.7019L61.9899 20.7353H59.1099ZM61.2939 19.2713L62.0139 17.2313H65.8779L66.5979 19.2713H61.2939ZM71.3108 20.7353V17.0513L71.9588 18.7433L68.1428 12.3353H71.1308L73.7108 16.7153H71.9708L74.5748 12.3353H77.3108L73.5188 18.7433L74.1428 17.0513V20.7353H71.3108Z"/>
</mask>
<path d="M43.6977 20.7353V12.3353H47.7417C48.5257 12.3353 49.2017 12.4633 49.7697 12.7193C50.3457 12.9753 50.7897 13.3433 51.1017 13.8233C51.4137 14.2953 51.5697 14.8553 51.5697 15.5033C51.5697 16.1513 51.4137 16.7113 51.1017 17.1833C50.7897 17.6553 50.3457 18.0233 49.7697 18.2873C49.2017 18.5433 48.5257 18.6713 47.7417 18.6713H45.2697L46.5297 17.4593V20.7353H43.6977ZM46.5297 17.7713L45.2697 16.4873H47.5617C47.9537 16.4873 48.2417 16.3993 48.4257 16.2233C48.6177 16.0473 48.7137 15.8073 48.7137 15.5033C48.7137 15.1993 48.6177 14.9593 48.4257 14.7833C48.2417 14.6073 47.9537 14.5193 47.5617 14.5193H45.2697L46.5297 13.2353V17.7713ZM52.4985 20.7353V12.3353H55.3305V18.5393H59.1225V20.7353H52.4985ZM59.1099 20.7353L62.7819 12.3353H65.5659L69.2379 20.7353H66.3099L63.5979 13.6793H64.7019L61.9899 20.7353H59.1099ZM61.2939 19.2713L62.0139 17.2313H65.8779L66.5979 19.2713H61.2939ZM71.3108 20.7353V17.0513L71.9588 18.7433L68.1428 12.3353H71.1308L73.7108 16.7153H71.9708L74.5748 12.3353H77.3108L73.5188 18.7433L74.1428 17.0513V20.7353H71.3108Z" fill="white"/>
<path d="M43.6977 20.7353H42.6977C42.6977 21.2876 43.1454 21.7353 43.6977 21.7353L43.6977 20.7353ZM43.6977 12.3353V11.3353C43.1454 11.3353 42.6977 11.783 42.6977 12.3353H43.6977ZM49.7697 12.7193L49.3588 13.631L49.3635 13.6331L49.7697 12.7193ZM51.1017 13.8233L50.2632 14.3683L50.2675 14.3747L51.1017 13.8233ZM51.1017 17.1833L50.2675 16.6319H50.2675L51.1017 17.1833ZM49.7697 18.2873L50.1806 19.199L50.1863 19.1964L49.7697 18.2873ZM45.2697 18.6713L44.5764 17.9506C44.2824 18.2334 44.1897 18.6665 44.3421 19.045C44.4946 19.4234 44.8617 19.6713 45.2697 19.6713V18.6713ZM46.5297 17.4593H47.5297C47.5297 17.0584 47.2902 16.6962 46.9213 16.5392C46.5524 16.3822 46.1254 16.4606 45.8364 16.7386L46.5297 17.4593ZM46.5297 20.7353V21.7353C47.082 21.7353 47.5297 21.2876 47.5297 20.7353H46.5297ZM46.5297 17.7713L45.8159 18.4717C46.1004 18.7616 46.532 18.8506 46.908 18.697C47.284 18.5433 47.5297 18.1775 47.5297 17.7713H46.5297ZM45.2697 16.4873V15.4873C44.8669 15.4873 44.5035 15.7289 44.3476 16.1003C44.1917 16.4716 44.2738 16.9002 44.5559 17.1877L45.2697 16.4873ZM48.4257 16.2233L47.7499 15.4861C47.7447 15.4909 47.7396 15.4958 47.7344 15.5006L48.4257 16.2233ZM48.4257 14.7833L47.7344 15.5059C47.7396 15.5108 47.7447 15.5157 47.7499 15.5204L48.4257 14.7833ZM45.2697 14.5193L44.5559 13.8189C44.2738 14.1063 44.1917 14.535 44.3476 14.9063C44.5035 15.2777 44.8669 15.5193 45.2697 15.5193V14.5193ZM46.5297 13.2353H47.5297C47.5297 12.8291 47.284 12.4633 46.908 12.3096C46.532 12.1559 46.1004 12.245 45.8159 12.5349L46.5297 13.2353ZM44.6977 20.7353V12.3353H42.6977V20.7353H44.6977ZM43.6977 13.3353H47.7417V11.3353H43.6977V13.3353ZM47.7417 13.3353C48.4194 13.3353 48.9488 13.4462 49.3588 13.631L50.1806 11.8076C49.4546 11.4804 48.6319 11.3353 47.7417 11.3353V13.3353ZM49.3635 13.6331C49.7813 13.8188 50.0672 14.0667 50.2632 14.3683L51.9401 13.2783C51.5122 12.6199 50.91 12.1318 50.1758 11.8055L49.3635 13.6331ZM50.2675 14.3747C50.4562 14.6603 50.5697 15.0221 50.5697 15.5033H52.5697C52.5697 14.6885 52.3711 13.9303 51.9359 13.2719L50.2675 14.3747ZM50.5697 15.5033C50.5697 15.9845 50.4562 16.3463 50.2675 16.6319L51.9359 17.7347C52.3711 17.0763 52.5697 16.3181 52.5697 15.5033H50.5697ZM50.2675 16.6319C50.0705 16.9298 49.7801 17.1825 49.353 17.3782L50.1863 19.1964C50.9112 18.8641 51.5088 18.3808 51.9359 17.7347L50.2675 16.6319ZM49.3588 17.3756C48.9488 17.5604 48.4194 17.6713 47.7417 17.6713V19.6713C48.6319 19.6713 49.4546 19.5262 50.1806 19.199L49.3588 17.3756ZM47.7417 17.6713H45.2697V19.6713H47.7417V17.6713ZM45.9629 19.392L47.2229 18.18L45.8364 16.7386L44.5764 17.9506L45.9629 19.392ZM45.5297 17.4593V20.7353H47.5297V17.4593H45.5297ZM46.5297 19.7353H43.6977V21.7353H46.5297V19.7353ZM47.2434 17.0709L45.9834 15.7869L44.5559 17.1877L45.8159 18.4717L47.2434 17.0709ZM45.2697 17.4873H47.5617V15.4873H45.2697V17.4873ZM47.5617 17.4873C48.0762 17.4873 48.668 17.3753 49.1169 16.9459L47.7344 15.5006C47.7742 15.4626 47.8012 15.4583 47.7795 15.4649C47.7537 15.4728 47.6868 15.4873 47.5617 15.4873V17.4873ZM49.1014 16.9604C49.535 16.5629 49.7137 16.0363 49.7137 15.5033H47.7137C47.7137 15.5501 47.7064 15.5569 47.7132 15.5399C47.7165 15.5317 47.7218 15.5212 47.7295 15.5101C47.7371 15.499 47.7446 15.491 47.7499 15.4861L49.1014 16.9604ZM49.7137 15.5033C49.7137 14.9703 49.535 14.4436 49.1014 14.0461L47.7499 15.5204C47.7446 15.5156 47.7371 15.5076 47.7295 15.4965C47.7218 15.4854 47.7165 15.4749 47.7132 15.4667C47.7064 15.4497 47.7137 15.4565 47.7137 15.5033H49.7137ZM49.1169 14.0606C48.668 13.6312 48.0762 13.5193 47.5617 13.5193V15.5193C47.6868 15.5193 47.7537 15.5338 47.7795 15.5416C47.8012 15.5483 47.7742 15.544 47.7344 15.5059L49.1169 14.0606ZM47.5617 13.5193H45.2697V15.5193H47.5617V13.5193ZM45.9834 15.2197L47.2434 13.9357L45.8159 12.5349L44.5559 13.8189L45.9834 15.2197ZM45.5297 13.2353V17.7713H47.5297V13.2353H45.5297ZM52.4985 20.7353H51.4985C51.4985 21.2876 51.9462 21.7353 52.4985 21.7353V20.7353ZM52.4985 12.3353V11.3353C51.9462 11.3353 51.4985 11.783 51.4985 12.3353H52.4985ZM55.3305 12.3353H56.3305C56.3305 11.783 55.8827 11.3353 55.3305 11.3353V12.3353ZM55.3305 18.5393H54.3305C54.3305 19.0916 54.7782 19.5393 55.3305 19.5393V18.5393ZM59.1225 18.5393H60.1225C60.1225 17.987 59.6747 17.5393 59.1225 17.5393V18.5393ZM59.1225 20.7353V21.7353C59.6747 21.7353 60.1225 21.2876 60.1225 20.7353H59.1225ZM53.4985 20.7353V12.3353H51.4985V20.7353H53.4985ZM52.4985 13.3353H55.3305V11.3353H52.4985V13.3353ZM54.3305 12.3353V18.5393H56.3305V12.3353H54.3305ZM55.3305 19.5393H59.1225V17.5393H55.3305V19.5393ZM58.1225 18.5393V20.7353H60.1225V18.5393H58.1225ZM59.1225 19.7353H52.4985V21.7353H59.1225V19.7353ZM59.1099 20.7353L58.1936 20.3347C58.0585 20.6439 58.0883 21.0004 58.2731 21.2828C58.4578 21.5651 58.7725 21.7353 59.1099 21.7353V20.7353ZM62.7819 12.3353V11.3353C62.3845 11.3353 62.0248 11.5706 61.8656 11.9347L62.7819 12.3353ZM65.5659 12.3353L66.4822 11.9347C66.323 11.5706 65.9633 11.3353 65.5659 11.3353V12.3353ZM69.2379 20.7353V21.7353C69.5753 21.7353 69.89 21.5651 70.0747 21.2828C70.2594 21.0004 70.2893 20.6439 70.1542 20.3347L69.2379 20.7353ZM66.3099 20.7353L65.3765 21.0941C65.5249 21.4804 65.896 21.7353 66.3099 21.7353V20.7353ZM63.5979 13.6793V12.6793C63.2685 12.6793 62.9602 12.8415 62.7736 13.1131C62.5871 13.3846 62.5463 13.7306 62.6645 14.0381L63.5979 13.6793ZM64.7019 13.6793L65.6353 14.0381C65.7535 13.7306 65.7127 13.3846 65.5261 13.1131C65.3396 12.8415 65.0313 12.6793 64.7019 12.6793V13.6793ZM61.9899 20.7353V21.7353C62.4037 21.7353 62.7748 21.4804 62.9233 21.0941L61.9899 20.7353ZM61.2939 19.2713L60.3509 18.9385C60.2429 19.2445 60.2901 19.5839 60.4776 19.8489C60.665 20.1138 60.9694 20.2713 61.2939 20.2713V19.2713ZM62.0139 17.2313V16.2313C61.5899 16.2313 61.212 16.4987 61.0709 16.8985L62.0139 17.2313ZM65.8779 17.2313L66.8209 16.8985C66.6798 16.4987 66.3019 16.2313 65.8779 16.2313V17.2313ZM66.5979 19.2713V20.2713C66.9224 20.2713 67.2268 20.1138 67.4142 19.8489C67.6017 19.5839 67.6489 19.2445 67.5409 18.9385L66.5979 19.2713ZM60.0262 21.1358L63.6982 12.7358L61.8656 11.9347L58.1936 20.3347L60.0262 21.1358ZM62.7819 13.3353H65.5659V11.3353H62.7819V13.3353ZM64.6496 12.7358L68.3216 21.1358L70.1542 20.3347L66.4822 11.9347L64.6496 12.7358ZM69.2379 19.7353H66.3099V21.7353H69.2379V19.7353ZM67.2433 20.3765L64.5313 13.3205L62.6645 14.0381L65.3765 21.0941L67.2433 20.3765ZM63.5979 14.6793H64.7019V12.6793H63.5979V14.6793ZM63.7685 13.3205L61.0565 20.3765L62.9233 21.0941L65.6353 14.0381L63.7685 13.3205ZM61.9899 19.7353H59.1099V21.7353H61.9899V19.7353ZM62.2369 19.6041L62.9569 17.5641L61.0709 16.8985L60.3509 18.9385L62.2369 19.6041ZM62.0139 18.2313H65.8779V16.2313H62.0139V18.2313ZM64.9349 17.5641L65.6549 19.6041L67.5409 18.9385L66.8209 16.8985L64.9349 17.5641ZM66.5979 18.2713H61.2939V20.2713H66.5979V18.2713ZM71.3108 20.7353H70.3108C70.3108 21.2876 70.7585 21.7353 71.3108 21.7353V20.7353ZM71.3108 17.0513L72.2447 16.6936C72.0722 16.2434 71.603 15.9803 71.1289 16.068C70.6548 16.1556 70.3108 16.5691 70.3108 17.0513H71.3108ZM71.9588 18.7433L71.0996 19.2549C71.3652 19.701 71.9279 19.8696 72.395 19.6431C72.8622 19.4167 73.0783 18.8704 72.8927 18.3856L71.9588 18.7433ZM68.1428 12.3353V11.3353C67.7831 11.3353 67.4511 11.5285 67.2734 11.8412C67.0957 12.1539 67.0996 12.5379 67.2836 12.8469L68.1428 12.3353ZM71.1308 12.3353L71.9924 11.8278C71.8127 11.5226 71.4849 11.3353 71.1308 11.3353V12.3353ZM73.7108 16.7153V17.7153C74.0696 17.7153 74.4009 17.523 74.579 17.2115C74.757 16.9 74.7545 16.5169 74.5724 16.2078L73.7108 16.7153ZM71.9708 16.7153L71.1112 16.2043C70.9275 16.5133 70.9238 16.8972 71.1016 17.2097C71.2794 17.5223 71.6112 17.7153 71.9708 17.7153V16.7153ZM74.5748 12.3353V11.3353C74.2221 11.3353 73.8955 11.5211 73.7152 11.8243L74.5748 12.3353ZM77.3108 12.3353L78.1714 12.8446C78.3543 12.5354 78.3574 12.152 78.1795 11.8399C78.0016 11.5279 77.67 11.3353 77.3108 11.3353V12.3353ZM73.5188 18.7433L72.5806 18.3973C72.4016 18.8826 72.6223 19.4243 73.0894 19.6464C73.5565 19.8685 74.116 19.6977 74.3794 19.2526L73.5188 18.7433ZM74.1428 17.0513H75.1428C75.1428 16.5668 74.7955 16.152 74.3185 16.0669C73.8416 15.9817 73.3722 16.2507 73.2046 16.7053L74.1428 17.0513ZM74.1428 20.7353V21.7353C74.6951 21.7353 75.1428 21.2876 75.1428 20.7353H74.1428ZM72.3108 20.7353V17.0513H70.3108V20.7353H72.3108ZM70.3769 17.4089L71.0249 19.1009L72.8927 18.3856L72.2447 16.6936L70.3769 17.4089ZM72.818 18.2316L69.002 11.8236L67.2836 12.8469L71.0996 19.2549L72.818 18.2316ZM68.1428 13.3353H71.1308V11.3353H68.1428V13.3353ZM70.2692 12.8428L72.8492 17.2228L74.5724 16.2078L71.9924 11.8278L70.2692 12.8428ZM73.7108 15.7153H71.9708V17.7153H73.7108V15.7153ZM72.8304 17.2263L75.4344 12.8463L73.7152 11.8243L71.1112 16.2043L72.8304 17.2263ZM74.5748 13.3353H77.3108V11.3353H74.5748V13.3353ZM76.4502 11.826L72.6582 18.234L74.3794 19.2526L78.1714 12.8446L76.4502 11.826ZM74.457 19.0893L75.081 17.3973L73.2046 16.7053L72.5806 18.3973L74.457 19.0893ZM73.1428 17.0513V20.7353H75.1428V17.0513H73.1428ZM74.1428 19.7353H71.3108V21.7353H74.1428V19.7353Z" fill="#0B1E22" mask="url(#path-3-outside-1_1_48)"/>
</g>
</g>
<defs>
<filter id="filter0_d_1_48" x="0" y="0" width="116" height="37" filterUnits="userSpaceOnUse" color-interpolation-filters="sRGB">
<feFlood flood-opacity="0" result="BackgroundImageFix"/>
<feColorMatrix in="SourceAlpha" type="matrix" values="0 0 0 0 0 0 0 0 0 0 0 0 0 0 0 0 0 0 127 0" result="hardAlpha"/>
<feOffset dy="4"/>
<feComposite in2="hardAlpha" operator="out"/>
<feColorMatrix type="matrix" values="0 0 0 0 0.639216 0 0 0 0 0.121569 0 0 0 0 0.121569 0 0 0 1 0"/>
<feBlend mode="normal" in2="BackgroundImageFix" result="effect1_dropShadow_1_48"/>
<feBlend mode="normal" in="SourceGraphic" in2="effect1_dropShadow_1_48" result="shape"/>
</filter>
<filter id="filter1_d_1_48" x="43.6977" y="12.3353" width="33.6131" height="9.40002" filterUnits="userSpaceOnUse" color-interpolation-filters="sRGB">
<feFlood flood-opacity="0" result="BackgroundImageFix"/>
<feColorMatrix in="SourceAlpha" type="matrix" values="0 0 0 0 0 0 0 0 0 0 0 0 0 0 0 0 0 0 127 0" result="hardAlpha"/>
<feOffset dy="1"/>
<feComposite in2="hardAlpha" operator="out"/>
<feColorMatrix type="matrix" values="0 0 0 0 0.0431373 0 0 0 0 0.117647 0 0 0 0 0.133333 0 0 0 1 0"/>
<feBlend mode="normal" in2="BackgroundImageFix" result="effect1_dropShadow_1_48"/>
<feBlend mode="normal" in="SourceGraphic" in2="effect1_dropShadow_1_48" result="shape"/>
</filter>
<linearGradient id="paint0_linear_1_48" x1="58" y1="0" x2="58" y2="33" gradientUnits="userSpaceOnUse">
<stop stop-color="#F95E5E"/>
<stop offset="1" stop-color="#D42828"/>
</linearGradient>
</defs>
</svg>
