<svg width="116" height="37" viewBox="0 0 116 37" fill="none" xmlns="http://www.w3.org/2000/svg">
<g id="Button Text (Dark blue)">
<g id="Rectangle 8" filter="url(#filter0_d_1_145)">
<rect width="116" height="33" rx="16.5" fill="url(#paint0_linear_1_145)"/>
<rect x="1" y="1" width="114" height="31" rx="15.5" stroke="#C4C9FA" stroke-width="2"/>
</g>
<g id="RESTART" filter="url(#filter1_d_1_145)">
<mask id="path-3-outside-1_1_145" maskUnits="userSpaceOnUse" x="27" y="11.7059" width="61" height="12" fill="black">
<rect fill="white" x="27" y="11.7059" width="61" height="12"/>
<path d="M28.9047 21.7059V13.3059H32.9487C33.7327 13.3059 34.4087 13.4339 34.9767 13.6899C35.5527 13.9459 35.9967 14.3139 36.3087 14.7939C36.6207 15.2659 36.7767 15.8259 36.7767 16.4739C36.7767 17.1219 36.6207 17.6819 36.3087 18.1539C35.9967 18.6179 35.5527 18.9739 34.9767 19.2219C34.4087 19.4699 33.7327 19.5939 32.9487 19.5939H30.4767L31.7367 18.4299V21.7059H28.9047ZM33.9327 21.7059L31.8687 18.6459H34.8687L36.9567 21.7059H33.9327ZM31.7367 18.7419L30.4767 17.4579H32.7687C33.1607 17.4579 33.4487 17.3699 33.6327 17.1939C33.8247 17.0179 33.9207 16.7779 33.9207 16.4739C33.9207 16.1699 33.8247 15.9299 33.6327 15.7539C33.4487 15.5779 33.1607 15.4899 32.7687 15.4899H30.4767L31.7367 14.2059V18.7419ZM40.4381 16.4259H44.1821V18.4659H40.4381V16.4259ZM40.6301 19.5699H44.8301V21.7059H37.8461V13.3059H44.6741V15.4419H40.6301V19.5699ZM49.0523 21.8979C48.3483 21.8979 47.6683 21.8179 47.0123 21.6579C46.3563 21.4979 45.8163 21.2899 45.3923 21.0339L46.3043 18.9699C46.7043 19.2019 47.1483 19.3899 47.6363 19.5339C48.1323 19.6699 48.6123 19.7379 49.0763 19.7379C49.3483 19.7379 49.5603 19.7219 49.7123 19.6899C49.8723 19.6499 49.9883 19.5979 50.0603 19.5339C50.1323 19.4619 50.1683 19.3779 50.1683 19.2819C50.1683 19.1299 50.0843 19.0099 49.9163 18.9219C49.7483 18.8339 49.5243 18.7619 49.2443 18.7059C48.9723 18.6419 48.6723 18.5779 48.3443 18.5139C48.0163 18.4419 47.6843 18.3499 47.3483 18.2379C47.0203 18.1259 46.7163 17.9779 46.4363 17.7939C46.1643 17.6099 45.9443 17.3699 45.7763 17.0739C45.6083 16.7699 45.5243 16.3939 45.5243 15.9459C45.5243 15.4259 45.6683 14.9539 45.9563 14.5299C46.2523 14.0979 46.6883 13.7539 47.2643 13.4979C47.8483 13.2419 48.5723 13.1139 49.4363 13.1139C50.0043 13.1139 50.5643 13.1739 51.1163 13.2939C51.6683 13.4139 52.1643 13.5979 52.6043 13.8459L51.7523 15.8979C51.3363 15.6899 50.9323 15.5339 50.5403 15.4299C50.1563 15.3259 49.7803 15.2739 49.4123 15.2739C49.1403 15.2739 48.9243 15.2979 48.7643 15.3459C48.6043 15.3939 48.4883 15.4579 48.4163 15.5379C48.3523 15.6179 48.3203 15.7059 48.3203 15.8019C48.3203 15.9459 48.4043 16.0619 48.5723 16.1499C48.7403 16.2299 48.9603 16.2979 49.2323 16.3539C49.5123 16.4099 49.8163 16.4699 50.1443 16.5339C50.4803 16.5979 50.8123 16.6859 51.1403 16.7979C51.4683 16.9099 51.7683 17.0579 52.0403 17.2419C52.3203 17.4259 52.5443 17.6659 52.7123 17.9619C52.8803 18.2579 52.9643 18.6259 52.9643 19.0659C52.9643 19.5779 52.8163 20.0499 52.5203 20.4819C52.2323 20.9059 51.8003 21.2499 51.2243 21.5139C50.6483 21.7699 49.9243 21.8979 49.0523 21.8979ZM55.5139 21.7059V15.5019H53.0539V13.3059H60.8059V15.5019H58.3459V21.7059H55.5139ZM60.2075 21.7059L63.8795 13.3059H66.6635L70.3355 21.7059H67.4075L64.6955 14.6499H65.7995L63.0875 21.7059H60.2075ZM62.3915 20.2419L63.1115 18.2019H66.9755L67.6955 20.2419H62.3915ZM70.7875 21.7059V13.3059H74.8315C75.6155 13.3059 76.2915 13.4339 76.8595 13.6899C77.4355 13.9459 77.8795 14.3139 78.1915 14.7939C78.5035 15.2659 78.6595 15.8259 78.6595 16.4739C78.6595 17.1219 78.5035 17.6819 78.1915 18.1539C77.8795 18.6179 77.4355 18.9739 76.8595 19.2219C76.2915 19.4699 75.6155 19.5939 74.8315 19.5939H72.3595L73.6195 18.4299V21.7059H70.7875ZM75.8155 21.7059L73.7515 18.6459H76.7515L78.8395 21.7059H75.8155ZM73.6195 18.7419L72.3595 17.4579H74.6515C75.0435 17.4579 75.3315 17.3699 75.5155 17.1939C75.7075 17.0179 75.8035 16.7779 75.8035 16.4739C75.8035 16.1699 75.7075 15.9299 75.5155 15.7539C75.3315 15.5779 75.0435 15.4899 74.6515 15.4899H72.3595L73.6195 14.2059V18.7419ZM81.4357 21.7059V15.5019H78.9757V13.3059H86.7277V15.5019H84.2677V21.7059H81.4357Z"/>
</mask>
<path d="M28.9047 21.7059V13.3059H32.9487C33.7327 13.3059 34.4087 13.4339 34.9767 13.6899C35.5527 13.9459 35.9967 14.3139 36.3087 14.7939C36.6207 15.2659 36.7767 15.8259 36.7767 16.4739C36.7767 17.1219 36.6207 17.6819 36.3087 18.1539C35.9967 18.6179 35.5527 18.9739 34.9767 19.2219C34.4087 19.4699 33.7327 19.5939 32.9487 19.5939H30.4767L31.7367 18.4299V21.7059H28.9047ZM33.9327 21.7059L31.8687 18.6459H34.8687L36.9567 21.7059H33.9327ZM31.7367 18.7419L30.4767 17.4579H32.7687C33.1607 17.4579 33.4487 17.3699 33.6327 17.1939C33.8247 17.0179 33.9207 16.7779 33.9207 16.4739C33.9207 16.1699 33.8247 15.9299 33.6327 15.7539C33.4487 15.5779 33.1607 15.4899 32.7687 15.4899H30.4767L31.7367 14.2059V18.7419ZM40.4381 16.4259H44.1821V18.4659H40.4381V16.4259ZM40.6301 19.5699H44.8301V21.7059H37.8461V13.3059H44.6741V15.4419H40.6301V19.5699ZM49.0523 21.8979C48.3483 21.8979 47.6683 21.8179 47.0123 21.6579C46.3563 21.4979 45.8163 21.2899 45.3923 21.0339L46.3043 18.9699C46.7043 19.2019 47.1483 19.3899 47.6363 19.5339C48.1323 19.6699 48.6123 19.7379 49.0763 19.7379C49.3483 19.7379 49.5603 19.7219 49.7123 19.6899C49.8723 19.6499 49.9883 19.5979 50.0603 19.5339C50.1323 19.4619 50.1683 19.3779 50.1683 19.2819C50.1683 19.1299 50.0843 19.0099 49.9163 18.9219C49.7483 18.8339 49.5243 18.7619 49.2443 18.7059C48.9723 18.6419 48.6723 18.5779 48.3443 18.5139C48.0163 18.4419 47.6843 18.3499 47.3483 18.2379C47.0203 18.1259 46.7163 17.9779 46.4363 17.7939C46.1643 17.6099 45.9443 17.3699 45.7763 17.0739C45.6083 16.7699 45.5243 16.3939 45.5243 15.9459C45.5243 15.4259 45.6683 14.9539 45.9563 14.5299C46.2523 14.0979 46.6883 13.7539 47.2643 13.4979C47.8483 13.2419 48.5723 13.1139 49.4363 13.1139C50.0043 13.1139 50.5643 13.1739 51.1163 13.2939C51.6683 13.4139 52.1643 13.5979 52.6043 13.8459L51.7523 15.8979C51.3363 15.6899 50.9323 15.5339 50.5403 15.4299C50.1563 15.3259 49.7803 15.2739 49.4123 15.2739C49.1403 15.2739 48.9243 15.2979 48.7643 15.3459C48.6043 15.3939 48.4883 15.4579 48.4163 15.5379C48.3523 15.6179 48.3203 15.7059 48.3203 15.8019C48.3203 15.9459 48.4043 16.0619 48.5723 16.1499C48.7403 16.2299 48.9603 16.2979 49.2323 16.3539C49.5123 16.4099 49.8163 16.4699 50.1443 16.5339C50.4803 16.5979 50.8123 16.6859 51.1403 16.7979C51.4683 16.9099 51.7683 17.0579 52.0403 17.2419C52.3203 17.4259 52.5443 17.6659 52.7123 17.9619C52.8803 18.2579 52.9643 18.6259 52.9643 19.0659C52.9643 19.5779 52.8163 20.0499 52.5203 20.4819C52.2323 20.9059 51.8003 21.2499 51.2243 21.5139C50.6483 21.7699 49.9243 21.8979 49.0523 21.8979ZM55.5139 21.7059V15.5019H53.0539V13.3059H60.8059V15.5019H58.3459V21.7059H55.5139ZM60.2075 21.7059L63.8795 13.3059H66.6635L70.3355 21.7059H67.4075L64.6955 14.6499H65.7995L63.0875 21.7059H60.2075ZM62.3915 20.2419L63.1115 18.2019H66.9755L67.6955 20.2419H62.3915ZM70.7875 21.7059V13.3059H74.8315C75.6155 13.3059 76.2915 13.4339 76.8595 13.6899C77.4355 13.9459 77.8795 14.3139 78.1915 14.7939C78.5035 15.2659 78.6595 15.8259 78.6595 16.4739C78.6595 17.1219 78.5035 17.6819 78.1915 18.1539C77.8795 18.6179 77.4355 18.9739 76.8595 19.2219C76.2915 19.4699 75.6155 19.5939 74.8315 19.5939H72.3595L73.6195 18.4299V21.7059H70.7875ZM75.8155 21.7059L73.7515 18.6459H76.7515L78.8395 21.7059H75.8155ZM73.6195 18.7419L72.3595 17.4579H74.6515C75.0435 17.4579 75.3315 17.3699 75.5155 17.1939C75.7075 17.0179 75.8035 16.7779 75.8035 16.4739C75.8035 16.1699 75.7075 15.9299 75.5155 15.7539C75.3315 15.5779 75.0435 15.4899 74.6515 15.4899H72.3595L73.6195 14.2059V18.7419ZM81.4357 21.7059V15.5019H78.9757V13.3059H86.7277V15.5019H84.2677V21.7059H81.4357Z" fill="white"/>
<path d="M28.9047 21.7059H27.9047C27.9047 22.2582 28.3524 22.7059 28.9047 22.7059L28.9047 21.7059ZM28.9047 13.3059V12.3059C28.3524 12.3059 27.9047 12.7536 27.9047 13.3059H28.9047ZM34.9767 13.6899L34.5658 14.6016L34.5706 14.6037L34.9767 13.6899ZM36.3087 14.7939L35.4702 15.3389L35.4745 15.3454L36.3087 14.7939ZM36.3087 18.1539L37.1386 18.7119L37.1429 18.7054L36.3087 18.1539ZM34.9767 19.2219L34.5812 18.3034L34.5766 18.3055L34.9767 19.2219ZM30.4767 19.5939L29.7981 18.8594C29.4957 19.1387 29.3954 19.5749 29.5454 19.9583C29.6954 20.3416 30.065 20.5939 30.4767 20.5939V19.5939ZM31.7367 18.4299H32.7367C32.7367 18.0327 32.5015 17.6731 32.1376 17.5138C31.7736 17.3545 31.3499 17.4258 31.0581 17.6954L31.7367 18.4299ZM31.7367 21.7059V22.7059C32.289 22.7059 32.7367 22.2582 32.7367 21.7059H31.7367ZM33.9327 21.7059L33.1037 22.2651C33.2896 22.5407 33.6003 22.7059 33.9327 22.7059V21.7059ZM31.8687 18.6459V17.6459C31.4989 17.6459 31.1594 17.85 30.9858 18.1765C30.8122 18.5029 30.8329 18.8986 31.0397 19.2051L31.8687 18.6459ZM34.8687 18.6459L35.6947 18.0823C35.5084 17.8093 35.1992 17.6459 34.8687 17.6459V18.6459ZM36.9567 21.7059V22.7059C37.3274 22.7059 37.6677 22.5008 37.8409 22.173C38.0141 21.8452 37.9917 21.4485 37.7827 21.1423L36.9567 21.7059ZM31.7367 18.7419L31.023 19.4423C31.3074 19.7322 31.739 19.8213 32.115 19.6676C32.491 19.5139 32.7367 19.1481 32.7367 18.7419H31.7367ZM30.4767 17.4579V16.4579C30.074 16.4579 29.7105 16.6995 29.5546 17.0709C29.3988 17.4423 29.4809 17.8709 29.763 18.1583L30.4767 17.4579ZM33.6327 17.1939L32.957 16.4568C32.9518 16.4616 32.9466 16.4664 32.9415 16.4713L33.6327 17.1939ZM33.6327 15.7539L32.9415 16.4766C32.9466 16.4815 32.9518 16.4863 32.957 16.4911L33.6327 15.7539ZM30.4767 15.4899L29.763 14.7895C29.4809 15.077 29.3988 15.5056 29.5546 15.877C29.7105 16.2483 30.074 16.4899 30.4767 16.4899V15.4899ZM31.7367 14.2059H32.7367C32.7367 13.7998 32.491 13.4339 32.115 13.2803C31.739 13.1266 31.3074 13.2156 31.023 13.5055L31.7367 14.2059ZM29.9047 21.7059V13.3059H27.9047V21.7059H29.9047ZM28.9047 14.3059H32.9487V12.3059H28.9047V14.3059ZM32.9487 14.3059C33.6265 14.3059 34.1558 14.4168 34.5658 14.6016L35.3876 12.7783C34.6616 12.451 33.8389 12.3059 32.9487 12.3059V14.3059ZM34.5706 14.6037C34.9884 14.7894 35.2742 15.0373 35.4703 15.3389L37.1471 14.2489C36.7192 13.5906 36.117 13.1024 35.3828 12.7761L34.5706 14.6037ZM35.4745 15.3454C35.6633 15.6309 35.7767 15.9927 35.7767 16.4739H37.7767C37.7767 15.6591 37.5782 14.9009 37.1429 14.2425L35.4745 15.3454ZM35.7767 16.4739C35.7767 16.9551 35.6633 17.3169 35.4745 17.6025L37.1429 18.7054C37.5782 18.0469 37.7767 17.2887 37.7767 16.4739H35.7767ZM35.4789 17.5959C35.2867 17.8817 35.003 18.1219 34.5812 18.3034L35.3722 20.1404C36.1024 19.826 36.7067 19.3542 37.1385 18.7119L35.4789 17.5959ZM34.5766 18.3055C34.1635 18.4858 33.6302 18.5939 32.9487 18.5939V20.5939C33.8352 20.5939 34.6539 20.454 35.3768 20.1384L34.5766 18.3055ZM32.9487 18.5939H30.4767V20.5939H32.9487V18.5939ZM31.1553 20.3285L32.4153 19.1645L31.0581 17.6954L29.7981 18.8594L31.1553 20.3285ZM30.7367 18.4299V21.7059H32.7367V18.4299H30.7367ZM31.7367 20.7059H28.9047V22.7059H31.7367V20.7059ZM34.7617 21.1467L32.6977 18.0867L31.0397 19.2051L33.1037 22.2651L34.7617 21.1467ZM31.8687 19.6459H34.8687V17.6459H31.8687V19.6459ZM34.0427 19.2096L36.1307 22.2696L37.7827 21.1423L35.6947 18.0823L34.0427 19.2096ZM36.9567 20.7059H33.9327V22.7059H36.9567V20.7059ZM32.4504 18.0415L31.1904 16.7575L29.763 18.1583L31.023 19.4423L32.4504 18.0415ZM30.4767 18.4579H32.7687V16.4579H30.4767V18.4579ZM32.7687 18.4579C33.2833 18.4579 33.875 18.346 34.3239 17.9166L32.9415 16.4713C32.9813 16.4332 33.0082 16.4289 32.9865 16.4356C32.9608 16.4434 32.8938 16.4579 32.7687 16.4579V18.4579ZM34.3084 17.9311C34.7421 17.5336 34.9207 17.0069 34.9207 16.4739H32.9207C32.9207 16.5207 32.9134 16.5275 32.9202 16.5105C32.9235 16.5023 32.9288 16.4918 32.9365 16.4807C32.9442 16.4697 32.9517 16.4616 32.957 16.4568L34.3084 17.9311ZM34.9207 16.4739C34.9207 15.9409 34.7421 15.4143 34.3084 15.0168L32.957 16.4911C32.9517 16.4862 32.9442 16.4782 32.9365 16.4671C32.9288 16.4561 32.9235 16.4455 32.9202 16.4373C32.9134 16.4204 32.9207 16.4271 32.9207 16.4739H34.9207ZM34.3239 15.0313C33.875 14.6019 33.2833 14.4899 32.7687 14.4899V16.4899C32.8938 16.4899 32.9608 16.5044 32.9865 16.5123C33.0082 16.5189 32.9813 16.5146 32.9415 16.4766L34.3239 15.0313ZM32.7687 14.4899H30.4767V16.4899H32.7687V14.4899ZM31.1904 16.1903L32.4504 14.9063L31.023 13.5055L29.763 14.7895L31.1904 16.1903ZM30.7367 14.2059V18.7419H32.7367V14.2059H30.7367ZM40.4381 16.4259V15.4259C39.8858 15.4259 39.4381 15.8736 39.4381 16.4259H40.4381ZM44.1821 16.4259H45.1821C45.1821 15.8736 44.7344 15.4259 44.1821 15.4259V16.4259ZM44.1821 18.4659V19.4659C44.7344 19.4659 45.1821 19.0182 45.1821 18.4659H44.1821ZM40.4381 18.4659H39.4381C39.4381 19.0182 39.8858 19.4659 40.4381 19.4659V18.4659ZM40.6301 19.5699H39.6301C39.6301 20.1222 40.0778 20.5699 40.6301 20.5699V19.5699ZM44.8301 19.5699H45.8301C45.8301 19.0176 45.3824 18.5699 44.8301 18.5699V19.5699ZM44.8301 21.7059V22.7059C45.3824 22.7059 45.8301 22.2582 45.8301 21.7059H44.8301ZM37.8461 21.7059H36.8461C36.8461 22.2582 37.2938 22.7059 37.8461 22.7059V21.7059ZM37.8461 13.3059V12.3059C37.2938 12.3059 36.8461 12.7536 36.8461 13.3059H37.8461ZM44.6741 13.3059H45.6741C45.6741 12.7536 45.2264 12.3059 44.6741 12.3059V13.3059ZM44.6741 15.4419V16.4419C45.2264 16.4419 45.6741 15.9942 45.6741 15.4419H44.6741ZM40.6301 15.4419V14.4419C40.0778 14.4419 39.6301 14.8896 39.6301 15.4419H40.6301ZM40.4381 17.4259H44.1821V15.4259H40.4381V17.4259ZM43.1821 16.4259V18.4659H45.1821V16.4259H43.1821ZM44.1821 17.4659H40.4381V19.4659H44.1821V17.4659ZM41.4381 18.4659V16.4259H39.4381V18.4659H41.4381ZM40.6301 20.5699H44.8301V18.5699H40.6301V20.5699ZM43.8301 19.5699V21.7059H45.8301V19.5699H43.8301ZM44.8301 20.7059H37.8461V22.7059H44.8301V20.7059ZM38.8461 21.7059V13.3059H36.8461V21.7059H38.8461ZM37.8461 14.3059H44.6741V12.3059H37.8461V14.3059ZM43.6741 13.3059V15.4419H45.6741V13.3059H43.6741ZM44.6741 14.4419H40.6301V16.4419H44.6741V14.4419ZM39.6301 15.4419V19.5699H41.6301V15.4419H39.6301ZM47.0123 21.6579L47.2493 20.6864L47.0123 21.6579ZM45.3923 21.0339L44.4776 20.6298C44.2742 21.0901 44.4446 21.6299 44.8755 21.89L45.3923 21.0339ZM46.3043 18.9699L46.806 18.1049C46.5602 17.9623 46.2652 17.9311 45.9949 18.019C45.7246 18.107 45.5045 18.3058 45.3896 18.5658L46.3043 18.9699ZM47.6363 19.5339L47.3533 20.493C47.3595 20.4949 47.3657 20.4966 47.3719 20.4983L47.6363 19.5339ZM49.7123 19.6899L49.9183 20.6685C49.9306 20.6659 49.9427 20.6631 49.9549 20.6601L49.7123 19.6899ZM50.0603 19.5339L50.7247 20.2813C50.7393 20.2683 50.7536 20.2549 50.7674 20.241L50.0603 19.5339ZM49.9163 18.9219L49.4523 19.8078H49.4523L49.9163 18.9219ZM49.2443 18.7059L49.0153 19.6793C49.0262 19.6819 49.0372 19.6843 49.0482 19.6865L49.2443 18.7059ZM48.3443 18.5139L48.1299 19.4907C48.1375 19.4923 48.1452 19.4939 48.1528 19.4954L48.3443 18.5139ZM47.3483 18.2379L47.0252 19.1843L47.0321 19.1866L47.3483 18.2379ZM46.4363 17.7939L45.876 18.6223L45.8871 18.6296L46.4363 17.7939ZM45.7763 17.0739L44.901 17.5576L44.9066 17.5675L45.7763 17.0739ZM45.9563 14.5299L45.1314 13.9647L45.1291 13.968L45.9563 14.5299ZM47.2643 13.4979L46.8628 12.5821L46.8582 12.5841L47.2643 13.4979ZM51.1163 13.2939L50.9039 14.2711L51.1163 13.2939ZM52.6043 13.8459L53.5279 14.2294C53.722 13.762 53.5362 13.2233 53.0953 12.9748L52.6043 13.8459ZM51.7523 15.8979L51.3051 16.7924C51.5532 16.9164 51.8417 16.9318 52.1016 16.835C52.3615 16.7381 52.5695 16.5376 52.6759 16.2814L51.7523 15.8979ZM50.5403 15.4299L50.2789 16.3952L50.2839 16.3965L50.5403 15.4299ZM48.7643 15.3459L48.477 14.3881L48.7643 15.3459ZM48.4163 15.5379L47.673 14.869C47.6601 14.8834 47.6476 14.8981 47.6355 14.9132L48.4163 15.5379ZM48.5723 16.1499L48.1083 17.0358C48.1196 17.0417 48.1309 17.0473 48.1424 17.0528L48.5723 16.1499ZM49.2323 16.3539L49.0307 17.3334L49.0362 17.3345L49.2323 16.3539ZM50.1443 16.5339L49.9528 17.5154L49.9572 17.5163L50.1443 16.5339ZM51.1403 16.7979L50.8172 17.7443L51.1403 16.7979ZM52.0403 17.2419L51.48 18.0703L51.4912 18.0776L52.0403 17.2419ZM52.7123 17.9619L51.8426 18.4555L51.8426 18.4555L52.7123 17.9619ZM52.5203 20.4819L51.6954 19.9167L51.6931 19.92L52.5203 20.4819ZM51.2243 21.5139L51.6305 22.4278L51.641 22.423L51.2243 21.5139ZM49.0523 20.8979C48.4248 20.8979 47.8245 20.8267 47.2493 20.6864L46.7754 22.6295C47.5122 22.8092 48.2719 22.8979 49.0523 22.8979V20.8979ZM47.2493 20.6864C46.6587 20.5424 46.2212 20.3662 45.9092 20.1779L44.8755 21.89C45.4115 22.2136 46.054 22.4535 46.7754 22.6295L47.2493 20.6864ZM46.307 21.4381L47.219 19.3741L45.3896 18.5658L44.4776 20.6298L46.307 21.4381ZM45.8026 19.835C46.278 20.1107 46.7965 20.3287 47.3533 20.493L47.9193 18.5748C47.5002 18.4511 47.1307 18.2932 46.806 18.1049L45.8026 19.835ZM47.3719 20.4983C47.9448 20.6554 48.5139 20.7379 49.0763 20.7379V18.7379C48.7107 18.7379 48.3198 18.6844 47.9008 18.5695L47.3719 20.4983ZM49.0763 20.7379C49.3743 20.7379 49.6664 20.7215 49.9183 20.6685L49.5063 18.7114C49.4542 18.7223 49.3224 18.7379 49.0763 18.7379V20.7379ZM49.9549 20.6601C50.1744 20.6052 50.4747 20.5035 50.7247 20.2813L49.396 18.7865C49.427 18.7589 49.4541 18.7403 49.473 18.7286C49.4918 18.717 49.5051 18.7107 49.5103 18.7084C49.5191 18.7045 49.5085 18.7101 49.4698 18.7198L49.9549 20.6601ZM50.7674 20.241C51.0143 19.9941 51.1683 19.6605 51.1683 19.2819H49.1683C49.1683 19.2015 49.1842 19.1117 49.2222 19.023C49.2597 18.9355 49.3095 18.8705 49.3532 18.8268L50.7674 20.241ZM51.1683 19.2819C51.1683 18.66 50.7809 18.2459 50.3803 18.0361L49.4523 19.8078C49.4351 19.7987 49.3588 19.7553 49.2861 19.6514C49.2058 19.5367 49.1683 19.4029 49.1683 19.2819H51.1683ZM50.3803 18.0361C50.0969 17.8877 49.7717 17.7916 49.4404 17.7254L49.0482 19.6865C49.277 19.7323 49.3997 19.7802 49.4523 19.8078L50.3803 18.0361ZM49.4734 17.7325C49.1868 17.6651 48.8741 17.5984 48.5358 17.5324L48.1528 19.4954C48.4706 19.5574 48.7579 19.6188 49.0153 19.6793L49.4734 17.7325ZM48.5587 17.5372C48.267 17.4731 47.9689 17.3907 47.6646 17.2892L47.0321 19.1866C47.3997 19.3092 47.7657 19.4107 48.1299 19.4907L48.5587 17.5372ZM47.6715 17.2916C47.4204 17.2059 47.1927 17.0944 46.9855 16.9582L45.8871 18.6296C46.2399 18.8615 46.6202 19.046 47.0252 19.1843L47.6715 17.2916ZM46.9966 16.9656C46.8569 16.8711 46.7409 16.7475 46.646 16.5803L44.9066 17.5675C45.1478 17.9924 45.4718 18.3488 45.876 18.6222L46.9966 16.9656ZM46.6516 16.5902C46.5858 16.4712 46.5243 16.2725 46.5243 15.9459H44.5243C44.5243 16.5153 44.6309 17.0687 44.9011 17.5576L46.6516 16.5902ZM46.5243 15.9459C46.5243 15.6232 46.6099 15.3475 46.7835 15.0918L45.1291 13.968C44.7268 14.5603 44.5243 15.2287 44.5243 15.9459H46.5243ZM46.7813 15.0952C46.9531 14.8444 47.229 14.608 47.6705 14.4117L46.8582 12.5841C46.1477 12.8999 45.5516 13.3515 45.1314 13.9647L46.7813 15.0952ZM47.6658 14.4138C48.0868 14.2293 48.6643 14.1139 49.4363 14.1139V12.1139C48.4804 12.1139 47.6098 12.2546 46.8629 12.5821L47.6658 14.4138ZM49.4363 14.1139C49.9333 14.1139 50.4221 14.1664 50.9039 14.2711L51.3288 12.3168C50.7066 12.1815 50.0754 12.1139 49.4363 12.1139V14.1139ZM50.9039 14.2711C51.3697 14.3724 51.77 14.5236 52.1133 14.7171L53.0953 12.9748C52.5587 12.6723 51.967 12.4555 51.3288 12.3168L50.9039 14.2711ZM51.6808 13.4625L50.8288 15.5145L52.6759 16.2814L53.5279 14.2294L51.6808 13.4625ZM52.1995 15.0035C51.7313 14.7694 51.2634 14.5872 50.7968 14.4634L50.2839 16.3965C50.6012 16.4807 50.9414 16.6105 51.3051 16.7924L52.1995 15.0035ZM50.8017 14.4647C50.3394 14.3395 49.8755 14.2739 49.4123 14.2739V16.2739C49.6852 16.2739 49.9733 16.3124 50.2789 16.3952L50.8017 14.4647ZM49.4123 14.2739C49.0959 14.2739 48.7701 14.3002 48.477 14.3881L49.0517 16.3038C49.0786 16.2957 49.1848 16.2739 49.4123 16.2739V14.2739ZM48.477 14.3881C48.2303 14.4621 47.9177 14.5972 47.673 14.869L49.1596 16.2069C49.1061 16.2664 49.0583 16.2956 49.0404 16.3055C49.0226 16.3153 49.0229 16.3124 49.0517 16.3038L48.477 14.3881ZM47.6355 14.9132C47.4398 15.1578 47.3203 15.463 47.3203 15.8019H49.3203C49.3203 15.8675 49.309 15.9374 49.2841 16.0057C49.2596 16.0732 49.2268 16.1256 49.1972 16.1626L47.6355 14.9132ZM47.3203 15.8019C47.3203 16.4377 47.7325 16.8389 48.1083 17.0358L49.0363 15.2641C49.0467 15.2695 49.1202 15.3095 49.1933 15.4104C49.2755 15.524 49.3203 15.6645 49.3203 15.8019H47.3203ZM48.1424 17.0528C48.4093 17.1799 48.7144 17.2683 49.0307 17.3334L49.434 15.3745C49.2063 15.3276 49.0714 15.28 49.0023 15.2471L48.1424 17.0528ZM49.0362 17.3345C49.318 17.3909 49.6235 17.4512 49.9528 17.5154L50.3358 15.5524C50.0091 15.4887 49.7067 15.429 49.4284 15.3734L49.0362 17.3345ZM49.9572 17.5163C50.2465 17.5714 50.533 17.6473 50.8172 17.7443L51.4635 15.8516C51.0916 15.7246 50.7142 15.6245 50.3314 15.5516L49.9572 17.5163ZM50.8172 17.7443C51.0659 17.8292 51.2854 17.9386 51.48 18.0702L52.6006 16.4136C52.2512 16.1773 51.8708 15.9907 51.4635 15.8516L50.8172 17.7443ZM51.4912 18.0776C51.6366 18.1732 51.7516 18.2951 51.8426 18.4555L53.582 17.4683C53.3371 17.0368 53.0041 16.6787 52.5895 16.4062L51.4912 18.0776ZM51.8426 18.4555C51.9038 18.5632 51.9643 18.7495 51.9643 19.0659H53.9643C53.9643 18.5023 53.8569 17.9526 53.582 17.4683L51.8426 18.4555ZM51.9643 19.0659C51.9643 19.3713 51.8801 19.6471 51.6954 19.9167L53.3453 21.0472C53.7525 20.4528 53.9643 19.7845 53.9643 19.0659H51.9643ZM51.6931 19.92C51.5294 20.161 51.2567 20.3991 50.8077 20.6049L51.641 22.423C52.3439 22.1008 52.9352 21.6508 53.3475 21.0438L51.6931 19.92ZM50.8182 20.6001C50.4091 20.7819 49.8347 20.8979 49.0523 20.8979V22.8979C50.014 22.8979 50.8875 22.7579 51.6305 22.4277L50.8182 20.6001ZM55.5139 21.7059H54.5139C54.5139 22.2582 54.9616 22.7059 55.5139 22.7059V21.7059ZM55.5139 15.5019H56.5139C56.5139 14.9496 56.0661 14.5019 55.5139 14.5019V15.5019ZM53.0539 15.5019H52.0539C52.0539 16.0542 52.5016 16.5019 53.0539 16.5019V15.5019ZM53.0539 13.3059V12.3059C52.5016 12.3059 52.0539 12.7536 52.0539 13.3059H53.0539ZM60.8059 13.3059H61.8059C61.8059 12.7536 61.3581 12.3059 60.8059 12.3059V13.3059ZM60.8059 15.5019V16.5019C61.3581 16.5019 61.8059 16.0542 61.8059 15.5019H60.8059ZM58.3459 15.5019V14.5019C57.7936 14.5019 57.3459 14.9496 57.3459 15.5019H58.3459ZM58.3459 21.7059V22.7059C58.8981 22.7059 59.3459 22.2582 59.3459 21.7059H58.3459ZM56.5139 21.7059V15.5019H54.5139V21.7059H56.5139ZM55.5139 14.5019H53.0539V16.5019H55.5139V14.5019ZM54.0539 15.5019V13.3059H52.0539V15.5019H54.0539ZM53.0539 14.3059H60.8059V12.3059H53.0539V14.3059ZM59.8059 13.3059V15.5019H61.8059V13.3059H59.8059ZM60.8059 14.5019H58.3459V16.5019H60.8059V14.5019ZM57.3459 15.5019V21.7059H59.3459V15.5019H57.3459ZM58.3459 20.7059H55.5139V22.7059H58.3459V20.7059ZM60.2075 21.7059L59.2913 21.3054C59.1561 21.6146 59.186 21.971 59.3707 22.2534C59.5555 22.5358 59.8701 22.7059 60.2075 22.7059V21.7059ZM63.8795 13.3059V12.3059C63.4821 12.3059 63.1224 12.5413 62.9633 12.9054L63.8795 13.3059ZM66.6635 13.3059L67.5798 12.9054C67.4206 12.5413 67.061 12.3059 66.6635 12.3059V13.3059ZM70.3355 21.7059V22.7059C70.673 22.7059 70.9876 22.5358 71.1724 22.2534C71.3571 21.971 71.387 21.6146 71.2518 21.3054L70.3355 21.7059ZM67.4075 21.7059L66.4741 22.0647C66.6226 22.451 66.9937 22.7059 67.4075 22.7059V21.7059ZM64.6955 14.6499V13.6499C64.3661 13.6499 64.0578 13.8122 63.8713 14.0837C63.6848 14.3552 63.6439 14.7012 63.7621 15.0087L64.6955 14.6499ZM65.7995 14.6499L66.733 15.0087C66.8512 14.7012 66.8103 14.3552 66.6238 14.0837C66.4373 13.8122 66.129 13.6499 65.7995 13.6499V14.6499ZM63.0875 21.7059V22.7059C63.5014 22.7059 63.8725 22.451 64.021 22.0647L63.0875 21.7059ZM62.3915 20.2419L61.4486 19.9091C61.3405 20.2151 61.3878 20.5546 61.5752 20.8195C61.7627 21.0844 62.067 21.2419 62.3915 21.2419V20.2419ZM63.1115 18.2019V17.2019C62.6876 17.2019 62.3097 17.4693 62.1686 17.8691L63.1115 18.2019ZM66.9755 18.2019L67.9185 17.8691C67.7774 17.4693 67.3995 17.2019 66.9755 17.2019V18.2019ZM67.6955 20.2419V21.2419C68.0201 21.2419 68.3244 21.0844 68.5119 20.8195C68.6993 20.5546 68.7466 20.2151 68.6385 19.9091L67.6955 20.2419ZM61.1238 22.1065L64.7958 13.7065L62.9633 12.9054L59.2913 21.3054L61.1238 22.1065ZM63.8795 14.3059H66.6635V12.3059H63.8795V14.3059ZM65.7473 13.7065L69.4193 22.1065L71.2518 21.3054L67.5798 12.9054L65.7473 13.7065ZM70.3355 20.7059H67.4075V22.7059H70.3355V20.7059ZM68.341 21.3472L65.629 14.2912L63.7621 15.0087L66.4741 22.0647L68.341 21.3472ZM64.6955 15.6499H65.7995V13.6499H64.6955V15.6499ZM64.8661 14.2912L62.1541 21.3472L64.021 22.0647L66.733 15.0087L64.8661 14.2912ZM63.0875 20.7059H60.2075V22.7059H63.0875V20.7059ZM63.3345 20.5748L64.0545 18.5348L62.1686 17.8691L61.4486 19.9091L63.3345 20.5748ZM63.1115 19.2019H66.9755V17.2019H63.1115V19.2019ZM66.0326 18.5348L66.7526 20.5748L68.6385 19.9091L67.9185 17.8691L66.0326 18.5348ZM67.6955 19.2419H62.3915V21.2419H67.6955V19.2419ZM70.7875 21.7059H69.7875C69.7875 22.2582 70.2352 22.7059 70.7875 22.7059V21.7059ZM70.7875 13.3059V12.3059C70.2352 12.3059 69.7875 12.7536 69.7875 13.3059H70.7875ZM76.8595 13.6899L76.4486 14.6016L76.4534 14.6037L76.8595 13.6899ZM78.1915 14.7939L77.353 15.3389L77.3573 15.3454L78.1915 14.7939ZM78.1915 18.1539L79.0214 18.7119L79.0257 18.7054L78.1915 18.1539ZM76.8595 19.2219L76.4641 18.3034L76.4594 18.3055L76.8595 19.2219ZM72.3595 19.5939L71.6809 18.8594C71.3786 19.1387 71.2783 19.5749 71.4282 19.9583C71.5782 20.3416 71.9478 20.5939 72.3595 20.5939V19.5939ZM73.6195 18.4299H74.6195C74.6195 18.0327 74.3844 17.6731 74.0204 17.5138C73.6565 17.3545 73.2328 17.4258 72.9409 17.6954L73.6195 18.4299ZM73.6195 21.7059V22.7059C74.1718 22.7059 74.6195 22.2582 74.6195 21.7059H73.6195ZM75.8155 21.7059L74.9865 22.2651C75.1724 22.5407 75.4831 22.7059 75.8155 22.7059V21.7059ZM73.7515 18.6459V17.6459C73.3817 17.6459 73.0422 17.85 72.8686 18.1765C72.695 18.5029 72.7157 18.8986 72.9225 19.2051L73.7515 18.6459ZM76.7515 18.6459L77.5775 18.0823C77.3912 17.8093 77.0821 17.6459 76.7515 17.6459V18.6459ZM78.8395 21.7059V22.7059C79.2102 22.7059 79.5506 22.5008 79.7237 22.173C79.8969 21.8452 79.8745 21.4485 79.6655 21.1423L78.8395 21.7059ZM73.6195 18.7419L72.9058 19.4423C73.1903 19.7322 73.6218 19.8213 73.9978 19.6676C74.3738 19.5139 74.6195 19.1481 74.6195 18.7419H73.6195ZM72.3595 17.4579V16.4579C71.9568 16.4579 71.5933 16.6995 71.4375 17.0709C71.2816 17.4423 71.3637 17.8709 71.6458 18.1583L72.3595 17.4579ZM75.5155 17.1939L74.8398 16.4568C74.8346 16.4616 74.8294 16.4664 74.8243 16.4713L75.5155 17.1939ZM75.5155 15.7539L74.8243 16.4766C74.8294 16.4815 74.8346 16.4863 74.8398 16.4911L75.5155 15.7539ZM72.3595 15.4899L71.6458 14.7895C71.3637 15.077 71.2816 15.5056 71.4375 15.877C71.5933 16.2483 71.9568 16.4899 72.3595 16.4899V15.4899ZM73.6195 14.2059H74.6195C74.6195 13.7998 74.3738 13.4339 73.9978 13.2803C73.6218 13.1266 73.1903 13.2156 72.9058 13.5055L73.6195 14.2059ZM71.7875 21.7059V13.3059H69.7875V21.7059H71.7875ZM70.7875 14.3059H74.8315V12.3059H70.7875V14.3059ZM74.8315 14.3059C75.5093 14.3059 76.0386 14.4168 76.4486 14.6016L77.2704 12.7783C76.5444 12.451 75.7217 12.3059 74.8315 12.3059V14.3059ZM76.4534 14.6037C76.8712 14.7894 77.157 15.0373 77.3531 15.3389L79.03 14.2489C78.602 13.5906 77.9998 13.1024 77.2657 12.7761L76.4534 14.6037ZM77.3573 15.3454C77.5461 15.6309 77.6595 15.9927 77.6595 16.4739H79.6595C79.6595 15.6591 79.461 14.9009 79.0257 14.2425L77.3573 15.3454ZM77.6595 16.4739C77.6595 16.9551 77.5461 17.3169 77.3573 17.6025L79.0257 18.7054C79.461 18.0469 79.6595 17.2887 79.6595 16.4739H77.6595ZM77.3617 17.5959C77.1695 17.8817 76.8858 18.1219 76.4641 18.3034L77.255 20.1404C77.9852 19.826 78.5895 19.3542 79.0214 18.7119L77.3617 17.5959ZM76.4594 18.3055C76.0463 18.4858 75.513 18.5939 74.8315 18.5939V20.5939C75.718 20.5939 76.5368 20.454 77.2597 20.1384L76.4594 18.3055ZM74.8315 18.5939H72.3595V20.5939H74.8315V18.5939ZM73.0381 20.3285L74.2981 19.1645L72.9409 17.6954L71.6809 18.8594L73.0381 20.3285ZM72.6195 18.4299V21.7059H74.6195V18.4299H72.6195ZM73.6195 20.7059H70.7875V22.7059H73.6195V20.7059ZM76.6446 21.1467L74.5806 18.0867L72.9225 19.2051L74.9865 22.2651L76.6446 21.1467ZM73.7515 19.6459H76.7515V17.6459H73.7515V19.6459ZM75.9255 19.2096L78.0135 22.2696L79.6655 21.1423L77.5775 18.0823L75.9255 19.2096ZM78.8395 20.7059H75.8155V22.7059H78.8395V20.7059ZM74.3333 18.0415L73.0733 16.7575L71.6458 18.1583L72.9058 19.4423L74.3333 18.0415ZM72.3595 18.4579H74.6515V16.4579H72.3595V18.4579ZM74.6515 18.4579C75.1661 18.4579 75.7578 18.346 76.2067 17.9166L74.8243 16.4713C74.8641 16.4332 74.891 16.4289 74.8693 16.4356C74.8436 16.4434 74.7766 16.4579 74.6515 16.4579V18.4579ZM76.1912 17.9311C76.6249 17.5336 76.8035 17.0069 76.8035 16.4739H74.8035C74.8035 16.5207 74.7963 16.5275 74.803 16.5105C74.8063 16.5023 74.8117 16.4918 74.8193 16.4807C74.827 16.4697 74.8345 16.4616 74.8398 16.4568L76.1912 17.9311ZM76.8035 16.4739C76.8035 15.9409 76.6249 15.4143 76.1912 15.0168L74.8398 16.4911C74.8345 16.4862 74.827 16.4782 74.8193 16.4671C74.8117 16.4561 74.8063 16.4455 74.803 16.4373C74.7963 16.4204 74.8035 16.4271 74.8035 16.4739H76.8035ZM76.2067 15.0313C75.7578 14.6019 75.1661 14.4899 74.6515 14.4899V16.4899C74.7766 16.4899 74.8436 16.5044 74.8693 16.5123C74.891 16.5189 74.8641 16.5146 74.8243 16.4766L76.2067 15.0313ZM74.6515 14.4899H72.3595V16.4899H74.6515V14.4899ZM73.0733 16.1903L74.3333 14.9063L72.9058 13.5055L71.6458 14.7895L73.0733 16.1903ZM72.6195 14.2059V18.7419H74.6195V14.2059H72.6195ZM81.4357 21.7059H80.4357C80.4357 22.2582 80.8834 22.7059 81.4357 22.7059V21.7059ZM81.4357 15.5019H82.4357C82.4357 14.9496 81.988 14.5019 81.4357 14.5019V15.5019ZM78.9757 15.5019H77.9757C77.9757 16.0542 78.4235 16.5019 78.9757 16.5019V15.5019ZM78.9757 13.3059V12.3059C78.4235 12.3059 77.9757 12.7536 77.9757 13.3059H78.9757ZM86.7277 13.3059H87.7277C87.7277 12.7536 87.28 12.3059 86.7277 12.3059V13.3059ZM86.7277 15.5019V16.5019C87.28 16.5019 87.7277 16.0542 87.7277 15.5019H86.7277ZM84.2677 15.5019V14.5019C83.7155 14.5019 83.2677 14.9496 83.2677 15.5019H84.2677ZM84.2677 21.7059V22.7059C84.82 22.7059 85.2677 22.2582 85.2677 21.7059H84.2677ZM82.4357 21.7059V15.5019H80.4357V21.7059H82.4357ZM81.4357 14.5019H78.9757V16.5019H81.4357V14.5019ZM79.9757 15.5019V13.3059H77.9757V15.5019H79.9757ZM78.9757 14.3059H86.7277V12.3059H78.9757V14.3059ZM85.7277 13.3059V15.5019H87.7277V13.3059H85.7277ZM86.7277 14.5019H84.2677V16.5019H86.7277V14.5019ZM83.2677 15.5019V21.7059H85.2677V15.5019H83.2677ZM84.2677 20.7059H81.4357V22.7059H84.2677V20.7059Z" fill="#0B1E22" mask="url(#path-3-outside-1_1_145)"/>
</g>
</g>
<defs>
<filter id="filter0_d_1_145" x="0" y="0" width="116" height="37" filterUnits="userSpaceOnUse" color-interpolation-filters="sRGB">
<feFlood flood-opacity="0" result="BackgroundImageFix"/>
<feColorMatrix in="SourceAlpha" type="matrix" values="0 0 0 0 0 0 0 0 0 0 0 0 0 0 0 0 0 0 127 0" result="hardAlpha"/>
<feOffset dy="4"/>
<feComposite in2="hardAlpha" operator="out"/>
<feColorMatrix type="matrix" values="0 0 0 0 0.121569 0 0 0 0 0.130196 0 0 0 0 0.639216 0 0 0 1 0"/>
<feBlend mode="normal" in2="BackgroundImageFix" result="effect1_dropShadow_1_145"/>
<feBlend mode="normal" in="SourceGraphic" in2="effect1_dropShadow_1_145" result="shape"/>
</filter>
<filter id="filter1_d_1_145" x="28.9047" y="13.1139" width="57.823" height="9.78406" filterUnits="userSpaceOnUse" color-interpolation-filters="sRGB">
<feFlood flood-opacity="0" result="BackgroundImageFix"/>
<feColorMatrix in="SourceAlpha" type="matrix" values="0 0 0 0 0 0 0 0 0 0 0 0 0 0 0 0 0 0 127 0" result="hardAlpha"/>
<feOffset dy="1"/>
<feComposite in2="hardAlpha" operator="out"/>
<feColorMatrix type="matrix" values="0 0 0 0 0.0431373 0 0 0 0 0.117647 0 0 0 0 0.133333 0 0 0 1 0"/>
<feBlend mode="normal" in2="BackgroundImageFix" result="effect1_dropShadow_1_145"/>
<feBlend mode="normal" in="SourceGraphic" in2="effect1_dropShadow_1_145" result="shape"/>
</filter>
<linearGradient id="paint0_linear_1_145" x1="58" y1="0" x2="58" y2="33" gradientUnits="userSpaceOnUse">
<stop stop-color="#5E73F9"/>
<stop offset="1" stop-color="#3928D4"/>
</linearGradient>
</defs>
</svg>
