<svg width="116" height="37" viewBox="0 0 116 37" fill="none" xmlns="http://www.w3.org/2000/svg">
<g id="Button Text (Pink)">
<g id="Rectangle 8" filter="url(#filter0_d_1_175)">
<rect width="116" height="33" rx="16.5" fill="url(#paint0_linear_1_175)"/>
<rect x="1" y="1" width="114" height="31" rx="15.5" stroke="#F3C4FA" stroke-width="2"/>
</g>
<g id="PLAY" filter="url(#filter1_d_1_175)">
<mask id="path-3-outside-1_1_175" maskUnits="userSpaceOnUse" x="42" y="10.7354" width="37" height="11" fill="black">
<rect fill="white" x="42" y="10.7354" width="37" height="11"/>
<path d="M43.6977 20.7354V12.3354H47.7417C48.5257 12.3354 49.2017 12.4634 49.7697 12.7194C50.3457 12.9754 50.7897 13.3434 51.1017 13.8234C51.4137 14.2954 51.5697 14.8554 51.5697 15.5034C51.5697 16.1514 51.4137 16.7114 51.1017 17.1834C50.7897 17.6554 50.3457 18.0234 49.7697 18.2874C49.2017 18.5434 48.5257 18.6714 47.7417 18.6714H45.2697L46.5297 17.4594V20.7354H43.6977ZM46.5297 17.7714L45.2697 16.4874H47.5617C47.9537 16.4874 48.2417 16.3994 48.4257 16.2234C48.6177 16.0474 48.7137 15.8074 48.7137 15.5034C48.7137 15.1994 48.6177 14.9594 48.4257 14.7834C48.2417 14.6074 47.9537 14.5194 47.5617 14.5194H45.2697L46.5297 13.2354V17.7714ZM52.4985 20.7354V12.3354H55.3305V18.5394H59.1225V20.7354H52.4985ZM59.1099 20.7354L62.7819 12.3354H65.5659L69.2379 20.7354H66.3099L63.5979 13.6794H64.7019L61.9899 20.7354H59.1099ZM61.2939 19.2714L62.0139 17.2314H65.8779L66.5979 19.2714H61.2939ZM71.3108 20.7354V17.0514L71.9588 18.7434L68.1428 12.3354H71.1308L73.7108 16.7154H71.9708L74.5748 12.3354H77.3108L73.5188 18.7434L74.1428 17.0514V20.7354H71.3108Z"/>
</mask>
<path d="M43.6977 20.7354V12.3354H47.7417C48.5257 12.3354 49.2017 12.4634 49.7697 12.7194C50.3457 12.9754 50.7897 13.3434 51.1017 13.8234C51.4137 14.2954 51.5697 14.8554 51.5697 15.5034C51.5697 16.1514 51.4137 16.7114 51.1017 17.1834C50.7897 17.6554 50.3457 18.0234 49.7697 18.2874C49.2017 18.5434 48.5257 18.6714 47.7417 18.6714H45.2697L46.5297 17.4594V20.7354H43.6977ZM46.5297 17.7714L45.2697 16.4874H47.5617C47.9537 16.4874 48.2417 16.3994 48.4257 16.2234C48.6177 16.0474 48.7137 15.8074 48.7137 15.5034C48.7137 15.1994 48.6177 14.9594 48.4257 14.7834C48.2417 14.6074 47.9537 14.5194 47.5617 14.5194H45.2697L46.5297 13.2354V17.7714ZM52.4985 20.7354V12.3354H55.3305V18.5394H59.1225V20.7354H52.4985ZM59.1099 20.7354L62.7819 12.3354H65.5659L69.2379 20.7354H66.3099L63.5979 13.6794H64.7019L61.9899 20.7354H59.1099ZM61.2939 19.2714L62.0139 17.2314H65.8779L66.5979 19.2714H61.2939ZM71.3108 20.7354V17.0514L71.9588 18.7434L68.1428 12.3354H71.1308L73.7108 16.7154H71.9708L74.5748 12.3354H77.3108L73.5188 18.7434L74.1428 17.0514V20.7354H71.3108Z" fill="white"/>
<path d="M43.6977 20.7354H42.6977C42.6977 21.2876 43.1454 21.7354 43.6977 21.7354L43.6977 20.7354ZM43.6977 12.3354V11.3354C43.1454 11.3354 42.6977 11.7831 42.6977 12.3354H43.6977ZM49.7697 12.7194L49.3588 13.631L49.3635 13.6332L49.7697 12.7194ZM51.1017 13.8234L50.2632 14.3684L50.2675 14.3748L51.1017 13.8234ZM51.1017 17.1834L50.2675 16.6319H50.2675L51.1017 17.1834ZM49.7697 18.2874L50.1806 19.1991L50.1863 19.1964L49.7697 18.2874ZM45.2697 18.6714L44.5764 17.9507C44.2824 18.2335 44.1897 18.6666 44.3421 19.045C44.4946 19.4235 44.8617 19.6714 45.2697 19.6714V18.6714ZM46.5297 17.4594H47.5297C47.5297 17.0584 47.2902 16.6962 46.9213 16.5392C46.5524 16.3822 46.1254 16.4607 45.8364 16.7387L46.5297 17.4594ZM46.5297 20.7354V21.7354C47.082 21.7354 47.5297 21.2876 47.5297 20.7354H46.5297ZM46.5297 17.7714L45.8159 18.4718C46.1004 18.7617 46.532 18.8507 46.908 18.697C47.284 18.5434 47.5297 18.1775 47.5297 17.7714H46.5297ZM45.2697 16.4874V15.4874C44.8669 15.4874 44.5035 15.729 44.3476 16.1003C44.1917 16.4717 44.2738 16.9003 44.5559 17.1878L45.2697 16.4874ZM48.4257 16.2234L47.7499 15.4862C47.7447 15.491 47.7396 15.4958 47.7344 15.5007L48.4257 16.2234ZM48.4257 14.7834L47.7344 15.506C47.7396 15.5109 47.7447 15.5157 47.7499 15.5205L48.4257 14.7834ZM45.2697 14.5194L44.5559 13.8189C44.2738 14.1064 44.1917 14.535 44.3476 14.9064C44.5035 15.2777 44.8669 15.5194 45.2697 15.5194V14.5194ZM46.5297 13.2354H47.5297C47.5297 12.8292 47.284 12.4633 46.908 12.3097C46.532 12.156 46.1004 12.245 45.8159 12.5349L46.5297 13.2354ZM44.6977 20.7354V12.3354H42.6977V20.7354H44.6977ZM43.6977 13.3354H47.7417V11.3354H43.6977V13.3354ZM47.7417 13.3354C48.4194 13.3354 48.9488 13.4462 49.3588 13.631L50.1806 11.8077C49.4546 11.4805 48.6319 11.3354 47.7417 11.3354V13.3354ZM49.3635 13.6332C49.7813 13.8189 50.0672 14.0667 50.2632 14.3683L51.9401 13.2784C51.5122 12.62 50.91 12.1318 50.1758 11.8055L49.3635 13.6332ZM50.2675 14.3748C50.4562 14.6604 50.5697 15.0221 50.5697 15.5034H52.5697C52.5697 14.6886 52.3711 13.9303 51.9359 13.2719L50.2675 14.3748ZM50.5697 15.5034C50.5697 15.9846 50.4562 16.3463 50.2675 16.6319L51.9359 17.7348C52.3711 17.0764 52.5697 16.3181 52.5697 15.5034H50.5697ZM50.2675 16.6319C50.0705 16.9299 49.7801 17.1825 49.353 17.3783L50.1863 19.1964C50.9112 18.8642 51.5088 18.3808 51.9359 17.7348L50.2675 16.6319ZM49.3588 17.3757C48.9488 17.5605 48.4194 17.6714 47.7417 17.6714V19.6714C48.6319 19.6714 49.4546 19.5262 50.1806 19.199L49.3588 17.3757ZM47.7417 17.6714H45.2697V19.6714H47.7417V17.6714ZM45.9629 19.3921L47.2229 18.1801L45.8364 16.7387L44.5764 17.9507L45.9629 19.3921ZM45.5297 17.4594V20.7354H47.5297V17.4594H45.5297ZM46.5297 19.7354H43.6977V21.7354H46.5297V19.7354ZM47.2434 17.0709L45.9834 15.7869L44.5559 17.1878L45.8159 18.4718L47.2434 17.0709ZM45.2697 17.4874H47.5617V15.4874H45.2697V17.4874ZM47.5617 17.4874C48.0762 17.4874 48.668 17.3754 49.1169 16.946L47.7344 15.5007C47.7742 15.4627 47.8012 15.4584 47.7795 15.465C47.7537 15.4729 47.6868 15.4874 47.5617 15.4874V17.4874ZM49.1014 16.9605C49.535 16.563 49.7137 16.0364 49.7137 15.5034H47.7137C47.7137 15.5501 47.7064 15.5569 47.7132 15.54C47.7165 15.5318 47.7218 15.5212 47.7295 15.5101C47.7371 15.4991 47.7446 15.4911 47.7499 15.4862L49.1014 16.9605ZM49.7137 15.5034C49.7137 14.9703 49.535 14.4437 49.1014 14.0462L47.7499 15.5205C47.7446 15.5156 47.7371 15.5076 47.7295 15.4966C47.7218 15.4855 47.7165 15.4749 47.7132 15.4667C47.7064 15.4498 47.7137 15.4566 47.7137 15.5034H49.7137ZM49.1169 14.0607C48.668 13.6313 48.0762 13.5194 47.5617 13.5194V15.5194C47.6868 15.5194 47.7537 15.5338 47.7795 15.5417C47.8012 15.5483 47.7742 15.5441 47.7344 15.506L49.1169 14.0607ZM47.5617 13.5194H45.2697V15.5194H47.5617V13.5194ZM45.9834 15.2198L47.2434 13.9358L45.8159 12.5349L44.5559 13.8189L45.9834 15.2198ZM45.5297 13.2354V17.7714H47.5297V13.2354H45.5297ZM52.4985 20.7354H51.4985C51.4985 21.2876 51.9462 21.7354 52.4985 21.7354V20.7354ZM52.4985 12.3354V11.3354C51.9462 11.3354 51.4985 11.7831 51.4985 12.3354H52.4985ZM55.3305 12.3354H56.3305C56.3305 11.7831 55.8827 11.3354 55.3305 11.3354V12.3354ZM55.3305 18.5394H54.3305C54.3305 19.0916 54.7782 19.5394 55.3305 19.5394V18.5394ZM59.1225 18.5394H60.1225C60.1225 17.9871 59.6747 17.5394 59.1225 17.5394V18.5394ZM59.1225 20.7354V21.7354C59.6747 21.7354 60.1225 21.2876 60.1225 20.7354H59.1225ZM53.4985 20.7354V12.3354H51.4985V20.7354H53.4985ZM52.4985 13.3354H55.3305V11.3354H52.4985V13.3354ZM54.3305 12.3354V18.5394H56.3305V12.3354H54.3305ZM55.3305 19.5394H59.1225V17.5394H55.3305V19.5394ZM58.1225 18.5394V20.7354H60.1225V18.5394H58.1225ZM59.1225 19.7354H52.4985V21.7354H59.1225V19.7354ZM59.1099 20.7354L58.1936 20.3348C58.0585 20.644 58.0883 21.0005 58.2731 21.2828C58.4578 21.5652 58.7725 21.7354 59.1099 21.7354V20.7354ZM62.7819 12.3354V11.3354C62.3845 11.3354 62.0248 11.5707 61.8656 11.9348L62.7819 12.3354ZM65.5659 12.3354L66.4822 11.9348C66.323 11.5707 65.9633 11.3354 65.5659 11.3354V12.3354ZM69.2379 20.7354V21.7354C69.5753 21.7354 69.89 21.5652 70.0747 21.2828C70.2594 21.0005 70.2893 20.644 70.1542 20.3348L69.2379 20.7354ZM66.3099 20.7354L65.3765 21.0941C65.5249 21.4804 65.896 21.7354 66.3099 21.7354V20.7354ZM63.5979 13.6794V12.6794C63.2685 12.6794 62.9602 12.8416 62.7736 13.1131C62.5871 13.3846 62.5463 13.7306 62.6645 14.0381L63.5979 13.6794ZM64.7019 13.6794L65.6353 14.0381C65.7535 13.7306 65.7127 13.3846 65.5261 13.1131C65.3396 12.8416 65.0313 12.6794 64.7019 12.6794V13.6794ZM61.9899 20.7354V21.7354C62.4037 21.7354 62.7748 21.4804 62.9233 21.0941L61.9899 20.7354ZM61.2939 19.2714L60.3509 18.9385C60.2429 19.2446 60.2901 19.584 60.4776 19.8489C60.665 20.1139 60.9694 20.2714 61.2939 20.2714V19.2714ZM62.0139 17.2314V16.2314C61.5899 16.2314 61.212 16.4987 61.0709 16.8985L62.0139 17.2314ZM65.8779 17.2314L66.8209 16.8985C66.6798 16.4987 66.3019 16.2314 65.8779 16.2314V17.2314ZM66.5979 19.2714V20.2714C66.9224 20.2714 67.2268 20.1139 67.4142 19.8489C67.6017 19.584 67.6489 19.2446 67.5409 18.9385L66.5979 19.2714ZM60.0262 21.1359L63.6982 12.7359L61.8656 11.9348L58.1936 20.3348L60.0262 21.1359ZM62.7819 13.3354H65.5659V11.3354H62.7819V13.3354ZM64.6496 12.7359L68.3216 21.1359L70.1542 20.3348L66.4822 11.9348L64.6496 12.7359ZM69.2379 19.7354H66.3099V21.7354H69.2379V19.7354ZM67.2433 20.3766L64.5313 13.3206L62.6645 14.0381L65.3765 21.0941L67.2433 20.3766ZM63.5979 14.6794H64.7019V12.6794H63.5979V14.6794ZM63.7685 13.3206L61.0565 20.3766L62.9233 21.0941L65.6353 14.0381L63.7685 13.3206ZM61.9899 19.7354H59.1099V21.7354H61.9899V19.7354ZM62.2369 19.6042L62.9569 17.5642L61.0709 16.8985L60.3509 18.9385L62.2369 19.6042ZM62.0139 18.2314H65.8779V16.2314H62.0139V18.2314ZM64.9349 17.5642L65.6549 19.6042L67.5409 18.9385L66.8209 16.8985L64.9349 17.5642ZM66.5979 18.2714H61.2939V20.2714H66.5979V18.2714ZM71.3108 20.7354H70.3108C70.3108 21.2876 70.7585 21.7354 71.3108 21.7354V20.7354ZM71.3108 17.0514L72.2447 16.6937C72.0722 16.2434 71.603 15.9803 71.1289 16.068C70.6548 16.1557 70.3108 16.5692 70.3108 17.0514H71.3108ZM71.9588 18.7434L71.0996 19.255C71.3652 19.701 71.9279 19.8696 72.395 19.6432C72.8622 19.4167 73.0783 18.8705 72.8927 18.3857L71.9588 18.7434ZM68.1428 12.3354V11.3354C67.7831 11.3354 67.4511 11.5285 67.2734 11.8412C67.0957 12.1539 67.0996 12.538 67.2836 12.847L68.1428 12.3354ZM71.1308 12.3354L71.9924 11.8278C71.8127 11.5227 71.4849 11.3354 71.1308 11.3354V12.3354ZM73.7108 16.7154V17.7154C74.0696 17.7154 74.4009 17.5231 74.579 17.2116C74.757 16.9 74.7545 16.517 74.5724 16.2078L73.7108 16.7154ZM71.9708 16.7154L71.1112 16.2043C70.9275 16.5134 70.9238 16.8973 71.1016 17.2098C71.2794 17.5223 71.6112 17.7154 71.9708 17.7154V16.7154ZM74.5748 12.3354V11.3354C74.2221 11.3354 73.8955 11.5212 73.7152 11.8243L74.5748 12.3354ZM77.3108 12.3354L78.1714 12.8446C78.3543 12.5355 78.3574 12.152 78.1795 11.84C78.0016 11.528 77.67 11.3354 77.3108 11.3354V12.3354ZM73.5188 18.7434L72.5806 18.3973C72.4016 18.8826 72.6223 19.4244 73.0894 19.6465C73.5565 19.8686 74.116 19.6978 74.3794 19.2526L73.5188 18.7434ZM74.1428 17.0514H75.1428C75.1428 16.5669 74.7955 16.1521 74.3185 16.0669C73.8416 15.9818 73.3722 16.2508 73.2046 16.7053L74.1428 17.0514ZM74.1428 20.7354V21.7354C74.6951 21.7354 75.1428 21.2876 75.1428 20.7354H74.1428ZM72.3108 20.7354V17.0514H70.3108V20.7354H72.3108ZM70.3769 17.409L71.0249 19.101L72.8927 18.3857L72.2447 16.6937L70.3769 17.409ZM72.818 18.2317L69.002 11.8237L67.2836 12.847L71.0996 19.255L72.818 18.2317ZM68.1428 13.3354H71.1308V11.3354H68.1428V13.3354ZM70.2692 12.8429L72.8492 17.2229L74.5724 16.2078L71.9924 11.8278L70.2692 12.8429ZM73.7108 15.7154H71.9708V17.7154H73.7108V15.7154ZM72.8304 17.2264L75.4344 12.8464L73.7152 11.8243L71.1112 16.2043L72.8304 17.2264ZM74.5748 13.3354H77.3108V11.3354H74.5748V13.3354ZM76.4502 11.8261L72.6582 18.2341L74.3794 19.2526L78.1714 12.8446L76.4502 11.8261ZM74.457 19.0894L75.081 17.3974L73.2046 16.7053L72.5806 18.3973L74.457 19.0894ZM73.1428 17.0514V20.7354H75.1428V17.0514H73.1428ZM74.1428 19.7354H71.3108V21.7354H74.1428V19.7354Z" fill="#0B1E22" mask="url(#path-3-outside-1_1_175)"/>
</g>
</g>
<defs>
<filter id="filter0_d_1_175" x="0" y="0" width="116" height="37" filterUnits="userSpaceOnUse" color-interpolation-filters="sRGB">
<feFlood flood-opacity="0" result="BackgroundImageFix"/>
<feColorMatrix in="SourceAlpha" type="matrix" values="0 0 0 0 0 0 0 0 0 0 0 0 0 0 0 0 0 0 127 0" result="hardAlpha"/>
<feOffset dy="4"/>
<feComposite in2="hardAlpha" operator="out"/>
<feColorMatrix type="matrix" values="0 0 0 0 0.630588 0 0 0 0 0.121569 0 0 0 0 0.639216 0 0 0 1 0"/>
<feBlend mode="normal" in2="BackgroundImageFix" result="effect1_dropShadow_1_175"/>
<feBlend mode="normal" in="SourceGraphic" in2="effect1_dropShadow_1_175" result="shape"/>
</filter>
<filter id="filter1_d_1_175" x="43.6977" y="12.3353" width="33.6131" height="9.40002" filterUnits="userSpaceOnUse" color-interpolation-filters="sRGB">
<feFlood flood-opacity="0" result="BackgroundImageFix"/>
<feColorMatrix in="SourceAlpha" type="matrix" values="0 0 0 0 0 0 0 0 0 0 0 0 0 0 0 0 0 0 127 0" result="hardAlpha"/>
<feOffset dy="1"/>
<feComposite in2="hardAlpha" operator="out"/>
<feColorMatrix type="matrix" values="0 0 0 0 0.0431373 0 0 0 0 0.117647 0 0 0 0 0.133333 0 0 0 1 0"/>
<feBlend mode="normal" in2="BackgroundImageFix" result="effect1_dropShadow_1_175"/>
<feBlend mode="normal" in="SourceGraphic" in2="effect1_dropShadow_1_175" result="shape"/>
</filter>
<linearGradient id="paint0_linear_1_175" x1="58" y1="0" x2="58" y2="33" gradientUnits="userSpaceOnUse">
<stop stop-color="#F95EDD"/>
<stop offset="1" stop-color="#D428C9"/>
</linearGradient>
</defs>
</svg>
